<?xml version="1.0" standalone="no"?>
<!DOCTYPE svg PUBLIC "-//W3C//DTD SVG 1.1//EN" "http://www.w3.org/Graphics/SVG/1.1/DTD/svg11.dtd" >
<svg xmlns="http://www.w3.org/2000/svg" xmlns:xlink="http://www.w3.org/1999/xlink" version="1.1">
<metadata>
Created by FontForge 20170731 at Tue Apr  6 11:16:38 2021
 By Aleksey,,,
Copyright (c) Tikhon Reztcov | Moscow, 2020. All rights reserved.
</metadata>
<defs>
<font id="SKConcretica-Regular" horiz-adv-x="569" >
  <font-face 
    font-family="SK Concretica"
    font-weight="400"
    font-stretch="normal"
    units-per-em="1000"
    panose-1="0 0 0 0 0 0 0 0 0 0"
    ascent="800"
    descent="-200"
    x-height="496"
    cap-height="700"
    bbox="-80 -263 1472 1047"
    underline-thickness="50"
    underline-position="-175"
    unicode-range="U+000D-2219"
  />
<missing-glyph horiz-adv-x="333" 
 />
    <glyph glyph-name=".notdef" horiz-adv-x="333" 
 />
    <glyph glyph-name=".null" horiz-adv-x="364" 
d="M161 0h-136v162h46v-116h44v161h-90v293h136v-204h-46v158h-44v-202h90v-252zM339 0h-44v207h-52v-207h-46v420h46v-168h2l42 248h52l-50 -248h50v-252zM197 455v45h46v-45h-46z" />
    <glyph glyph-name=".null" horiz-adv-x="364" 
d="M161 0h-136v162h46v-116h44v161h-90v293h136v-204h-46v158h-44v-202h90v-252zM339 0h-44v207h-52v-207h-46v420h46v-168h2l42 248h52l-50 -248h50v-252zM197 455v45h46v-45h-46z" />
    <glyph glyph-name="uni000D" unicode="&#xd;" horiz-adv-x="250" 
 />
    <glyph glyph-name="space" unicode=" " horiz-adv-x="285" 
 />
    <glyph glyph-name="exclam" unicode="!" horiz-adv-x="165" 
d="M129 167h-94v533h94v-533zM130 95v-95h-95v95h95z" />
    <glyph glyph-name="quotedbl" unicode="&#x22;" horiz-adv-x="328" 
d="M198 700h94v-161h-94v161zM35 539v161h94v-161h-94z" />
    <glyph glyph-name="numbersign" unicode="#" horiz-adv-x="830" 
d="M707 543h88v-94h-140l-85 -154h112v-94h-164l-111 -201h-102l111 201h-168l-111 -201h-102l111 201h-87v94h139l85 154h-112v94h164l87 157h102l-87 -157h168l87 157h102zM553 449h-168l-85 -154h168z" />
    <glyph glyph-name="dollar" unicode="$" horiz-adv-x="576" 
d="M243 -4q-96 14 -152 75.5t-56 162.5v14h93q6 -70 31.5 -108t83.5 -49v245q-38 11 -72 25.5t-59 36t-38 51.5t-13 69v6q3 76 51 123t131 57v60h95v-62q85 -14 130 -68.5t49 -136.5h-93q-8 48 -28 74t-58 35v-197q56 -16 95 -36.5t63 -46t34 -55t10 -62.5v-12
q0 -13 -3 -31.5t-10 -39.5t-20.5 -42.5t-36 -40t-55 -32t-77.5 -17.5v-61h-95v63zM243 609q-84 -13 -87 -87v-10q0 -8 1 -17t9.5 -19.5t26.5 -20t50 -20.5v174zM338 90q20 3 39.5 9.5t34.5 18.5t24 30.5t9 44.5q0 15 -1 29.5t-11 29.5t-32 29.5t-63 28.5v-220z" />
    <glyph glyph-name="percent" unicode="%" horiz-adv-x="1033" 
d="M761 700l-386 -700h-102l386 700h102zM441 508q0 -67 -18.5 -107t-47.5 -61t-65.5 -27.5t-71.5 -6.5t-71 6.5t-65.5 27.5t-48 61t-18.5 107q0 30 6 63.5t27 62t61.5 47.5t108.5 19t108.5 -19t61.5 -47.5t27 -62t6 -63.5zM238 400q31 0 51.5 3.5t33 15t18 31.5t5.5 53
t-5.5 53t-18 31.5t-33 15t-51.5 3.5t-51.5 -3.5t-33.5 -15t-18.5 -31.5t-5.5 -53t5.5 -53t18.5 -31.5t33.5 -15t51.5 -3.5zM795 395q68 0 108.5 -19t61.5 -47.5t27 -62t6 -63.5q0 -67 -18.5 -107.5t-47.5 -61.5t-65.5 -27.5t-71.5 -6.5t-71 6.5t-65.5 27.5t-48 61.5
t-18.5 107.5q0 30 6 63.5t27 62t61.5 47.5t108.5 19zM795 95q31 0 51.5 3.5t33 15t18 31.5t5.5 53t-5.5 53t-18 31.5t-33 15t-51.5 3.5t-51.5 -3.5t-33.5 -15t-18.5 -31.5t-5.5 -53t5.5 -53t18.5 -31.5t33.5 -15t51.5 -3.5z" />
    <glyph glyph-name="ampersand" unicode="&#x26;" horiz-adv-x="621" 
d="M472 397h114v-93h-114v-210h114v-94h-208v50h-5q-32 -25 -68.5 -36.5t-72.5 -11.5q-39 0 -74.5 13t-62.5 38t-43.5 61.5t-16.5 84.5q0 41 18.5 70t48 47t65.5 26.5t71 8.5v11q-30 5 -55 18t-42.5 31.5t-27.5 42t-10 48.5q0 49 14.5 80.5t36.5 50t49.5 25.5t52.5 7
q22 0 40 -3.5t29 -8.5v-88h-5q-7 5 -17.5 7t-21.5 2q-14 0 -29 -4t-27 -12.5t-20 -22t-8 -33.5q0 -38 17 -59t43.5 -31t58.5 -12t62 -2v302h94v-303zM378 305q-28 0 -69.5 -0.5t-80.5 -10t-67 -31.5t-28 -64q0 -31 9 -52t24 -33t34.5 -17t40.5 -5q23 0 45 4t41 9.5
t32.5 10.5t18.5 7v182z" />
    <glyph glyph-name="quotesingle" unicode="'" horiz-adv-x="164" 
d="M35 700h94v-160h-94v160z" />
    <glyph glyph-name="parenleft" unicode="(" horiz-adv-x="225" 
d="M189 701q-28 -93 -42 -179.5t-14 -171.5t14 -171.5t42 -178.5h-98q-27 102 -41 186t-14 164.5t14 164.5t41 186h98z" />
    <glyph glyph-name="parenright" unicode=")" horiz-adv-x="223" 
d="M133 700q28 -102 42 -186t14 -164t-14 -164t-42 -186h-98q28 92 42 178.5t14 171.5t-14 171.5t-42 178.5h98z" />
    <glyph glyph-name="asterisk" unicode="*" horiz-adv-x="382" 
d="M212 555l135 18v-53l-135 18l108 -82l-38 -38l-81 105l18 -130h-56l18 130l-80 -105l-39 38l108 82l-135 -18v53l135 -18l-108 81l39 38l80 -105l-18 131h56l-18 -130l81 104l38 -38z" />
    <glyph glyph-name="plus" unicode="+" horiz-adv-x="361" 
d="M227 403h103v-94h-103v-103h-94v103h-103v94h103v103h94v-103z" />
    <glyph glyph-name="comma" unicode="," horiz-adv-x="260" 
d="M123 94h102l-88 -160h-102z" />
    <glyph glyph-name="hyphen" unicode="-" horiz-adv-x="505" 
d="M35 341h435v-94h-435v94z" />
    <glyph glyph-name="period" unicode="." horiz-adv-x="165" 
d="M35 94h95v-94h-95v94z" />
    <glyph glyph-name="slash" unicode="/" horiz-adv-x="558" 
d="M421 700h102l-386 -700h-102z" />
    <glyph glyph-name="zero" unicode="0" horiz-adv-x="535" 
d="M485 700v-700h-435v700h435zM144 94h247v512h-247v-512z" />
    <glyph glyph-name="one" unicode="1" horiz-adv-x="488" 
d="M291 94h162v-94h-418v94h162v456h-3q-15 -21 -40.5 -32t-50 -16t-44 -5.5t-24.5 -0.5v94q24 0 46.5 3.5t41.5 14.5t34 33t25 59h109v-606z" />
    <glyph glyph-name="two" unicode="2" horiz-adv-x="536" 
d="M50 701h435v-392h-341v-215h341v-94h-435v403h341v203h-341v95z" />
    <glyph glyph-name="three" unicode="3" horiz-adv-x="536" 
d="M486 606l-274 -202h266v-405h-443v95h349v216h-349v72l304 224h-304v94h451v-94z" />
    <glyph glyph-name="four" unicode="4" horiz-adv-x="558" 
d="M414 700h94v-700h-94v310h-379v100q23 6 42 20.5t33 43.5t22 76t8 118v32h95v-32q0 -177 -55 -263h234v295z" />
    <glyph glyph-name="five" unicode="5" horiz-adv-x="520" 
d="M35 700h435v-94h-341v-201h341v-405h-435v94h341v217h-341v389z" />
    <glyph glyph-name="six" unicode="6" horiz-adv-x="520" 
d="M485 700v-94h-341v-200h341v-406h-435v700h435zM144 94h247v218h-247v-218z" />
    <glyph glyph-name="seven" unicode="7" horiz-adv-x="523" 
d="M488 700v-94q-15 -14 -46.5 -52t-63 -105.5t-55 -166.5t-23.5 -235v-47h-95v47q0 109 15 197t38 157t50.5 120t53.5 85h-327v94h453z" />
    <glyph glyph-name="eight" unicode="8" horiz-adv-x="535" 
d="M485 700v-700h-435v700h435zM144 404h247v202h-247v-202zM144 94h247v216h-247v-216z" />
    <glyph glyph-name="nine" unicode="9" horiz-adv-x="535" 
d="M485 0h-435v94h341v210h-341v396h435v-700zM391 606h-247v-208h247v208z" />
    <glyph glyph-name="colon" unicode=":" horiz-adv-x="165" 
d="M35 498h95v-95h-95v95zM130 94v-94h-95v94h95z" />
    <glyph glyph-name="semicolon" unicode=";" horiz-adv-x="260" 
d="M130 403v95h95v-95h-95zM225 94l-88 -160h-102l88 160h102z" />
    <glyph glyph-name="less" unicode="&#x3c;" horiz-adv-x="537" 
d="M35 428l467 180v-98l-373 -144v-28l373 -144v-98l-467 180v152z" />
    <glyph glyph-name="equal" unicode="=" horiz-adv-x="370" 
d="M35 484h300v-94h-300v94zM335 333v-95h-300v95h300z" />
    <glyph glyph-name="greater" unicode="&#x3e;" horiz-adv-x="537" 
d="M502 276l-467 -180v98l373 144v28l-373 144v98l467 -180v-152z" />
    <glyph glyph-name="question" unicode="?" horiz-adv-x="568" 
d="M35 473q0 40 8.5 80.5t34.5 73t75 53t131 20.5q83 0 132 -21t75 -54t34 -74t8 -82q0 -37 -6.5 -75t-27 -69.5t-58.5 -54.5t-102 -30v-73h-96v166h71q36 0 60 7.5t38 24.5t20 44t6 66q0 34 -5.5 59t-21.5 41t-45.5 23.5t-78.5 7.5q-54 0 -85.5 -9t-47.5 -26.5t-20.5 -42
t-4.5 -55.5h-94zM244 0v95h95v-95h-95z" />
    <glyph glyph-name="at" unicode="@" horiz-adv-x="799" 
d="M50 700h699v-545h-252v38q-8 -16 -39.5 -28t-73.5 -12q-32 0 -65 9.5t-60 33t-44.5 62t-17.5 96.5q0 57 17 95.5t43 61t59 32t64 9.5q42 0 75.5 -12.5t41.5 -28.5v38h95v-302h63v359h-511v-512h511v-94h-605v700zM497 387q0 24 -8.5 37.5t-22 20t-31.5 8.5t-36 2
q-32 0 -53 -3.5t-33 -15t-17 -31.5t-5 -53t5 -53t17 -31.5t32.5 -15t50.5 -3.5q20 0 38 2t32 9t22.5 20.5t8.5 36.5v70z" />
    <glyph glyph-name="A" unicode="A" horiz-adv-x="629" 
d="M412 699l187 -699h-98l-54 202h-265l-54 -202h-98l187 699h195zM421 296l-82 309h-49l-83 -309h214z" />
    <glyph glyph-name="B" unicode="B" horiz-adv-x="567" 
d="M349 353q35 0 68.5 -9t60 -28.5t43 -49t16.5 -71.5q0 -40 -15.5 -75t-42 -61.5t-62.5 -42t-78 -15.5h-289v700h236q42 0 78 -15.5t62.5 -42t41.5 -62.5t15 -77q0 -64 -35.5 -103.5t-98.5 -39.5h-1v-8h1zM286 397q22 0 41 8.5t33 22.5t22 33t8 41q0 21 -8 40.5t-22 33.5
t-33 22.5t-41 8.5h-141v-210h141zM345 96q21 0 40 8t33 22.5t22 33.5t8 40q0 22 -8 41t-22.5 33.5t-33.5 22.5t-41 8h-198v-209h200z" />
    <glyph glyph-name="C" unicode="C" 
d="M285 705q54 0 99 -16t78.5 -46.5t53.5 -75t23 -101.5h-94q-6 70 -45.5 107t-117.5 37q-37 0 -64 -9.5t-45.5 -26t-29.5 -38.5t-16 -48v-1q-2 -12 -3.5 -52t-1.5 -87.5t1.5 -90.5t5.5 -60q11 -51 46 -80t109 -29q43 0 73 10t49 30t28 49.5t11 68.5h94q0 -57 -20.5 -103.5
t-55.5 -80t-81 -51.5t-98 -18t-98.5 18.5t-81 53t-54.5 82.5t-20 106v192q0 62 19 110.5t52.5 81.5t80.5 50.5t103 17.5z" />
    <glyph glyph-name="D" unicode="D" horiz-adv-x="589" 
d="M320 699q50 0 93.5 -18.5t75.5 -51t51 -75.5t19 -93v-223q0 -49 -17.5 -92.5t-48 -75.5t-72.5 -51t-91 -19h-280v699h270zM465 461q0 65 -36.5 105t-103.5 40h-181v-512h176q68 0 106.5 39t38.5 105v223z" />
    <glyph glyph-name="E" unicode="E" horiz-adv-x="557" 
d="M50 0v700h472v-94h-378v-202h283v-94h-283v-215h378v-95h-472z" />
    <glyph glyph-name="F" unicode="F" horiz-adv-x="558" 
d="M522 701v-96h-378v-202h283v-94h-283v-309h-94v701h472z" />
    <glyph glyph-name="G" unicode="G" 
d="M288 396h251v-146q0 -62 -20 -110.5t-54.5 -81.5t-80.5 -50.5t-99 -17.5t-99.5 17.5t-81 50.5t-54.5 81.5t-20 110.5v198q0 59 20 106.5t54.5 82t81 53t98.5 18.5q47 0 90 -15.5t76.5 -45t56.5 -72.5t31 -99h-93q-11 65 -49.5 101t-115.5 36q-71 0 -108.5 -29t-48.5 -80
q-2 -11 -3.5 -36t-2.5 -51t-1 -49q0 -11 0.5 -34t1 -53.5t2 -53t2.5 -30.5q11 -52 48.5 -82t115.5 -30q58 0 91 17t50 46t21.5 69t4.5 85h-165v94z" />
    <glyph glyph-name="H" unicode="H" horiz-adv-x="578" 
d="M434 699h94v-699h-94v309h-290v-309h-94v699h94v-296h290v296z" />
    <glyph glyph-name="I" unicode="I" horiz-adv-x="322" 
d="M30 94h84v512h-84v94h262v-94h-84v-512h84v-94h-262v94z" />
    <glyph glyph-name="J" unicode="J" horiz-adv-x="519" 
d="M249 -9q-45 0 -85 17t-69.5 47t-47 70t-17.5 85v42h96v-42q0 -26 9.5 -49t26.5 -40t39.5 -27t47.5 -10q61 0 94 39t33 124v453h93v-443q0 -132 -56 -199t-164 -67z" />
    <glyph glyph-name="K" unicode="K" horiz-adv-x="572" 
d="M270 406v-3h244v-403h-94v309h-276v-309h-94v700h94v-297h4l264 297h120z" />
    <glyph glyph-name="L" unicode="L" horiz-adv-x="522" 
d="M144 94h348v-94h-442v700h94v-606z" />
    <glyph glyph-name="M" unicode="M" horiz-adv-x="790" 
d="M740 699v-699h-95v605h-12l-160 -605h-159l-156 605h-13v-605h-95v699h182l156 -604h11l160 604h181z" />
    <glyph glyph-name="N" unicode="N" horiz-adv-x="600" 
d="M455 700h94v-700h-186l-194 606h-25v-606h-94v700h186l195 -607h24v607z" />
    <glyph glyph-name="O" unicode="O" 
d="M284 708q53 0 99 -18.5t81 -53t55 -82t20 -106.5v-198q0 -62 -20 -110.5t-55 -81.5t-81 -50.5t-99 -17.5q-52 0 -98.5 17.5t-81 50.5t-54.5 81.5t-20 110.5v198q0 59 20 106.5t54.5 82t81 53t98.5 18.5zM442 197q2 8 3 30.5t1.5 53t0.5 65t-0.5 66t-2 56.5t-4.5 36
q-11 50 -46.5 79.5t-109.5 29.5t-109 -29t-46 -80q-2 -11 -4 -36t-2.5 -56.5t-0.5 -66t0.5 -64.5t2 -52.5t2.5 -30.5v-1q11 -52 46 -82t109 -30q75 0 112 30t48 82z" />
    <glyph glyph-name="P" unicode="P" 
d="M339 700q41 0 77.5 -16t63.5 -43t42.5 -63.5t15.5 -77.5t-15.5 -77.5t-42.5 -63.5t-63.5 -42.5t-77.5 -15.5h-194v-301h-95v700h289zM339 396q22 0 41 8t33 22.5t22 33.5t8 40q0 22 -8 41t-22 33.5t-33 22.5t-41 8h-194v-209h194z" />
    <glyph glyph-name="Q" unicode="Q" horiz-adv-x="597" 
d="M536 250q0 -51 -14 -93t-39 -74l84 -84l-66 -66l-90 90q-59 -31 -128 -31q-52 0 -98 17.5t-80.5 50.5t-54.5 81t-20 109v197q0 58 20 106t54 82t80.5 52.5t98.5 18.5q53 0 99 -18.5t80 -52.5t54 -82t20 -106v-197zM437 188q2 11 4 35t2.5 55.5t1 58t0.5 42.5
q0 17 -0.5 40.5t-2.5 48.5t-4 36q-6 25 -17 45t-29.5 34t-45 21.5t-63.5 7.5q-73 0 -108.5 -29.5t-46.5 -79.5q-2 -11 -3.5 -35.5t-2.5 -50.5t-1 -49q0 -11 0.5 -34t1 -53t1.5 -52.5t3 -30.5q11 -52 45.5 -82t110.5 -30q14 0 29 1t30 5l-79 78l67 67l90 -91q8 11 12 23t5 19
z" />
    <glyph glyph-name="R" unicode="R" horiz-adv-x="568" 
d="M538 504q0 -35 -11.5 -66.5t-32 -57t-48 -44t-60.5 -26.5l143 -309h-98l-141 304h-145v-304h-95v702h289q41 0 77.5 -15.5t63.5 -42.5t42.5 -63.5t15.5 -77.5zM339 399q21 0 40 8.5t33.5 22.5t22.5 33t8 41t-8 41t-22.5 33.5t-33.5 22.5t-40 8h-194v-210h194z" />
    <glyph glyph-name="S" unicode="S" horiz-adv-x="566" 
d="M151 525q0 -38 29 -58t72.5 -34t94 -27t93 -36t69 -60.5t26.5 -98.5v-9q-1 -21 -8 -56t-31.5 -68.5t-71 -58t-126.5 -24.5q-61 0 -111 16.5t-84.5 47.5t-53.5 76t-19 102v14h93q8 -84 50.5 -122.5t114.5 -38.5q26 0 53 4t49 16t36 32.5t14 53.5q0 49 -28.5 74.5t-71 41
t-92.5 26.5t-92.5 31t-71 55t-28.5 98q0 44 16 79t45 59t70 36.5t91 12.5q103 0 166 -53.5t68 -155.5h-93q-11 63 -46 89t-92 26t-93.5 -22.5t-36.5 -67.5z" />
    <glyph glyph-name="T" unicode="T" horiz-adv-x="583" 
d="M30 700h523v-94h-214v-606h-94v606h-215v94z" />
    <glyph glyph-name="U" unicode="U" horiz-adv-x="606" 
d="M462 700h94v-700h-506v700h94v-606h318v606z" />
    <glyph glyph-name="V" unicode="V" horiz-adv-x="631" 
d="M503 700h99l-190 -700h-195l-187 700h98l162 -606h49z" />
    <glyph glyph-name="W" unicode="W" horiz-adv-x="986" 
d="M857 700h99l-169 -700h-175l-116 605h-13l-116 -605h-173l-164 700h98l144 -606h13l117 606h175l116 -606h16z" />
    <glyph glyph-name="X" unicode="X" horiz-adv-x="587" 
d="M347 352v-2l210 -350h-106l-155 262h-3l-157 -262h-106l210 351v2l-207 347h106l154 -260h3l153 260h106z" />
    <glyph glyph-name="Y" unicode="Y" horiz-adv-x="661" 
d="M525 700h106l-253 -403v-296h-95v296l-253 403h106l192 -299h5z" />
    <glyph glyph-name="Z" unicode="Z" horiz-adv-x="517" 
d="M487 700v-73l-329 -529v-4h329v-94h-457v68l329 535v3h-329v94h457z" />
    <glyph glyph-name="bracketleft" unicode="[" horiz-adv-x="295" 
d="M260 700v-94h-116v-512h116v-94h-210v700h210z" />
    <glyph glyph-name="backslash" unicode="\" horiz-adv-x="558" 
d="M137 700l386 -700h-102l-386 700h102z" />
    <glyph glyph-name="bracketright" unicode="]" horiz-adv-x="295" 
d="M245 700v-700h-210v94h116v512h-116v94h210z" />
    <glyph glyph-name="asciicircum" unicode="^" horiz-adv-x="392" 
d="M266 700l91 -247h-98l-57 153h-20l-49 -154h-98l78 248h153z" />
    <glyph glyph-name="underscore" unicode="_" horiz-adv-x="505" 
d="M35 94h435v-94h-435v94z" />
    <glyph glyph-name="grave" unicode="`" horiz-adv-x="260" 
d="M137 700l88 -161h-102l-88 161h102z" />
    <glyph glyph-name="a" unicode="a" horiz-adv-x="541" 
d="M350 316v85h-270v95h364v-402h67v-94h-148l-10 53h-3q-12 -22 -48 -38t-90 -16q-88 0 -135 46.5t-47 118.5q0 75 56 113.5t150 38.5h114zM350 231h-100q-32 0 -55 -7t-37.5 -17.5t-21 -24t-6.5 -26.5q0 -18 8 -31.5t21.5 -22.5t30.5 -13.5t36 -4.5q22 0 44 6t40 18.5
t29 30.5t11 42v50z" />
    <glyph glyph-name="b" unicode="b" horiz-adv-x="553" 
d="M50 701h94v-257h2q15 23 55.5 38t88.5 15q41 0 82 -8t75 -34t55 -75t21 -132t-21.5 -132t-55 -75t-75 -33.5t-81.5 -7.5q-43 0 -83.5 16.5t-63.5 38.5h-3l-10 -55h-80v701zM286 94q32 0 57.5 4t43 19.5t27 47t9.5 86.5q0 49 -8 78.5t-24.5 46t-42.5 22t-62 5.5
t-62.5 -5.5t-43 -22t-24.5 -46t-8 -78.5q0 -55 9.5 -86.5t27.5 -47t43.5 -19.5t57.5 -4z" />
    <glyph glyph-name="c" unicode="c" horiz-adv-x="517" 
d="M262 401q-36 0 -62.5 -5.5t-43 -21.5t-24.5 -46t-8 -78q0 -55 9.5 -87t27.5 -47.5t43.5 -19.5t57.5 -4q24 0 45 2t37.5 9.5t28 22.5t18.5 41h96q-10 -55 -33.5 -88.5t-54.5 -51.5t-66.5 -23.5t-70.5 -5.5q-40 0 -81.5 8t-75 33.5t-54.5 75t-21 131.5q0 83 21 132t54.5 75
t75 34t81.5 8q35 0 71 -6t67 -24t54 -52t33 -90h-95q-11 49 -43 63.5t-87 14.5z" />
    <glyph glyph-name="d" unicode="d" horiz-adv-x="553" 
d="M423 -1l-10 55h-3q-23 -22 -63.5 -38.5t-83.5 -16.5q-40 0 -81.5 7.5t-75 33.5t-55 75t-21.5 132t21 132t55 75t75.5 34t81.5 8q48 0 88.5 -15t55.5 -38h2v257h94v-701h-80zM267 93q32 0 57.5 4t43.5 19.5t27.5 47t9.5 86.5q0 49 -8 78.5t-24.5 46t-43 22t-62.5 5.5
t-62 -5.5t-42.5 -22t-24.5 -46t-8 -78.5q0 -55 9.5 -86.5t27 -47t43 -19.5t57.5 -4z" />
    <glyph glyph-name="e" unicode="e" horiz-adv-x="524" 
d="M265 493q65 0 110.5 -22t73 -61.5t36.5 -85t9 -85.5q0 -20 -2 -40h-367q0 -35 11 -57t30 -34t43 -16.5t51 -4.5q19 0 39 1.5t37 7t30.5 16.5t18.5 30h96q-10 -40 -30.5 -67.5t-49 -44.5t-64 -25t-75.5 -8q-121 0 -176.5 63t-55.5 185q0 54 14.5 99.5t43.5 78.5t73 51.5
t104 18.5zM399 287q-1 12 -5 32.5t-17.5 40t-39.5 33.5t-71 14q-41 0 -68 -12t-43.5 -30t-23 -39t-6.5 -39h274z" />
    <glyph glyph-name="f" unicode="f" horiz-adv-x="466" 
d="M114 700h317v-94h-223v-110h167v-94h-167v-402h-94v402h-84v94h84v204z" />
    <glyph glyph-name="g" unicode="g" horiz-adv-x="553" 
d="M503 -203h-422v95h328v163h-2q-15 -23 -55.5 -38t-88.5 -15q-40 0 -81.5 8t-75.5 34t-55 75.5t-21 131.5q0 83 21.5 132t55 75t75 33.5t81.5 7.5q51 0 91 -15t56 -40h3v55h90v-702zM267 97q39 0 66 6.5t44.5 23t25.5 46.5t8 76q0 52 -9.5 83t-27.5 47.5t-43.5 21.5
t-57.5 5t-57.5 -4t-43.5 -19.5t-27.5 -47t-9.5 -86.5q0 -49 8 -78.5t24 -46t41 -22t59 -5.5z" />
    <glyph glyph-name="h" unicode="h" horiz-adv-x="563" 
d="M50 0v701h98v-261h2q15 23 53.5 40t86.5 17q41 0 82 -8t75 -34t55 -75t21 -132v-248h-100v241q0 49 -8 80.5t-24.5 49.5t-42 25t-59.5 7q-35 0 -62 -7t-45 -25t-27.5 -47.5t-9.5 -74.5v-249h-95z" />
    <glyph glyph-name="i" unicode="i" horiz-adv-x="195" 
d="M144 700v-94h-94v94h94zM50 500h94v-499h-94v499z" />
    <glyph glyph-name="j" unicode="j" horiz-adv-x="283" 
d="M233 606h-94v94h94v-94zM35 -197v94h104v604h94v-698h-198z" />
    <glyph glyph-name="k" unicode="k" horiz-adv-x="507" 
d="M467 296v-296h-94v202h-229v-202h-94v700h94v-404h3l179 200h121l-175 -197v-3h195z" />
    <glyph glyph-name="l" unicode="l" horiz-adv-x="194" 
d="M50 700h94v-700h-94v700z" />
    <glyph glyph-name="m" unicode="m" horiz-adv-x="764" 
d="M714 496v-496h-94v402h-191v-402h-94v402h-191v-402h-94v496h664z" />
    <glyph glyph-name="n" unicode="n" horiz-adv-x="563" 
d="M50 0v496h98v-56h2q15 23 53.5 40t86.5 17q41 0 82 -8t75 -34t55 -75t21 -132v-248h-100v241q0 49 -8 80.5t-24.5 49.5t-42 25t-59.5 7q-35 0 -62 -7t-45 -25t-27.5 -47.5t-9.5 -74.5v-249h-95z" />
    <glyph glyph-name="o" unicode="o" horiz-adv-x="524" 
d="M262 496q41 0 82 -8t74.5 -33.5t54.5 -74.5t21 -132t-21 -132t-54.5 -75t-74.5 -34t-82 -8q-40 0 -81.5 8t-75 34t-54.5 75t-21 132t21 132t54.5 74.5t75 33.5t81.5 8zM262 93q32 0 57.5 4t43 19.5t27 47.5t9.5 87q0 49 -8 78.5t-24.5 45.5t-42.5 21.5t-62 5.5
t-62.5 -5.5t-43 -21.5t-24.5 -45.5t-8 -78.5q0 -55 9.5 -87t27.5 -47.5t43.5 -19.5t57.5 -4z" />
    <glyph glyph-name="p" unicode="p" horiz-adv-x="553" 
d="M140 496v-55h3q16 25 56 40t91 15q40 0 81.5 -7.5t75 -33.5t55 -75t21.5 -132q0 -82 -21 -131.5t-55 -75.5t-75 -34t-82 -8q-48 0 -88.5 15t-55.5 38h-2v-257h-94v701h90zM286 94q34 0 59 5.5t41 22t24 46t8 78.5q0 55 -9.5 86.5t-27.5 47t-43.5 19.5t-57.5 4t-57.5 -5
t-43.5 -21.5t-27.5 -47.5t-9.5 -83q0 -46 8 -76t25.5 -46.5t44.5 -23t66 -6.5z" />
    <glyph glyph-name="q" unicode="q" horiz-adv-x="553" 
d="M503 -205h-94v257h-2q-15 -23 -55.5 -38t-88.5 -15q-40 0 -81.5 8t-75.5 34t-55 75.5t-21 131.5q0 83 21.5 132t55 75t75 33.5t81.5 7.5q51 0 91 -15t56 -40h3v55h90v-701zM267 94q39 0 66 6.5t44.5 23t25.5 46.5t8 76q0 52 -9.5 83t-27.5 47.5t-43.5 21.5t-57.5 5
t-57.5 -4t-43.5 -19.5t-27.5 -47t-9.5 -86.5q0 -49 8 -78.5t24 -46t41 -22t59 -5.5z" />
    <glyph glyph-name="r" unicode="r" horiz-adv-x="397" 
d="M362 496v-94h-218v-402h-94v496h312z" />
    <glyph glyph-name="s" unicode="s" horiz-adv-x="453" 
d="M141 351q2 -19 23 -30t52.5 -19.5t67.5 -18t67 -26.5t51.5 -44.5t20.5 -71.5q0 -27 -10.5 -53t-33.5 -46.5t-59.5 -33.5t-87.5 -13q-41 0 -76.5 12.5t-62.5 35t-43.5 53t-19.5 66.5h103q3 -15 9.5 -30t19 -27t31.5 -19t46 -7q33 0 51.5 7.5t27.5 17.5t11 18.5t2 10.5v6
q0 28 -19 43.5t-50.5 25t-68.5 16t-69 20.5t-53.5 40t-21.5 72q0 27 9.5 52t30 45t52.5 32t77 12q37 0 71 -9t60 -27.5t41.5 -47t15.5 -66.5h-100q-2 12 -7 23.5t-14.5 20.5t-25 15t-38.5 7h-7q-21 0 -36 -6t-23.5 -16t-11 -19.5t-2.5 -16.5v-4z" />
    <glyph glyph-name="t" unicode="t" horiz-adv-x="449" 
d="M208 94h205v-94h-299v402h-84v94h84v204h94v-204h167v-94h-167v-308z" />
    <glyph glyph-name="u" unicode="u" horiz-adv-x="506" 
d="M362 496h94v-496h-406v496h94v-402h218v402z" />
    <glyph glyph-name="v" unicode="v" horiz-adv-x="526" 
d="M397 496h98l-135 -496h-194l-136 496h98l111 -402h48z" />
    <glyph glyph-name="w" unicode="w" horiz-adv-x="759" 
d="M631 496h98l-106 -496h-171l-65 402h-14l-66 -402h-171l-106 496h98l86 -402h10l66 402h179l66 -402h10z" />
    <glyph glyph-name="x" unicode="x" horiz-adv-x="461" 
d="M283 248l148 -248h-106l-94 159h-1l-94 -159h-106l147 248v1l-147 247h106l94 -158h1l94 158h106l-148 -247v-1z" />
    <glyph glyph-name="y" unicode="y" horiz-adv-x="563" 
d="M140 498v-241q0 -49 8 -80.5t24.5 -49.5t42 -25t59.5 -7q35 0 62 7t45 25t27.5 47.5t9.5 74.5v249h95v-701h-424v95h326v166h-2q-15 -23 -53.5 -40t-86.5 -17q-40 0 -81.5 8t-75.5 34t-55 75.5t-21 131.5v248h100z" />
    <glyph glyph-name="z" unicode="z" horiz-adv-x="431" 
d="M182 95h214v-95h-361v50l214 348v4h-214v94h361v-45l-214 -353v-3z" />
    <glyph glyph-name="braceleft" unicode="{" horiz-adv-x="361" 
d="M120 469q0 71 6.5 116t23.5 70.5t48.5 35t80.5 9.5h47v-84h-57t-40 -12t-23.5 -41t-7.5 -87q0 -18 -0.5 -39.5t-5.5 -40t-17.5 -30.5t-36.5 -12v-8q23 0 35.5 -11t18 -28.5t6 -38t0.5 -40.5q0 -60 7.5 -90t23 -42t39.5 -12h58v-84h-47q-46 0 -76.5 9t-49 34t-26 70
t-7.5 116v36q0 24 -6.5 30.5t-16.5 6.5h-62v95h62q10 0 16.5 6.5t6.5 32.5v33z" />
    <glyph glyph-name="bar" unicode="|" horiz-adv-x="195" 
d="M50 750h94v-819h-94v819z" />
    <glyph glyph-name="braceright" unicode="}" horiz-adv-x="361" 
d="M241 435q0 -26 6.5 -32.5t16.5 -6.5h62v-95h-62q-10 0 -16.5 -6.5t-6.5 -30.5v-36q0 -71 -7.5 -116t-26 -70t-49 -34t-76.5 -9h-47v84h58t39.5 12t23 42t7.5 90q0 20 0.5 40.5t6 38t18 28.5t35.5 11v8q-24 0 -36.5 12t-17.5 30.5t-5.5 40t-0.5 39.5q0 58 -7.5 87
t-23.5 41t-40 12h-57v84h47q50 0 81 -9.5t48 -35t23.5 -70.5t6.5 -116v-33z" />
    <glyph glyph-name="asciitilde" unicode="~" horiz-adv-x="534" 
d="M494 455q4 -36 4.5 -54.5t0.5 -20.5q0 -33 -10.5 -61t-34 -46t-67.5 -18q-45 0 -76.5 16.5t-55.5 37t-42.5 37t-37.5 16.5q-8 0 -16 -4q-16 -8 -21.5 -23t-6 -24.5t-0.5 -11.5q0 -13 2.5 -24.5t3.5 -14.5l-99 -10q-2 22 -2 44q0 14 1.5 39t15 53.5t40.5 46t72 17.5
q35 0 62.5 -17t51 -38t45 -38t43.5 -17q9 0 21 5q13 6 16 19.5t3 25.5q0 4 -0.5 14t-4 24t-4.5 17z" />
    <glyph glyph-name="exclamdown" unicode="&#xa1;" horiz-adv-x="195" 
d="M145 700v-95h-95v95h95zM50 1v533h94v-533h-94z" />
    <glyph glyph-name="cent" unicode="&#xa2;" horiz-adv-x="536" 
d="M411 326q-6 35 -30 55t-62 20v-305q33 0 57.5 16.5t33.5 56.5h96q-14 -81 -60 -121.5t-127 -48.5v-105h-94v107q-34 4 -69 17t-63 40.5t-45.5 73t-17.5 115.5q0 52 11 95.5t34.5 75.5t60.5 52t89 24v99h94v-98q30 -3 60 -11.5t55.5 -27.5t44.5 -50.5t27 -79.5h-95z
M225 400q-54 0 -77.5 -41t-23.5 -112q0 -35 8.5 -63t22.5 -47.5t32 -29.5t38 -10v303z" />
    <glyph glyph-name="sterling" unicode="&#xa3;" horiz-adv-x="530" 
d="M187 95h308v-95h-465v95h66q10 6 14 15t4 21q0 4 -1 15.5t-8 40t-21 70.5q-19 57 -33.5 112.5t-14.5 106.5v19q2 50 19.5 87.5t47 62.5t69 37.5t86.5 12.5t93 -13.5t83 -39.5l38 -28l-54 -76l-39 27q-23 16 -55.5 26t-67.5 10q-54 0 -88 -24.5t-38 -81.5v-10q0 -17 3 -39
t8 -47h227v-95h-201q6 -17 16.5 -47t16.5 -60t6 -54q0 -4 -0.5 -19.5t-18.5 -27.5v-1z" />
    <glyph glyph-name="currency" unicode="&#xa4;" horiz-adv-x="536" 
d="M501 184l-66 -67l-55 55q-26 -11 -54.5 -15t-57.5 -4t-57 4t-54 15l-55 -55l-67 67l53 53q-11 21 -16.5 49.5t-5.5 68.5q0 24 4 53t18 56l-53 53l67 66l56 -55q20 9 48 14.5t64 5.5q66 0 109 -20l56 55l66 -66l-53 -53q14 -27 18.5 -56.5t4.5 -55.5q0 -38 -6 -66t-17 -49
zM269 247q32 0 53 4.5t33 15.5t17 31t5 50q0 34 -6 54.5t-18.5 32t-33.5 15t-51 3.5t-50.5 -3.5t-33.5 -15t-18.5 -32t-5.5 -54.5q0 -30 5 -49.5t17 -31t33 -16t54 -4.5z" />
    <glyph glyph-name="yen" unicode="&#xa5;" horiz-adv-x="592" 
d="M557 700l-179 -300h131v-94h-166v-57h166v-95h-166v-154h-94v154h-166v95h166v57h-166v94h131l-179 300h106l156 -260h1l153 260h106z" />
    <glyph glyph-name="brokenbar" unicode="&#xa6;" horiz-adv-x="166" 
d="M36 750h94v-325h-94v325zM36 241h94v-337h-94v337z" />
    <glyph glyph-name="section" unicode="&#xa7;" horiz-adv-x="524" 
d="M494 351q0 -27 -9 -53.5t-35 -48.5q20 -17 32 -41.5t12 -59.5q0 -47 -22 -76t-56.5 -45t-75.5 -21.5t-80 -5.5q-25 0 -53 3t-54.5 8t-50 11.5t-40.5 14.5l-2 1v102h6l37 -18q27 -13 73 -20.5t93 -7.5q13 0 35 1t43.5 6t37 15.5t15.5 30.5q0 8 -2 19t-15.5 21t-43.5 16.5
t-85 6.5q-38 0 -77.5 4t-72 18t-53.5 42t-21 76q0 35 11.5 59.5t31.5 41.5q-20 17 -31.5 40.5t-11.5 56.5q0 47 20.5 76t53 45.5t72 22.5t77.5 6q60 0 116 -10.5t90 -26.5l2 -1v-102h-5l-38 18q-27 13 -73 20.5t-92 7.5q-13 0 -34.5 -1t-42.5 -6t-36.5 -15.5t-15.5 -29.5
q0 -8 2 -19t15 -21t41.5 -17t80.5 -7h47q28 0 60.5 -4.5t60 -19t45.5 -41.5t18 -72zM254 290q75 0 110.5 16t35.5 43q0 8 -2 18.5t-15 19.5t-40.5 15.5t-78.5 6.5q-52 0 -80.5 -6.5t-42 -16t-15.5 -19.5t-2 -17q0 -8 2 -18.5t14 -19.5t38.5 -15.5t75.5 -6.5z" />
    <glyph glyph-name="dieresis" unicode="&#xa8;" horiz-adv-x="372" 
d="M35 550v95h95v-95h-95zM243 550v95h94v-95h-94z" />
    <glyph glyph-name="copyright" unicode="&#xa9;" horiz-adv-x="799" 
d="M749 700v-701h-699v701h699zM144 606v-512h511v512h-511zM197 362q0 28 5.5 61t26 61t60 46.5t107.5 18.5q57 0 93.5 -13.5t58 -35t31.5 -49t13 -55.5h-95q-7 37 -29.5 48t-71.5 11q-31 0 -51 -3.5t-32 -15t-17 -31.5t-5 -53t5 -53t17 -31.5t32 -15t51 -3.5q48 0 70 10
t30 44h95q-7 -49 -26 -78t-46 -44.5t-59 -20.5t-64 -5q-36 0 -71.5 6.5t-64 28t-46 62.5t-17.5 110z" />
    <glyph glyph-name="ordfeminine" unicode="&#xaa;" horiz-adv-x="477" 
d="M347 350h-3q-9 -13 -24 -21.5t-31 -13.5t-31 -7t-25 -2q-32 0 -67 6t-64 26.5t-48 60t-19 105.5q0 31 7 65.5t28.5 63.5t62.5 48t109 19q29 0 58.5 -10.5t43.5 -32.5h3v43h95v-394h-95v44zM343 538q0 24 -8.5 37.5t-22 20t-31.5 8.5t-36 2q-32 0 -53 -3.5t-33 -15
t-17 -31.5t-5 -53t5 -53t17 -31.5t32.5 -15t50.5 -3.5q20 0 38 2t32 9t22.5 20.5t8.5 36.5v70z" />
    <glyph glyph-name="guillemotleft" unicode="&#xab;" horiz-adv-x="499" 
d="M172 114l-137 248l137 248h102l-137 -248l137 -248h-102zM225 362l137 248h102l-137 -248l137 -248h-102z" />
    <glyph glyph-name="logicalnot" unicode="&#xac;" horiz-adv-x="566" 
d="M531 496h-95v110h-401v94h496v-204z" />
    <glyph glyph-name="registered" unicode="&#xae;" horiz-adv-x="583" 
d="M50 202v498h498v-498h-498zM144 296h310v310h-310v-310zM307 353h-94v191h180v-94h-86v-97z" />
    <glyph glyph-name="macron" unicode="&#xaf;" horiz-adv-x="386" 
d="M36 644h315v-94h-315v94z" />
    <glyph glyph-name="degree" unicode="&#xb0;" horiz-adv-x="374" 
d="M187 700q14 0 39.5 -2.5t50.5 -16t43.5 -43.5t18.5 -86q0 -55 -18.5 -85.5t-43.5 -44t-50.5 -16t-39.5 -2.5t-39.5 2.5t-50.5 16t-43.5 44t-18.5 85.5q0 56 18.5 86t43.5 43.5t50.5 16t39.5 2.5zM187 498q17 0 28 1t18 6.5t9.5 17t2.5 32.5q0 18 -2.5 28t-8.5 15
t-17.5 6.5t-29.5 1.5t-29.5 -1.5t-17.5 -6.5t-8.5 -15t-2.5 -28q0 -21 2.5 -32.5t9.5 -17t18 -6.5t28 -1z" />
    <glyph glyph-name="plusminus" unicode="&#xb1;" horiz-adv-x="360" 
d="M227 403h103v-94h-103v-103h-94v103h-103v94h103v103h94v-103zM30 94h300v-94h-300v94z" />
    <glyph glyph-name="twosuperior" unicode="&#xb2;" horiz-adv-x="368" 
d="M35 700h298v-249h-204v-47h204v-94h-298v235h204v61h-204v94z" />
    <glyph glyph-name="threesuperior" unicode="&#xb3;" horiz-adv-x="369" 
d="M334 606l-103 -59v-2h103v-235h-299v94h205v47h-205v79l140 76h-140v94h299v-94z" />
    <glyph glyph-name="acute" unicode="&#xb4;" horiz-adv-x="260" 
d="M225 700l-88 -161h-102l88 161h102z" />
    <glyph glyph-name="paragraph" unicode="&#xb6;" horiz-adv-x="536" 
d="M240 305q-36 0 -72.5 8t-66 30t-48 61.5t-18.5 103.5q0 30 9.5 63.5t32.5 62t62.5 47.5t100.5 19h94v-700h-94v305zM392 0v700h94v-700h-94z" />
    <glyph glyph-name="periodcentered" unicode="&#xb7;" horiz-adv-x="155" 
d="M30 500h95v-94h-95v94z" />
    <glyph glyph-name="cedilla" unicode="&#xb8;" horiz-adv-x="331" 
d="M193 -41q44 -5 73 -31.5t29 -70.5q0 -24 -9.5 -45t-26 -37t-38 -25t-45.5 -9h-141v91h138q12 0 19 6.5t8 12t1 7.5q0 6 -4 12t-15 7l-138 15l46 156h1l59 -46l-12 -37z" />
    <glyph glyph-name="onesuperior" unicode="&#xb9;" horiz-adv-x="380" 
d="M291 404h54v-95h-310v95h162v146h-3q-13 -21 -38 -32t-50.5 -16.5t-45.5 -6t-25 -0.5v94q24 0 46.5 3.5t41.5 14.5t34 33.5t25 59.5h109v-296z" />
    <glyph glyph-name="ordmasculine" unicode="&#xba;" horiz-adv-x="476" 
d="M238 704q68 0 108.5 -19t61.5 -47.5t27 -62t6 -63.5q0 -67 -18.5 -107t-47.5 -61t-65.5 -27.5t-71.5 -6.5q-36 0 -72 6.5t-65 27.5t-47.5 61t-18.5 107q0 30 6 63.5t27 62t61.5 47.5t108.5 19zM238 404q30 0 51 3.5t33.5 15t18 31.5t5.5 53t-5.5 53t-18 31.5t-33.5 15
t-51 3.5q-31 0 -51.5 -3.5t-33.5 -15t-18.5 -31.5t-5.5 -53t5.5 -53t18.5 -31.5t33.5 -15t51.5 -3.5z" />
    <glyph glyph-name="guillemotright" unicode="&#xbb;" horiz-adv-x="499" 
d="M225 114l137 248l-137 248h102l137 -248l-137 -248h-102zM137 114h-102l137 248l-137 248h102l137 -248z" />
    <glyph glyph-name="onequarter" unicode="&#xbc;" horiz-adv-x="957" 
d="M339 0h-102l386 700h102zM194 550q-13 -21 -38 -32t-50.5 -16.5t-45.5 -6t-25 -0.5v94q24 0 46.5 3.5t41.5 14.5t34 33.5t25 59.5h109v-296h54v-95h-310v95h162v146h-3zM623 390h94v-155h110v155h95v-390h-95v141h-204v249z" />
    <glyph glyph-name="onehalf" unicode="&#xbd;" horiz-adv-x="958" 
d="M339 0h-102l386 700h102zM194 550q-13 -21 -38 -32t-50.5 -16.5t-45.5 -6t-25 -0.5v94q24 0 46.5 3.5t41.5 14.5t34 33.5t25 59.5h109v-296h54v-95h-310v95h162v146h-3zM625 391h298v-250h-204v-47h204v-94h-298v235h204v61h-204v95z" />
    <glyph glyph-name="threequarters" unicode="&#xbe;" horiz-adv-x="935" 
d="M317 0h-102l386 700h102zM334 606l-103 -59v-2h103v-235h-299v94h205v47h-205v79l140 76h-140v94h299v-94zM601 390h94v-155h110v155h95v-390h-95v141h-204v249z" />
    <glyph glyph-name="questiondown" unicode="&#xbf;" horiz-adv-x="568" 
d="M323 605h-94v95h94v-95zM35 223q0 40 7.5 80.5t29 73.5t59.5 53.5t98 20.5v82h96v-166h-62q-71 0 -102.5 -30.5t-31.5 -104.5q0 -36 5.5 -62.5t22 -43t46 -24.5t78.5 -8q54 0 85.5 9t47.5 26.5t20 42.5t4 56h95q0 -40 -8.5 -80.5t-34.5 -73.5t-75.5 -53.5t-130.5 -20.5
q-83 0 -132 21t-75 53.5t-34 72t-8 76.5z" />
    <glyph glyph-name="Agrave" unicode="&#xc0;" horiz-adv-x="629" 
d="M267 750l-88 161h103l87 -161h-102zM30 0l187 699h195l187 -699h-98l-54 202h-265l-54 -202h-98zM290 605l-83 -309h214l-82 309h-49z" />
    <glyph glyph-name="Aacute" unicode="&#xc1;" horiz-adv-x="629" 
d="M372 750h-103l88 160h102zM30 0l187 699h195l187 -699h-98l-54 202h-265l-54 -202h-98zM290 605l-83 -309h214l-82 309h-49z" />
    <glyph glyph-name="Acircumflex" unicode="&#xc2;" horiz-adv-x="629" 
d="M275 749h-102l87 161h109l87 -161h-102l-36 66h-7zM447 202h-265l-54 -202h-98l187 699h195l187 -699h-98zM290 605l-83 -309h214l-82 309h-49z" />
    <glyph glyph-name="Atilde" unicode="&#xc3;" horiz-adv-x="629" 
d="M144 746q-3 25 -3 50q0 4 0.5 20.5t9.5 39t28.5 36.5t53.5 14q36 0 60.5 -13.5t42.5 -29t28.5 -24.5t18.5 -9q4 0 8 2q9 5 9.5 12t0.5 11q0 7 -1.5 16t-4.5 18.5t-4 11.5l93 10q4 -26 4 -51q0 -3 -0.5 -19t-10 -39t-31.5 -37.5t-61 -14.5q-28 0 -49.5 13.5t-38.5 28
t-27 22t-18 7.5q-5 0 -10 -3q-8 -4 -9.5 -11.5t-1.5 -13.5q0 -3 0.5 -9.5t3 -15t3.5 -13.5zM447 202h-265l-54 -202h-98l187 699h195l187 -699h-98zM290 605l-83 -309h214l-82 309h-49z" />
    <glyph glyph-name="Adieresis" unicode="&#xc4;" horiz-adv-x="629" 
d="M371 751v94h95v-94h-95zM163 751v94h95v-94h-95zM447 202h-265l-54 -202h-98l187 699h195l187 -699h-98zM290 605l-83 -309h214l-82 309h-49z" />
    <glyph glyph-name="Aring" unicode="&#xc5;" horiz-adv-x="629" 
d="M202 641q-17 16 -28 43t-11 69q0 56 18.5 86t43 44t50 16.5t39.5 2.5t39.5 -2.5t50.5 -16.5t43.5 -44t18.5 -86q0 -42 -11 -69t-28 -43l172 -641h-98l-54 202h-265l-54 -202h-98zM257 756q0 -20 2.5 -31.5t9.5 -17t18 -7t27 -1.5q17 0 28 1.5t18 7t9.5 17t2.5 31.5
q0 18 -2 28t-8.5 15t-18 6.5t-29.5 1.5t-29 -1.5t-17.5 -6.5t-8.5 -15t-2 -28zM290 605l-83 -309h214l-82 309h-49z" />
    <glyph glyph-name="AE" unicode="&#xc6;" horiz-adv-x="857" 
d="M822 700v-94h-322v-203h227v-94h-227v-215h322v-94h-416v201h-224l-54 -200h-98l187 699h605zM406 606h-116l-83 -310h199v310z" />
    <glyph glyph-name="Ccedilla" unicode="&#xc7;" 
d="M30 445q0 62 19 110.5t52.5 81.5t80.5 50.5t103 17.5q54 0 99 -16t78.5 -46.5t53.5 -75t23 -101.5h-94q-6 70 -45.5 107t-117.5 37q-37 0 -64 -9.5t-45.5 -26t-29.5 -38.5t-16 -48v-1q-2 -12 -3.5 -52t-1.5 -87.5t1.5 -90.5t5.5 -60q11 -51 46 -80t109 -29q43 0 73 10
t49 30t28 49.5t11 68.5h94q0 -57 -20.5 -103.5t-55.5 -80t-81 -51.5t-98 -18h-14l-8 -25l55 -6q45 -5 73.5 -31.5t28.5 -70.5q0 -24 -9.5 -45t-26 -37t-37.5 -25t-45 -9h-142v91h139q12 0 19 6.5t7.5 11.5t0.5 7q0 6 -4 12.5t-14 7.5l-139 15l32 111q-37 12 -68.5 35
t-54 54.5t-35 71.5t-12.5 86v192z" />
    <glyph glyph-name="Egrave" unicode="&#xc8;" horiz-adv-x="557" 
d="M250 750l-88 161h102l88 -161h-102zM522 0h-472v700h472v-94h-378v-202h283v-94h-283v-215h378v-95z" />
    <glyph glyph-name="Eacute" unicode="&#xc9;" horiz-adv-x="557" 
d="M323 751h-102l88 160h102zM522 0h-472v700h472v-94h-378v-202h283v-94h-283v-215h378v-95z" />
    <glyph glyph-name="Ecircumflex" unicode="&#xca;" horiz-adv-x="557" 
d="M144 749l88 161h108l88 -161h-102l-36 66h-7l-36 -66h-103zM427 310h-283v-215h378v-95h-472v700h472v-94h-378v-202h283v-94z" />
    <glyph glyph-name="Edieresis" unicode="&#xcb;" horiz-adv-x="557" 
d="M135 751v94h95v-94h-95zM343 751v94h94v-94h-94zM522 0h-472v700h472v-94h-378v-202h283v-94h-283v-215h378v-95z" />
    <glyph glyph-name="Igrave" unicode="&#xcc;" horiz-adv-x="331" 
d="M220 750h-102l-88 161h102zM39 94h84v512h-84v94h262v-94h-84v-512h84v-94h-262v94z" />
    <glyph glyph-name="Iacute" unicode="&#xcd;" horiz-adv-x="331" 
d="M199 911h102l-88 -160h-102zM30 94h84v512h-84v94h262v-94h-84v-512h84v-94h-262v94z" />
    <glyph glyph-name="Icircumflex" unicode="&#xce;" horiz-adv-x="184" 
d="M146 910l88 -161h-102l-36 66h-8l-36 -66h-102l88 161h108zM-40 94h84v512h-84v94h262v-94h-84v-512h84v-94h-262v94z" />
    <glyph glyph-name="Idieresis" unicode="&#xcf;" horiz-adv-x="192" 
d="M40 751h-95v94h95v-94zM247 751h-94v94h94v-94zM-34 94h84v512h-84v94h262v-94h-84v-512h84v-94h-262v94z" />
    <glyph glyph-name="Eth" unicode="&#xd0;" horiz-adv-x="655" 
d="M625 239q0 -49 -17.5 -92.5t-48 -75.5t-72.5 -51t-92 -19h-279v308h-86v94h86v297h270q50 0 93.5 -19t75.5 -51t51 -75.5t19 -93.5v-222zM530 461q0 65 -36 105t-103 40h-181v-203h164v-94h-164v-214h176q69 0 106.5 38.5t37.5 105.5v222z" />
    <glyph glyph-name="Ntilde" unicode="&#xd1;" horiz-adv-x="599" 
d="M144 746q-3 25 -3 50q0 4 0.5 20.5t9.5 39t28.5 36.5t53.5 14q36 0 60.5 -13.5t42.5 -29t28.5 -24.5t18.5 -9q4 0 8 2q9 5 9.5 12t0.5 11q0 7 -1.5 16t-4.5 18.5t-4 11.5l93 10q4 -26 4 -51q0 -3 -0.5 -19t-10 -39t-31.5 -37.5t-61 -14.5q-28 0 -49.5 13.5t-38.5 28
t-27 22t-18 7.5q-5 0 -10 -3q-8 -4 -9.5 -11.5t-1.5 -13.5q0 -3 0.5 -9.5t3 -15t3.5 -13.5zM144 606v-606h-94v700h186l195 -607h24v607h94v-700h-186l-194 606h-25z" />
    <glyph glyph-name="Ograve" unicode="&#xd2;" 
d="M237 750l-88 161h102l88 -161h-102zM284 711q53 0 99 -18.5t81 -53t55 -82t20 -106.5v-198q0 -62 -20 -110.5t-55 -81.5t-81 -50.5t-99 -17.5q-52 0 -98.5 17.5t-81 50.5t-54.5 81.5t-20 110.5v198q0 59 20 106.5t54.5 82t81 53t98.5 18.5zM442 201q2 8 3 30.5t1.5 52.5
t0.5 64.5t-0.5 66t-2 56.5t-4.5 36q-11 50 -46.5 79.5t-109.5 29.5t-109 -29t-46 -80q-2 -11 -4 -36t-2.5 -56.5t-0.5 -66t0.5 -64.5t2 -52.5t2.5 -30.5q5 -26 16 -47t29.5 -36t45.5 -23t64 -8q75 0 112 31t48 83z" />
    <glyph glyph-name="Oacute" unicode="&#xd3;" 
d="M331 751h-102l88 160h102zM284 711q53 0 99 -18.5t81 -53t55 -82t20 -106.5v-198q0 -62 -20 -110.5t-55 -81.5t-81 -50.5t-99 -17.5q-52 0 -98.5 17.5t-81 50.5t-54.5 81.5t-20 110.5v198q0 59 20 106.5t54.5 82t81 53t98.5 18.5zM442 201q2 8 3 30.5t1.5 52.5t0.5 64.5
t-0.5 66t-2 56.5t-4.5 36q-11 50 -46.5 79.5t-109.5 29.5t-109 -29t-46 -80q-2 -11 -4 -36t-2.5 -56.5t-0.5 -66t0.5 -64.5t2 -52.5t2.5 -30.5q5 -26 16 -47t29.5 -36t45.5 -23t64 -8q75 0 112 31t48 83z" />
    <glyph glyph-name="Ocircumflex" unicode="&#xd4;" 
d="M244 749h-102l88 161h108l88 -161h-102l-37 66h-7zM284 711q53 0 99 -18.5t81 -53t55 -82t20 -106.5v-198q0 -62 -20 -110.5t-55 -81.5t-81 -50.5t-99 -17.5q-52 0 -98.5 17.5t-81 50.5t-54.5 81.5t-20 110.5v198q0 59 20 106.5t54.5 82t81 53t98.5 18.5zM442 201
q2 8 3 30.5t1.5 52.5t0.5 64.5t-0.5 66t-2 56.5t-4.5 36q-11 50 -46.5 79.5t-109.5 29.5t-109 -29t-46 -80q-2 -11 -4 -36t-2.5 -56.5t-0.5 -66t0.5 -64.5t2 -52.5t2.5 -30.5q5 -26 16 -47t29.5 -36t45.5 -23t64 -8q75 0 112 31t48 83z" />
    <glyph glyph-name="Otilde" unicode="&#xd5;" 
d="M118 746q-3 25 -3 50q0 4 0.5 20.5t9.5 39t28.5 36.5t53.5 14q36 0 60.5 -13.5t42.5 -29t28.5 -24.5t18.5 -9q4 0 8 2q9 5 9.5 12t0.5 11q0 7 -1.5 16t-4.5 18.5t-4 11.5l93 10q4 -26 4 -51q0 -3 -0.5 -19t-10 -39t-31.5 -37.5t-61 -14.5q-28 0 -49.5 13.5t-38.5 28
t-27 22t-18 7.5q-5 0 -10 -3q-8 -4 -9.5 -11.5t-1.5 -13.5q0 -3 0.5 -9.5t3 -15t3.5 -13.5zM284 711q53 0 99 -18.5t81 -53t55 -82t20 -106.5v-198q0 -62 -20 -110.5t-55 -81.5t-81 -50.5t-99 -17.5q-52 0 -98.5 17.5t-81 50.5t-54.5 81.5t-20 110.5v198q0 59 20 106.5
t54.5 82t81 53t98.5 18.5zM442 201q2 8 3 30.5t1.5 52.5t0.5 64.5t-0.5 66t-2 56.5t-4.5 36q-11 50 -46.5 79.5t-109.5 29.5t-109 -29t-46 -80q-2 -11 -4 -36t-2.5 -56.5t-0.5 -66t0.5 -64.5t2 -52.5t2.5 -30.5q5 -26 16 -47t29.5 -36t45.5 -23t64 -8q75 0 112 31t48 83z
" />
    <glyph glyph-name="Odieresis" unicode="&#xd6;" 
d="M130 845h95v-94h-95v94zM338 845h94v-94h-94v94zM284 711q53 0 99 -18.5t81 -53t55 -82t20 -106.5v-198q0 -62 -20 -110.5t-55 -81.5t-81 -50.5t-99 -17.5q-52 0 -98.5 17.5t-81 50.5t-54.5 81.5t-20 110.5v198q0 59 20 106.5t54.5 82t81 53t98.5 18.5zM442 201
q2 8 3 30.5t1.5 52.5t0.5 64.5t-0.5 66t-2 56.5t-4.5 36q-11 50 -46.5 79.5t-109.5 29.5t-109 -29t-46 -80q-2 -11 -4 -36t-2.5 -56.5t-0.5 -66t0.5 -64.5t2 -52.5t2.5 -30.5q5 -26 16 -47t29.5 -36t45.5 -23t64 -8q75 0 112 31t48 83z" />
    <glyph glyph-name="multiply" unicode="&#xd7;" horiz-adv-x="349" 
d="M314 434l-73 -73l73 -73l-67 -66l-73 73l-72 -73l-67 66l73 73l-73 73l67 67l72 -73l73 73z" />
    <glyph glyph-name="Oslash" unicode="&#xd8;" 
d="M539 253q0 -62 -20 -110.5t-54.5 -81.5t-81 -50.5t-99.5 -17.5q-71 0 -128 31l-13 -24h-102l44 82q-26 32 -40.5 74.5t-14.5 96.5v198q0 59 20 106.5t54.5 82t81 53t98.5 18.5q36 0 68.5 -8.5t61.5 -24.5l12 22h102l-45 -82q26 -32 41 -74.5t15 -92.5v-198zM129 507
q-2 -11 -4 -36t-2.5 -56.5t-0.5 -66.5t1 -66t2 -54.5t3 -32.5q1 -4 3 -10t4 -13l236 428q-32 16 -87 16q-74 0 -109 -29t-46 -80zM442 201q2 8 3 30.5t1.5 53t0.5 65t-0.5 66t-2 57t-4.5 37.5q-2 9 -6 19l-235 -427q17 -7 37 -11t46 -4q75 0 112 30.5t48 83.5z" />
    <glyph glyph-name="Ugrave" unicode="&#xd9;" horiz-adv-x="606" 
d="M265 750l-88 161h102l88 -161h-102zM50 0v700h94v-606h318v606h94v-700h-506z" />
    <glyph glyph-name="Uacute" unicode="&#xda;" horiz-adv-x="606" 
d="M357 751h-102l88 160h102zM50 0v700h94v-606h318v606h94v-700h-506z" />
    <glyph glyph-name="Ucircumflex" unicode="&#xdb;" horiz-adv-x="606" 
d="M264 749h-103l88 161h108l88 -161h-102l-36 66h-7zM50 0v700h94v-606h318v606h94v-700h-506z" />
    <glyph glyph-name="Udieresis" unicode="&#xdc;" horiz-adv-x="606" 
d="M247 751h-95v94h95v-94zM454 751h-94v94h94v-94zM50 700h94v-606h318v606h94v-700h-506v700z" />
    <glyph glyph-name="Yacute" unicode="&#xdd;" horiz-adv-x="661" 
d="M377 751h-102l87 160h103zM525 699h106l-253 -403v-296h-95v296l-253 403h106l192 -299h5z" />
    <glyph glyph-name="Thorn" unicode="&#xde;" horiz-adv-x="568" 
d="M339 550q41 0 77.5 -16t63.5 -43t42.5 -63.5t15.5 -77.5t-15.5 -77.5t-42.5 -63.5t-63.5 -42.5t-77.5 -15.5h-194v-151h-95v700h94v-150h195zM339 246q22 0 41 8t33 22.5t22 33.5t8 40q0 22 -8 41t-22 33.5t-33 22.5t-41 8h-194v-209h194z" />
    <glyph glyph-name="germandbls" unicode="&#xdf;" horiz-adv-x="567" 
d="M209 397h77q21 0 40 8.5t33.5 22.5t22.5 33t8 41q0 21 -8 40t-22 33.5t-33 22.5t-41 8h-141v-606h-94v701h235q42 0 78 -15.5t62.5 -42t41.5 -62t15 -76.5q0 -65 -36 -104.5t-99 -39.5v-9q35 0 69 -9t60.5 -28.5t43 -49t16.5 -71.5q0 -40 -15.5 -75t-42 -61.5t-62.5 -42
t-78 -15.5h-89v95h95q21 0 40 8t33 22.5t22 33.5t8 40q0 22 -8 41t-22.5 33.5t-33.5 22.5t-41 8h-134v93z" />
    <glyph glyph-name="agrave" unicode="&#xe0;" horiz-adv-x="537" 
d="M228 700l88 -161h-102l-88 161h102zM350 316v85h-270v95h364v-402h67v-94h-148l-10 53h-3q-12 -22 -48 -38t-90 -16q-88 0 -135 46.5t-47 118.5q0 75 56 113.5t150 38.5h114zM350 231h-100q-32 0 -55 -7t-37.5 -17.5t-21 -24t-6.5 -26.5q0 -18 8 -31.5t21.5 -22.5
t30.5 -13.5t36 -4.5q22 0 44 6t40 18.5t29 30.5t11 42v50z" />
    <glyph glyph-name="aacute" unicode="&#xe1;" horiz-adv-x="538" 
d="M312 539h-102l88 161h102zM350 316v85h-270v95h364v-402h67v-94h-148l-10 53h-3q-12 -22 -48 -38t-90 -16q-88 0 -135 46.5t-47 118.5q0 75 56 113.5t150 38.5h114zM350 231h-100q-32 0 -55 -7t-37.5 -17.5t-21 -24t-6.5 -26.5q0 -18 8 -31.5t21.5 -22.5t30.5 -13.5
t36 -4.5q22 0 44 6t40 18.5t29 30.5t11 42v50z" />
    <glyph glyph-name="acircumflex" unicode="&#xe2;" horiz-adv-x="537" 
d="M222 539h-102l88 161h108l88 -161h-102l-36 66h-8zM350 316v85h-270v95h364v-402h67v-94h-148l-10 53h-3q-12 -22 -48 -38t-90 -16q-88 0 -135 46.5t-47 118.5q0 75 56 113.5t150 38.5h114zM350 231h-100q-32 0 -55 -7t-37.5 -17.5t-21 -24t-6.5 -26.5q0 -18 8 -31.5
t21.5 -22.5t30.5 -13.5t36 -4.5q22 0 44 6t40 18.5t29 30.5t11 42v50z" />
    <glyph glyph-name="atilde" unicode="&#xe3;" horiz-adv-x="537" 
d="M87 546q-3 25 -3 50q0 4 0.5 20.5t9.5 39t28.5 36.5t53.5 14q36 0 60.5 -13.5t42.5 -29t28.5 -24.5t18.5 -9q4 0 8 2q9 5 9.5 12t0.5 11q0 7 -1.5 16t-4.5 18.5t-4 11.5l93 10q4 -26 4 -51q0 -3 -0.5 -19t-10 -39t-31.5 -37.5t-61 -14.5q-28 0 -49.5 13.5t-38.5 28
t-27 22t-18 7.5q-5 0 -10 -3q-8 -4 -9.5 -11.5t-1.5 -13.5q0 -3 0.5 -9.5t3 -15t3.5 -13.5zM350 316v85h-270v95h364v-402h67v-94h-148l-10 53h-3q-12 -22 -48 -38t-90 -16q-88 0 -135 46.5t-47 118.5q0 75 56 113.5t150 38.5h114zM350 231h-100q-32 0 -55 -7t-37.5 -17.5
t-21 -24t-6.5 -26.5q0 -18 8 -31.5t21.5 -22.5t30.5 -13.5t36 -4.5q22 0 44 6t40 18.5t29 30.5t11 42v50z" />
    <glyph glyph-name="adieresis" unicode="&#xe4;" horiz-adv-x="537" 
d="M318 645h95v-95h-95v95zM111 645h94v-95h-94v95zM350 316v85h-270v95h364v-402h67v-94h-148l-10 53h-3q-12 -22 -48 -38t-90 -16q-88 0 -135 46.5t-47 118.5q0 75 56 113.5t150 38.5h114zM350 231h-100q-32 0 -55 -7t-37.5 -17.5t-21 -24t-6.5 -26.5q0 -18 8 -31.5
t21.5 -22.5t30.5 -13.5t36 -4.5q22 0 44 6t40 18.5t29 30.5t11 42v50z" />
    <glyph glyph-name="aring" unicode="&#xe5;" horiz-adv-x="537" 
d="M262 539q-14 0 -39.5 2.5t-50.5 16t-43.5 44t-18.5 85.5q0 56 18.5 86t43.5 44t50.5 16.5t39.5 2.5t39.5 -2.5t50.5 -16.5t43.5 -44t18.5 -86q0 -55 -18.5 -85.5t-43.5 -44t-50.5 -16t-39.5 -2.5zM262 741q-18 0 -29.5 -1.5t-17.5 -6.5t-8.5 -15t-2.5 -28
q0 -20 2.5 -31.5t9.5 -17t18 -7t28 -1.5t28 1.5t18 7t9.5 17t2.5 31.5q0 18 -2.5 28t-8.5 15t-17.5 6.5t-29.5 1.5zM350 316v85h-270v95h364v-402h67v-94h-148l-10 53h-3q-12 -22 -48 -38t-90 -16q-88 0 -135 46.5t-47 118.5q0 75 56 113.5t150 38.5h114zM350 231h-100
q-32 0 -55 -7t-37.5 -17.5t-21 -24t-6.5 -26.5q0 -18 8 -31.5t21.5 -22.5t30.5 -13.5t36 -4.5q22 0 44 6t40 18.5t29 30.5t11 42v50z" />
    <glyph glyph-name="ae" unicode="&#xe6;" horiz-adv-x="840" 
d="M212 -1q-88 0 -135 46.5t-47 118.5q0 75 56 113.5t150 38.5h114v85h-270v95h364v-51h4q20 19 56.5 35t75.5 16q65 0 110.5 -22t73.5 -61.5t37 -85t9 -85.5q0 -20 -2 -40h-366q0 -32 9 -53.5t26 -34.5t41.5 -18.5t55.5 -5.5q19 0 39 1.5t38 7t31.5 16.5t18.5 30h96
q-10 -40 -30.5 -67.5t-49 -44.5t-64 -25t-76.5 -8q-45 0 -81.5 15t-50.5 32h-3v-47h-79l-10 53h-3q-12 -22 -48 -38t-90 -16zM715 290q-1 12 -5.5 32.5t-19 40t-40.5 33.5t-70 14q-29 0 -54 -7.5t-44 -22.5t-29.5 -37.5t-10.5 -52.5h273zM130 156q0 -18 8 -31.5t21.5 -22.5
t30.5 -13.5t36 -4.5q22 0 44 6t40 18.5t29 30.5t11 42v50h-100q-32 0 -55 -7t-37.5 -17.5t-21 -24t-6.5 -26.5z" />
    <glyph glyph-name="ccedilla" unicode="&#xe7;" horiz-adv-x="513" 
d="M126 -261v90h139q12 0 19 6.5t7.5 11.5t0.5 7q0 6 -4 12.5t-14 7.5l-139 16l35 119q-28 8 -53.5 24t-45 43.5t-30.5 69t-11 101.5q0 83 21 132t54.5 75t75 34t81.5 8q33 0 67 -5t64 -20.5t54 -45t36 -78.5h-98q-15 34 -45 44.5t-78 10.5q-36 0 -62.5 -5.5t-43 -22
t-24.5 -46t-8 -78.5q0 -55 9.5 -86.5t27 -47t43 -19.5t56.5 -4q44 0 75.5 8.5t47.5 42.5h99q-13 -47 -36 -75.5t-54 -44t-69.5 -20.5t-81.5 -5l-12 -36l55 -6q44 -5 73 -32t29 -70q0 -24 -9.5 -45.5t-26 -37t-38 -24.5t-45.5 -9h-141z" />
    <glyph glyph-name="egrave" unicode="&#xe8;" horiz-adv-x="524" 
d="M231 539l-88 161h102l88 -161h-102zM265 496q65 0 110.5 -22t73 -61.5t36.5 -85t9 -85.5q0 -20 -2 -40h-367q0 -35 11 -57t30 -34t43 -16.5t51 -4.5q19 0 39 1.5t37 7t30.5 16.5t18.5 30h96q-10 -40 -30.5 -67.5t-49 -44.5t-64 -25t-75.5 -8q-121 0 -176.5 63t-55.5 185
q0 54 14.5 99.5t43.5 78.5t73 51.5t104 18.5zM399 290q-1 12 -5 32.5t-17.5 40t-39.5 33.5t-71 14q-41 0 -68 -12t-43.5 -30t-23 -39t-6.5 -39h274z" />
    <glyph glyph-name="eacute" unicode="&#xe9;" horiz-adv-x="524" 
d="M317 539h-102l88 161h102zM265 496q65 0 110.5 -22t73 -61.5t36.5 -85t9 -85.5q0 -20 -2 -40h-367q0 -35 11 -57t30 -34t43 -16.5t51 -4.5q19 0 39 1.5t37 7t30.5 16.5t18.5 30h96q-10 -40 -30.5 -67.5t-49 -44.5t-64 -25t-75.5 -8q-121 0 -176.5 63t-55.5 185
q0 54 14.5 99.5t43.5 78.5t73 51.5t104 18.5zM399 290q-1 12 -5 32.5t-17.5 40t-39.5 33.5t-71 14q-41 0 -68 -12t-43.5 -30t-23 -39t-6.5 -39h274z" />
    <glyph glyph-name="ecircumflex" unicode="&#xea;" horiz-adv-x="524" 
d="M229 539h-103l88 161h108l88 -161h-102l-36 66h-7zM265 496q65 0 110.5 -22t73 -61.5t36.5 -85t9 -85.5q0 -20 -2 -40h-367q0 -35 11 -57t30 -34t43 -16.5t51 -4.5q19 0 39 1.5t37 7t30.5 16.5t18.5 30h96q-10 -40 -30.5 -67.5t-49 -44.5t-64 -25t-75.5 -8
q-121 0 -176.5 63t-55.5 185q0 54 14.5 99.5t43.5 78.5t73 51.5t104 18.5zM399 290q-1 12 -5 32.5t-17.5 40t-39.5 33.5t-71 14q-41 0 -68 -12t-43.5 -30t-23 -39t-6.5 -39h274z" />
    <glyph glyph-name="edieresis" unicode="&#xeb;" horiz-adv-x="524" 
d="M412 550h-94v94h94v-94zM110 550v94h95v-94h-95zM265 496q65 0 110.5 -22t73 -61.5t36.5 -85t9 -85.5q0 -20 -2 -40h-367q0 -35 11 -57t30 -34t43 -16.5t51 -4.5q19 0 39 1.5t37 7t30.5 16.5t18.5 30h96q-10 -40 -30.5 -67.5t-49 -44.5t-64 -25t-75.5 -8
q-121 0 -176.5 63t-55.5 185q0 54 14.5 99.5t43.5 78.5t73 51.5t104 18.5zM399 290q-1 12 -5 32.5t-17.5 40t-39.5 33.5t-71 14q-41 0 -68 -12t-43.5 -30t-23 -39t-6.5 -39h274z" />
    <glyph glyph-name="igrave" unicode="&#xec;" horiz-adv-x="191" 
d="M52 700l88 -161h-102l-88 161h102zM47 1v499h94v-499h-94z" />
    <glyph glyph-name="iacute" unicode="&#xed;" horiz-adv-x="177" 
d="M125 700h102l-88 -161h-102zM129 500v-499h-94v499h94z" />
    <glyph glyph-name="icircumflex" unicode="&#xee;" horiz-adv-x="184" 
d="M-50 539l88 161h108l88 -161h-102l-36 66h-8l-36 -66h-102zM45 500h94v-499h-94v499z" />
    <glyph glyph-name="idieresis" unicode="&#xef;" horiz-adv-x="192" 
d="M153 550v95h94v-95h-94zM40 550h-95v95h95v-95zM49 1v499h94v-499h-94z" />
    <glyph glyph-name="eth" unicode="&#xf0;" horiz-adv-x="620" 
d="M423 0l-10 55h-3q-23 -22 -63.5 -38.5t-83.5 -16.5q-40 0 -81.5 7.5t-75 33.5t-55 75t-21.5 132t21 132t55 75t75.5 34t81.5 8q48 0 88.5 -15t55.5 -38h2v106h-164v94h164v57h94v-57h87v-94h-87v-550h-80zM267 94q32 0 57.5 4t43.5 19.5t27.5 47t9.5 86.5q0 49 -8 78.5
t-24.5 46t-43 22t-62.5 5.5t-62 -5.5t-42.5 -22t-24.5 -46t-8 -78.5q0 -55 9.5 -86.5t27 -47t43 -19.5t57.5 -4z" />
    <glyph glyph-name="ntilde" unicode="&#xf1;" horiz-adv-x="563" 
d="M211 555l-94 -9q-3 25 -3 50q0 4 0.5 20.5t9.5 39t28.5 36.5t53.5 14q36 0 60.5 -13.5t42.5 -29t28.5 -24.5t18.5 -9q4 0 8 2q9 5 9.5 12t0.5 11q0 7 -1.5 16t-4.5 18.5t-4 11.5l93 10q4 -26 4 -51q0 -3 -0.5 -19t-10 -39t-31.5 -37.5t-61 -14.5q-28 0 -49.5 13.5
t-38.5 28t-27 22t-18 7.5q-5 0 -10 -3q-8 -4 -9.5 -11.5t-1.5 -13.5q0 -3 0.5 -9.5t3 -15t3.5 -13.5zM50 0v496h98v-56h2q15 23 53.5 40t86.5 17q41 0 82 -8t75 -34t55 -75t21 -132v-248h-100v241q0 49 -8 80.5t-24.5 49.5t-42 25t-59.5 7q-35 0 -62 -7t-45 -25t-27.5 -47.5
t-9.5 -74.5v-249h-95z" />
    <glyph glyph-name="ograve" unicode="&#xf2;" horiz-adv-x="524" 
d="M216 539l-88 161h102l88 -161h-102zM30 248q0 83 21 132t54.5 74.5t75 33.5t81.5 8q41 0 82 -8t74.5 -33.5t54.5 -74.5t21 -132t-21 -132t-54.5 -75t-74.5 -34t-82 -8q-40 0 -81.5 8t-75 34t-54.5 75t-21 132zM262 402q-36 0 -62.5 -5.5t-43 -21.5t-24.5 -45.5t-8 -78.5
q0 -55 9.5 -87t27.5 -47.5t43.5 -19.5t57.5 -4t57.5 4t43 19.5t27 47.5t9.5 87q0 49 -8 78.5t-24.5 45.5t-42.5 21.5t-62 5.5z" />
    <glyph glyph-name="oacute" unicode="&#xf3;" horiz-adv-x="524" 
d="M310 539h-102l88 161h102zM30 248q0 83 21 132t54.5 74.5t75 33.5t81.5 8q41 0 82 -8t74.5 -33.5t54.5 -74.5t21 -132t-21 -132t-54.5 -75t-74.5 -34t-82 -8q-40 0 -81.5 8t-75 34t-54.5 75t-21 132zM124 251q0 -55 9.5 -87t27.5 -47.5t43.5 -19.5t57.5 -4t57.5 4
t43 19.5t27 47.5t9.5 87q0 49 -8 78.5t-24.5 45.5t-42.5 21.5t-62 5.5t-62.5 -5.5t-43 -21.5t-24.5 -45.5t-8 -78.5z" />
    <glyph glyph-name="ocircumflex" unicode="&#xf4;" horiz-adv-x="524" 
d="M222 539h-102l88 161h108l88 -161h-103l-36 66h-7zM30 248q0 83 21 132t54.5 75t75 33.5t81.5 7.5q41 0 82 -7.5t74.5 -33.5t54.5 -75t21 -132t-21 -132t-54.5 -75t-74.5 -34t-82 -8q-40 0 -81.5 8t-75 34t-54.5 75t-21 132zM124 251q0 -55 9.5 -86.5t27.5 -47.5
t43.5 -20t57.5 -4t57.5 4t43 20t27 47.5t9.5 86.5q0 49 -8 78.5t-24.5 45.5t-42.5 21.5t-62 5.5t-62.5 -5.5t-43 -21.5t-24.5 -45.5t-8 -78.5z" />
    <glyph glyph-name="otilde" unicode="&#xf5;" horiz-adv-x="524" 
d="M97 546q-3 25 -3 50q0 4 0.5 20.5t9.5 39t28.5 36.5t53.5 14q36 0 60.5 -13.5t42.5 -29t28.5 -24.5t18.5 -9q4 0 8 2q9 5 9.5 12t0.5 11q0 7 -1.5 16t-4.5 18.5t-4 11.5l93 10q4 -26 4 -51q0 -3 -0.5 -19t-10 -39t-31.5 -37.5t-61 -14.5q-28 0 -49.5 13.5t-38.5 28
t-27 22t-18 7.5q-5 0 -10 -3q-8 -4 -9.5 -11.5t-1.5 -13.5q0 -3 0.5 -9.5t3 -15t3.5 -13.5zM30 248q0 83 21 132t54.5 75t75 33.5t81.5 7.5q41 0 82 -7.5t74.5 -33.5t54.5 -75t21 -132t-21 -132t-54.5 -75t-74.5 -34t-82 -8q-40 0 -81.5 8t-75 34t-54.5 75t-21 132zM124 251
q0 -55 9.5 -86.5t27.5 -47.5t43.5 -20t57.5 -4t57.5 4t43 20t27 47.5t9.5 86.5q0 49 -8 78.5t-24.5 45.5t-42.5 21.5t-62 5.5t-62.5 -5.5t-43 -21.5t-24.5 -45.5t-8 -78.5z" />
    <glyph glyph-name="odieresis" unicode="&#xf6;" horiz-adv-x="524" 
d="M318 644h95v-94h-95v94zM111 644h94v-94h-94v94zM30 248q0 83 21 132t54.5 75t75 33.5t81.5 7.5q41 0 82 -7.5t74.5 -33.5t54.5 -75t21 -132t-21 -132t-54.5 -75t-74.5 -34t-82 -8q-40 0 -81.5 8t-75 34t-54.5 75t-21 132zM262 402q-36 0 -62.5 -5.5t-43 -21.5
t-24.5 -45.5t-8 -78.5q0 -55 9.5 -86.5t27.5 -47.5t43.5 -20t57.5 -4t57.5 4t43 20t27 47.5t9.5 86.5q0 49 -8 78.5t-24.5 45.5t-42.5 21.5t-62 5.5z" />
    <glyph glyph-name="divide" unicode="&#xf7;" horiz-adv-x="505" 
d="M204 512v95h95v-95h-95zM35 406h435v-94h-435v94zM299 109h-95v94h95v-94z" />
    <glyph glyph-name="oslash" unicode="&#xf8;" horiz-adv-x="550" 
d="M87 74q-20 28 -31.5 70.5t-11.5 103.5q0 83 21 132t54.5 74.5t75 33.5t81.5 8q31 0 62.5 -4t60.5 -17l17 21h104l-57 -73q20 -28 32.5 -70.5t12.5 -104.5q0 -83 -21 -132t-54.5 -75t-74.5 -34t-82 -8q-32 0 -64 4t-61 18l-17 -21h-104zM338 397q-13 3 -28.5 4t-33.5 1
q-36 0 -62.5 -5.5t-43 -21.5t-24.5 -46t-8 -80q0 -61 12 -94zM211 99q14 -4 30 -5t35 -1q32 0 57.5 4t43.5 19.5t27.5 46.5t9.5 86q0 62 -13 94z" />
    <glyph glyph-name="ugrave" unicode="&#xf9;" horiz-adv-x="506" 
d="M207 539l-88 161h102l88 -161h-102zM50 0v496h94v-402h218v402h94v-496h-406z" />
    <glyph glyph-name="uacute" unicode="&#xfa;" horiz-adv-x="506" 
d="M397 700l-88 -161h-102l88 161h102zM362 496h94v-496h-406v496h94v-402h218v402z" />
    <glyph glyph-name="ucircumflex" unicode="&#xfb;" horiz-adv-x="506" 
d="M111 539l88 161h108l88 -161h-102l-36 66h-7l-36 -66h-103zM50 496h94v-402h218v402h94v-496h-406v496z" />
    <glyph glyph-name="udieresis" unicode="&#xfc;" horiz-adv-x="506" 
d="M404 550h-94v95h94v-95zM102 550v95h95v-95h-95zM50 496h94v-402h218v402h94v-496h-406v496z" />
    <glyph glyph-name="yacute" unicode="&#xfd;" horiz-adv-x="553" 
d="M206 539l88 161h102l-88 -161h-102zM140 498v-241q0 -49 8 -80.5t24.5 -49.5t42 -25t59.5 -7q35 0 62 7t45 25t27.5 47.5t9.5 74.5v249h95v-701h-424v95h326v166h-2q-15 -23 -53.5 -40t-86.5 -17q-40 0 -81.5 8t-75.5 34t-55 75.5t-21 131.5v248h100z" />
    <glyph glyph-name="thorn" unicode="&#xfe;" horiz-adv-x="544" 
d="M282 604q41 0 82 -8t74.5 -34t54.5 -75t21 -132q0 -82 -21 -131.5t-54.5 -75t-74.5 -33.5t-82 -8q-22 0 -61 9.5t-77 38.5v-154h-94v700h94v-141q20 16 43 24.5t43 13t34.5 5.5t17.5 1zM282 201q32 0 57.5 4t43 19.5t27 47t9.5 86.5q0 49 -8 78.5t-24.5 46t-42.5 22
t-62 5.5t-62.5 -5.5t-43 -22t-24.5 -46t-8 -78.5q0 -55 9.5 -86.5t27.5 -47t43.5 -19.5t57.5 -4z" />
    <glyph glyph-name="ydieresis" unicode="&#xff;" horiz-adv-x="553" 
d="M326 550v95h95v-95h-95zM119 550v95h94v-95h-94zM140 498v-241q0 -49 8 -80.5t24.5 -49.5t42 -25t59.5 -7q35 0 62 7t45 25t27.5 47.5t9.5 74.5v249h95v-701h-424v95h326v166h-2q-15 -23 -53.5 -40t-86.5 -17q-40 0 -81.5 8t-75.5 34t-55 75.5t-21 131.5v248h100z" />
    <glyph glyph-name="Amacron" unicode="&#x100;" horiz-adv-x="629" 
d="M163 844h303v-94h-303v94zM30 0l187 699h195l187 -699h-98l-54 202h-265l-54 -202h-98zM290 605l-83 -309h214l-82 309h-49z" />
    <glyph glyph-name="amacron" unicode="&#x101;" horiz-adv-x="538" 
d="M104 550v94h315v-94h-315zM350 316v85h-270v95h364v-402h67v-94h-148l-10 53h-3q-12 -22 -48 -38t-90 -16q-88 0 -135 46.5t-47 118.5q0 75 56 113.5t150 38.5h114zM350 231h-100q-32 0 -55 -7t-37.5 -17.5t-21 -24t-6.5 -26.5q0 -18 8 -31.5t21.5 -22.5t30.5 -13.5
t36 -4.5q22 0 44 6t40 18.5t29 30.5t11 42v50z" />
    <glyph glyph-name="Abreve" unicode="&#x102;" horiz-adv-x="629" 
d="M315 823q34 0 51 14.5t17 52.5h74q0 -45 -15 -72.5t-37 -43t-46.5 -20.5t-43.5 -5t-43.5 5t-46.5 20.5t-37 43t-15 72.5h74q0 -38 17 -52.5t51 -14.5zM447 202h-265l-54 -202h-98l187 699h195l187 -699h-98zM290 605l-83 -309h214l-82 309h-49z" />
    <glyph glyph-name="abreve" unicode="&#x103;" horiz-adv-x="537" 
d="M263 613q34 0 51 14.5t17 52.5h74q0 -45 -15 -72.5t-37 -43t-46.5 -20.5t-43.5 -5t-43.5 5t-46.5 20.5t-37 43t-15 72.5h74q0 -38 17 -52.5t51 -14.5zM350 316v85h-270v95h364v-402h67v-94h-148l-10 53h-3q-12 -22 -48 -38t-90 -16q-88 0 -135 46.5t-47 118.5
q0 75 56 113.5t150 38.5h114zM350 231h-100q-32 0 -55 -7t-37.5 -17.5t-21 -24t-6.5 -26.5q0 -18 8 -31.5t21.5 -22.5t30.5 -13.5t36 -4.5q22 0 44 6t40 18.5t29 30.5t11 42v50z" />
    <glyph glyph-name="Aogonek" unicode="&#x104;" horiz-adv-x="629" 
d="M447 202h-265l-54 -202h-98l187 699h195l187 -699h-34q-4 -4 -16 -20.5t-21.5 -38.5t-10.5 -34.5t-1 -14.5q0 -21 17 -38q14 -14 26 -16.5t20 -2.5q9 0 17 2h3v-93q-111 0 -147 67q-13 24 -13 50.5t7.5 53t21.5 52t29 47.5zM290 605l-83 -309h214l-82 309h-49z" />
    <glyph glyph-name="aogonek" unicode="&#x105;" horiz-adv-x="541" 
d="M212 -1q-88 0 -135 46.5t-47 118.5q0 75 56 113.5t150 38.5h114v85h-270v95h364v-402h67v-94h-72q-6 -7 -17.5 -24t-20.5 -38.5t-9.5 -33t-0.5 -12.5q0 -21 17 -38q7 -7 18 -11t24 -6t25 -2t20 2h3v-93q-27 0 -54 4t-50 12.5t-40 20.5t-26 28q-12 22 -12.5 36.5
t-0.5 17.5q0 21 5.5 44t17.5 47.5t25 45.5l-10 53h-3q-12 -22 -48 -38t-90 -16zM250 231q-32 0 -55 -7t-37.5 -17.5t-21 -24t-6.5 -26.5q0 -18 8 -31.5t21.5 -22.5t30.5 -13.5t36 -4.5q22 0 44 6t40 18.5t29 30.5t11 42v50h-100z" />
    <glyph glyph-name="Cacute" unicode="&#x106;" 
d="M333 751h-102l87 160h102zM285 705q54 0 99 -16t78.5 -46.5t53.5 -75t23 -101.5h-94q-6 70 -45.5 107t-117.5 37q-37 0 -64 -9.5t-45.5 -26t-29.5 -38.5t-16 -48v-1q-2 -12 -3.5 -52t-1.5 -87.5t1.5 -90.5t5.5 -60q11 -51 46 -80t109 -29q43 0 73 10t49 30t28 49.5
t11 68.5h94q0 -57 -20.5 -103.5t-55.5 -80t-81 -51.5t-98 -18t-98.5 18.5t-81 53t-54.5 82.5t-20 106v192q0 62 19 110.5t52.5 81.5t80.5 50.5t103 17.5z" />
    <glyph glyph-name="cacute" unicode="&#x107;" horiz-adv-x="517" 
d="M201 539l88 161h102l-87 -161h-103zM262 401q-36 0 -62.5 -5.5t-43 -22t-24.5 -47t-8 -80.5q0 -54 9.5 -85t27.5 -46t43.5 -19t57.5 -4q24 0 45 2t37.5 9.5t28 22.5t18.5 41h96q-10 -55 -33.5 -88.5t-54.5 -51.5t-66.5 -23.5t-70.5 -5.5q-40 0 -81.5 8t-75 33.5t-54.5 75
t-21 131.5q0 83 21 132t54.5 75t75 34t81.5 8q35 0 71 -6t67 -24t54 -52t33 -90h-95q-11 49 -43 63.5t-87 14.5z" />
    <glyph glyph-name="Ccircumflex" unicode="&#x108;" 
d="M244 749h-102l87 161h109l87 -161h-102l-36 66h-7zM285 705q54 0 99 -16t78.5 -46.5t53.5 -75t23 -101.5h-94q-6 70 -45.5 107t-117.5 37q-37 0 -64 -9.5t-45.5 -26t-29.5 -38.5t-16 -48v-1q-2 -12 -3.5 -52t-1.5 -87.5t1.5 -90.5t5.5 -60q11 -51 46 -80t109 -29
q43 0 73 10t49 30t28 49.5t11 68.5h94q0 -57 -20.5 -103.5t-55.5 -80t-81 -51.5t-98 -18t-98.5 18.5t-81 53t-54.5 82.5t-20 106v192q0 62 19 110.5t52.5 81.5t80.5 50.5t103 17.5z" />
    <glyph glyph-name="ccircumflex" unicode="&#x109;" horiz-adv-x="517" 
d="M217 539h-103l88 161h108l88 -161h-102l-36 66h-7zM262 401q-36 0 -62.5 -5.5t-43 -22t-24.5 -47t-8 -80.5q0 -54 9.5 -85t27.5 -46t43.5 -19t57.5 -4q24 0 45 2t37.5 9.5t28 22.5t18.5 41h96q-10 -55 -33.5 -88.5t-54.5 -51.5t-66.5 -23.5t-70.5 -5.5q-40 0 -81.5 8
t-75 33.5t-54.5 75t-21 131.5q0 83 21 132t54.5 75t75 34t81.5 8q35 0 71 -6t67 -24t54 -52t33 -90h-95q-11 49 -43 63.5t-87 14.5z" />
    <glyph glyph-name="Cdotaccent" unicode="&#x10a;" 
d="M336 751h-95v95h95v-95zM285 705q54 0 99 -16t78.5 -46.5t53.5 -75t23 -101.5h-94q-6 70 -45.5 107t-117.5 37q-37 0 -64 -9.5t-45.5 -26t-29.5 -38.5t-16 -48v-1q-2 -12 -3.5 -52t-1.5 -87.5t1.5 -90.5t5.5 -60q11 -51 46 -80t109 -29q43 0 73 10t49 30t28 49.5t11 68.5
h94q0 -57 -20.5 -103.5t-55.5 -80t-81 -51.5t-98 -18t-98.5 18.5t-81 53t-54.5 82.5t-20 106v192q0 62 19 110.5t52.5 81.5t80.5 50.5t103 17.5z" />
    <glyph glyph-name="cdotaccent" unicode="&#x10b;" horiz-adv-x="517" 
d="M304 550h-95v95h95v-95zM262 401q-36 0 -62.5 -5.5t-43 -22t-24.5 -47t-8 -80.5q0 -54 9.5 -85t27.5 -46t43.5 -19t57.5 -4q24 0 45 2t37.5 9.5t28 22.5t18.5 41h96q-10 -55 -33.5 -88.5t-54.5 -51.5t-66.5 -23.5t-70.5 -5.5q-40 0 -81.5 8t-75 33.5t-54.5 75t-21 131.5
q0 83 21 132t54.5 75t75 34t81.5 8q35 0 71 -6t67 -24t54 -52t33 -90h-95q-11 49 -43 63.5t-87 14.5z" />
    <glyph glyph-name="Ccaron" unicode="&#x10c;" 
d="M226 739l-87 161h102l36 -66h7l36 66h102l-87 -161h-109zM285 705q54 0 99 -16t78.5 -46.5t53.5 -75t23 -101.5h-94q-6 70 -45.5 107t-117.5 37q-37 0 -64 -9.5t-45.5 -26t-29.5 -38.5t-16 -48v-1q-2 -12 -3.5 -52t-1.5 -87.5t1.5 -90.5t5.5 -60q11 -51 46 -80t109 -29
q43 0 73 10t49 30t28 49.5t11 68.5h94q0 -57 -20.5 -103.5t-55.5 -80t-81 -51.5t-98 -18t-98.5 18.5t-81 53t-54.5 82.5t-20 106v192q0 62 19 110.5t52.5 81.5t80.5 50.5t103 17.5z" />
    <glyph glyph-name="ccaron" unicode="&#x10d;" horiz-adv-x="517" 
d="M114 700h103l36 -66h7l36 66h102l-88 -161h-108zM262 401q-36 0 -62.5 -5.5t-43 -22t-24.5 -47t-8 -80.5q0 -54 9.5 -85t27.5 -46t43.5 -19t57.5 -4q24 0 45 2t37.5 9.5t28 22.5t18.5 41h96q-10 -55 -33.5 -88.5t-54.5 -51.5t-66.5 -23.5t-70.5 -5.5q-40 0 -81.5 8
t-75 33.5t-54.5 75t-21 131.5q0 83 21 132t54.5 75t75 34t81.5 8q35 0 71 -6t67 -24t54 -52t33 -90h-95q-11 49 -43 63.5t-87 14.5z" />
    <glyph glyph-name="Dcaron" unicode="&#x10e;" horiz-adv-x="589" 
d="M316 900h102l-88 -161h-108l-88 161h102l36 -66h8zM320 700q50 0 93.5 -19t75.5 -51t51 -75.5t19 -93.5v-222q0 -49 -17.5 -92.5t-48 -76t-72.5 -51t-92 -18.5h-279v699h270zM464 461q0 63 -36 104t-103 41h-181v-511h176q69 0 106.5 39t37.5 105v222z" />
    <glyph glyph-name="dcaron" unicode="&#x10f;" horiz-adv-x="706" 
d="M582 750h94v-210h-94v210zM423 0l-10 55h-3q-23 -22 -63.5 -38.5t-83.5 -16.5q-40 0 -81.5 7.5t-75 33.5t-55 75t-21.5 132t21 132t55 75t75.5 34t81.5 8q48 0 88.5 -15t55.5 -38h2v257h94v-701h-80zM267 94q32 0 57.5 4t43.5 19.5t27.5 47t9.5 86.5q0 49 -8 78.5
t-24.5 46t-43 22t-62.5 5.5t-62 -5.5t-42.5 -22t-24.5 -46t-8 -78.5q0 -55 9.5 -86.5t27 -47t43 -19.5t57.5 -4z" />
    <glyph glyph-name="Dcroat" unicode="&#x110;" horiz-adv-x="655" 
d="M625 239q0 -49 -17.5 -92.5t-48 -76t-72.5 -51t-92 -18.5h-279v308h-86v94h86v297h270q50 0 93.5 -19t75.5 -51t51 -75.5t19 -93.5v-222zM530 461q0 63 -36 104t-103 41h-181v-203h164v-94h-164v-214h176q69 0 106.5 39t37.5 105v222z" />
    <glyph glyph-name="dcroat" unicode="&#x111;" horiz-adv-x="620" 
d="M423 0l-10 55h-3q-23 -22 -63.5 -38.5t-83.5 -16.5q-40 0 -81.5 7.5t-75 33.5t-55 75t-21.5 132t21 132t55 75t75.5 34t81.5 8q48 0 88.5 -15t55.5 -38h2v106h-164v94h164v57h94v-57h87v-94h-87v-550h-80zM267 94q32 0 57.5 4t43.5 19.5t27.5 47t9.5 86.5q0 49 -8 78.5
t-24.5 46t-43 22t-62.5 5.5t-62 -5.5t-42.5 -22t-24.5 -46t-8 -78.5q0 -55 9.5 -86.5t27 -47t43 -19.5t57.5 -4z" />
    <glyph glyph-name="Emacron" unicode="&#x112;" horiz-adv-x="557" 
d="M134 844h304v-94h-304v94zM50 0v700h472v-94h-378v-202h283v-94h-283v-215h378v-95h-472z" />
    <glyph glyph-name="emacron" unicode="&#x113;" horiz-adv-x="524" 
d="M116 644h315v-94h-315v94zM265 496q65 0 110.5 -22t73 -61.5t36.5 -85t9 -85.5q0 -20 -2 -40h-367q0 -35 11 -57t30 -34t43 -16.5t51 -4.5q19 0 39 1.5t37 7t30.5 16.5t18.5 30h96q-10 -40 -30.5 -67.5t-49 -44.5t-64 -25t-75.5 -8q-121 0 -176.5 63t-55.5 185
q0 54 14.5 99.5t43.5 78.5t73 51.5t104 18.5zM399 290q-1 12 -5 32.5t-17.5 40t-39.5 33.5t-71 14q-41 0 -68 -12t-43.5 -30t-23 -39t-6.5 -39h274z" />
    <glyph glyph-name="Ebreve" unicode="&#x114;" horiz-adv-x="557" 
d="M286 823q34 0 51 14.5t17 52.5h74q0 -45 -15 -72.5t-37 -43t-46.5 -20.5t-43.5 -5t-43.5 5t-46.5 20.5t-37 43t-15 72.5h74q0 -38 17 -52.5t51 -14.5zM144 606v-202h283v-94h-283v-215h378v-95h-472v700h472v-94h-378z" />
    <glyph glyph-name="ebreve" unicode="&#x115;" horiz-adv-x="524" 
d="M263 633q34 0 51 14.5t17 52.5h74q0 -45 -15 -72.5t-37 -43t-46.5 -20.5t-43.5 -5t-43.5 5t-46.5 20.5t-37 43t-15 72.5h74q0 -38 17 -52.5t51 -14.5zM265 496q65 0 110.5 -22t73 -61.5t36.5 -85t9 -85.5q0 -20 -2 -40h-367q0 -35 11 -57t30 -34t43 -16.5t51 -4.5
q19 0 39 1.5t37 7t30.5 16.5t18.5 30h96q-10 -40 -30.5 -67.5t-49 -44.5t-64 -25t-75.5 -8q-121 0 -176.5 63t-55.5 185q0 54 14.5 99.5t43.5 78.5t73 51.5t104 18.5zM399 290q-1 12 -5 32.5t-17.5 40t-39.5 33.5t-71 14q-41 0 -68 -12t-43.5 -30t-23 -39t-6.5 -39h274z" />
    <glyph glyph-name="Edotaccent" unicode="&#x116;" horiz-adv-x="557" 
d="M239 846h94v-95h-94v95zM50 700h472v-94h-378v-202h283v-94h-283v-215h378v-95h-472v700z" />
    <glyph glyph-name="edotaccent" unicode="&#x117;" horiz-adv-x="524" 
d="M214 645h95v-95h-95v95zM265 496q65 0 110.5 -22t73 -61.5t36.5 -85t9 -85.5q0 -20 -2 -40h-367q0 -35 11 -57t30 -34t43 -16.5t51 -4.5q19 0 39 1.5t37 7t30.5 16.5t18.5 30h96q-10 -40 -30.5 -67.5t-49 -44.5t-64 -25t-75.5 -8q-121 0 -176.5 63t-55.5 185
q0 54 14.5 99.5t43.5 78.5t73 51.5t104 18.5zM399 290q-1 12 -5 32.5t-17.5 40t-39.5 33.5t-71 14q-41 0 -68 -12t-43.5 -30t-23 -39t-6.5 -39h274z" />
    <glyph glyph-name="Eogonek" unicode="&#x118;" horiz-adv-x="557" 
d="M144 404h283v-94h-283v-215h378v-95h-33q-4 -5 -16.5 -21t-22 -38t-10.5 -34.5t-1 -14.5q0 -21 17 -38q14 -14 26 -16.5t20 -2.5q9 0 17 2h3v-93q-54 0 -91 16.5t-54 48.5q-12 23 -13 37.5t-1 19.5q0 20 5.5 42.5t17 46.5t25.5 45h-361v700h472v-94h-378v-202z" />
    <glyph glyph-name="eogonek" unicode="&#x119;" horiz-adv-x="524" 
d="M265 496q65 0 110.5 -22t73 -61.5t36.5 -85t9 -85.5q0 -20 -2 -40h-367q0 -35 11 -57t30 -34t43 -16.5t51 -4.5q19 0 39 1.5t37 7t30.5 16.5t18.5 30h96q-5 -18 -20 -43t-33 -52t-35.5 -55.5t-28.5 -55t-12 -38.5t-1 -14q0 -19 13 -33q14 -14 26.5 -16.5t20.5 -2.5
q9 0 17 2h2v-93q-54 0 -91 16.5t-54 48.5q-12 22 -12.5 35.5t-0.5 15.5q0 23 6 48t17.5 50t24.5 46q-14 -2 -28.5 -3t-29.5 -1q-121 0 -176.5 63t-55.5 185q0 54 14.5 99.5t43.5 78.5t73 51.5t104 18.5zM399 290q-1 12 -5 32.5t-17.5 40t-39.5 33.5t-71 14q-41 0 -68 -12
t-43.5 -30t-23 -39t-6.5 -39h274z" />
    <glyph glyph-name="Ecaron" unicode="&#x11a;" horiz-adv-x="557" 
d="M144 900h103l36 -66h7l36 66h102l-88 -161h-108zM522 606h-378v-202h283v-94h-283v-215h378v-95h-472v700h472v-94z" />
    <glyph glyph-name="ecaron" unicode="&#x11b;" horiz-adv-x="524" 
d="M208 539l-88 161h103l36 -66h7l36 66h102l-88 -161h-108zM265 496q65 0 110.5 -22t73 -61.5t36.5 -85t9 -85.5q0 -20 -2 -40h-367q0 -35 11 -57t30 -34t43 -16.5t51 -4.5q19 0 39 1.5t37 7t30.5 16.5t18.5 30h96q-10 -40 -30.5 -67.5t-49 -44.5t-64 -25t-75.5 -8
q-121 0 -176.5 63t-55.5 185q0 54 14.5 99.5t43.5 78.5t73 51.5t104 18.5zM399 290q-1 12 -5 32.5t-17.5 40t-39.5 33.5t-71 14q-41 0 -68 -12t-43.5 -30t-23 -39t-6.5 -39h274z" />
    <glyph glyph-name="Gcircumflex" unicode="&#x11c;" 
d="M142 749l88 161h108l88 -161h-102l-36 66h-8l-36 -66h-102zM288 396h251v-146q0 -62 -20 -110.5t-54.5 -81.5t-80.5 -50.5t-99 -17.5t-99.5 17.5t-81 50.5t-54.5 81.5t-20 110.5v198q0 59 20 106.5t54.5 82t81 53t98.5 18.5q47 0 90 -15.5t76.5 -45t56.5 -72.5t31 -99
h-93q-11 65 -49.5 101t-115.5 36q-71 0 -108.5 -29t-48.5 -80q-2 -11 -3.5 -36t-2.5 -51t-1 -49q0 -11 0.5 -34t1 -53.5t2 -53t2.5 -30.5q11 -52 48.5 -82t115.5 -30q58 0 91 17t50 46t21.5 69t4.5 85h-165v94z" />
    <glyph glyph-name="gcircumflex" unicode="&#x11d;" horiz-adv-x="544" 
d="M120 539l88 161h108l88 -161h-102l-37 66h-7l-36 -66h-102zM499 -203h-422v95h328v163h-2q-15 -23 -55.5 -38t-88.5 -15q-40 0 -81.5 8t-75.5 34t-55 75.5t-21 131.5q0 83 21.5 132t55 75t75 33.5t81.5 7.5q51 0 91 -15t56 -40h3v55h90v-702zM263 97q39 0 66 6.5t44.5 23
t25.5 46.5t8 76q0 52 -9.5 83t-27.5 47.5t-43.5 21.5t-57.5 5t-57.5 -4t-43.5 -19.5t-27.5 -47t-9.5 -86.5q0 -49 8 -78.5t24 -46t41 -22t59 -5.5z" />
    <glyph glyph-name="Gbreve" unicode="&#x11e;" 
d="M285 824q34 0 51 14.5t17 52.5h74q0 -45 -15 -72.5t-37 -43t-46.5 -20.5t-43.5 -5t-43.5 5t-46.5 20.5t-37 43t-15 72.5h74q0 -38 17 -52.5t51 -14.5zM288 396h251v-146q0 -62 -20 -110.5t-54.5 -81.5t-80.5 -50.5t-99 -17.5t-99.5 17.5t-81 50.5t-54.5 81.5t-20 110.5
v198q0 59 20 106.5t54.5 82t81 53t98.5 18.5q47 0 90 -15.5t76.5 -45t56.5 -72.5t31 -99h-93q-11 65 -49.5 101t-115.5 36q-71 0 -108.5 -29t-48.5 -80q-2 -11 -3.5 -36t-2.5 -51t-1 -49q0 -11 0.5 -34t1 -53.5t2 -53t2.5 -30.5q11 -52 48.5 -82t115.5 -30q58 0 91 17t50 46
t21.5 69t4.5 85h-165v94z" />
    <glyph glyph-name="gbreve" unicode="&#x11f;" horiz-adv-x="544" 
d="M259 632q34 0 51 14.5t17 52.5h74q0 -45 -15 -72.5t-37 -43t-46.5 -20.5t-43.5 -5t-43.5 5t-46.5 20.5t-37 43t-15 72.5h74q0 -38 17 -52.5t51 -14.5zM493 -203h-422v95h328v163h-2q-15 -23 -55.5 -38t-88.5 -15q-40 0 -81.5 8t-75.5 34t-55 75.5t-21 131.5
q0 83 21.5 132t55 75t75 33.5t81.5 7.5q51 0 91 -15t56 -40h3v55h90v-702zM257 97q39 0 66 6.5t44.5 23t25.5 46.5t8 76q0 52 -9.5 83t-27.5 47.5t-43.5 21.5t-57.5 5t-57.5 -4t-43.5 -19.5t-27.5 -47t-9.5 -86.5q0 -49 8 -78.5t24 -46t41 -22t59 -5.5z" />
    <glyph glyph-name="Gdotaccent" unicode="&#x120;" 
d="M333 751h-94v95h94v-95zM288 396h251v-146q0 -62 -20 -110.5t-54.5 -81.5t-80.5 -50.5t-99 -17.5t-99.5 17.5t-81 50.5t-54.5 81.5t-20 110.5v198q0 59 20 106.5t54.5 82t81 53t98.5 18.5q47 0 90 -15.5t76.5 -45t56.5 -72.5t31 -99h-93q-11 65 -49.5 101t-115.5 36
q-71 0 -108.5 -29t-48.5 -80q-2 -11 -3.5 -36t-2.5 -51t-1 -49q0 -11 0.5 -34t1 -53.5t2 -53t2.5 -30.5q11 -52 48.5 -82t115.5 -30q58 0 91 17t50 46t21.5 69t4.5 85h-165v94z" />
    <glyph glyph-name="gdotaccent" unicode="&#x121;" horiz-adv-x="544" 
d="M215 550v95h94v-95h-94zM499 -203h-422v95h328v163h-2q-15 -23 -55.5 -38t-88.5 -15q-40 0 -81.5 8t-75.5 34t-55 75.5t-21 131.5q0 83 21.5 132t55 75t75 33.5t81.5 7.5q51 0 91 -15t56 -40h3v55h90v-702zM263 97q39 0 66 6.5t44.5 23t25.5 46.5t8 76q0 52 -9.5 83
t-27.5 47.5t-43.5 21.5t-57.5 5t-57.5 -4t-43.5 -19.5t-27.5 -47t-9.5 -86.5q0 -49 8 -78.5t24 -46t41 -22t59 -5.5z" />
    <glyph glyph-name="uni0122" unicode="&#x122;" 
d="M288 396h251v-146q0 -62 -20 -110.5t-54.5 -81.5t-80.5 -50.5t-99 -17.5t-99.5 17.5t-81 50.5t-54.5 81.5t-20 110.5v198q0 59 20 106.5t54.5 82t81 53t98.5 18.5q47 0 90 -15.5t76.5 -45t56.5 -72.5t31 -99h-93q-11 65 -49.5 101t-115.5 36q-71 0 -108.5 -29t-48.5 -80
q-2 -11 -3.5 -36t-2.5 -51t-1 -49q0 -11 0.5 -34t1 -53.5t2 -53t2.5 -30.5q11 -52 48.5 -82t115.5 -30q58 0 91 17t50 46t21.5 69t4.5 85h-165v94zM257 -210h-102l88 160h102z" />
    <glyph glyph-name="uni0123" unicode="&#x123;" horiz-adv-x="544" 
d="M211 550l88 161h102l-88 -161h-102zM500 -203h-422v95h328v163h-2q-15 -23 -55.5 -38t-88.5 -15q-40 0 -81.5 8t-75.5 34t-55 75.5t-21 131.5q0 83 21.5 132t55 75t75 33.5t81.5 7.5q51 0 91 -15t56 -40h3v55h90v-702zM264 97q39 0 66 6.5t44.5 23t25.5 46.5t8 76
q0 52 -9.5 83t-27.5 47.5t-43.5 21.5t-57.5 5t-57.5 -4t-43.5 -19.5t-27.5 -47t-9.5 -86.5q0 -49 8 -78.5t24 -46t41 -22t59 -5.5z" />
    <glyph glyph-name="Hcircumflex" unicode="&#x124;" horiz-adv-x="578" 
d="M147 749l88 161h108l88 -161h-102l-36 66h-8l-36 -66h-102zM434 309h-290v-309h-94v699h94v-296h290v296h94v-699h-94v309z" />
    <glyph glyph-name="hcircumflex" unicode="&#x125;" horiz-adv-x="544" 
d="M96 816h-8l-36 -66h-102l88 161h108l88 -161h-102zM41 0v701h98v-261h2q15 23 53.5 40t86.5 17q41 0 82 -8t75 -34t55 -75t21 -132v-248h-100v241q0 49 -8 80.5t-24.5 49.5t-42 25t-59.5 7q-35 0 -62 -7t-45 -25t-27.5 -47.5t-9.5 -74.5v-249h-95z" />
    <glyph glyph-name="Hbar" unicode="&#x126;" horiz-adv-x="710" 
d="M116 652v47h94v-47h290v47h94v-47h86v-94h-86v-558h-94v309h-290v-309h-94v558h-86v94h86zM500 558h-290v-155h290v155z" />
    <glyph glyph-name="hbar" unicode="&#x127;" horiz-adv-x="633" 
d="M30 652h90v49h98v-49h157v-94h-157v-118h2q15 23 53.5 40t86.5 17q41 0 82 -8t75 -34t55 -75t21 -132v-248h-100v241q0 49 -8 80.5t-24.5 49.5t-42 25t-59.5 7q-35 0 -62 -7t-45 -25t-27.5 -47.5t-9.5 -74.5v-249h-95v558h-90v94z" />
    <glyph glyph-name="Itilde" unicode="&#x128;" horiz-adv-x="187" 
d="M-77 746q-3 25 -3 50q0 4 0.5 20.5t9.5 39t28 36.5t54 14q36 0 60.5 -13.5t42.5 -29t28.5 -24.5t18.5 -9q4 0 8 2q9 5 9.5 12t0.5 11q0 7 -1.5 16t-4.5 18.5t-4 11.5l93 10q4 -26 4 -51q0 -3 -0.5 -19t-10 -39t-31.5 -37.5t-61 -14.5q-28 0 -49.5 13.5t-38.5 28t-27 22
t-18 7.5q-5 0 -10 -3q-8 -4 -9.5 -11.5t-1.5 -13.5q0 -3 0.5 -9.5t3 -15t3.5 -13.5zM-41 94h84v512h-84v94h262v-94h-84v-512h84v-94h-262v94z" />
    <glyph glyph-name="itilde" unicode="&#x129;" horiz-adv-x="186" 
d="M-73 546q-3 25 -3 50q0 4 0.5 20.5t9.5 39t28 36.5t54 14q36 0 60.5 -13.5t42.5 -29t28.5 -24.5t18.5 -9q4 0 8 2q9 5 9.5 12t0.5 11q0 7 -1.5 16t-4.5 18.5t-4 11.5l93 10q4 -26 4 -51q0 -3 -0.5 -19t-10 -39t-31.5 -37.5t-61 -14.5q-28 0 -49.5 13.5t-38.5 28t-27 22
t-18 7.5q-5 0 -10 -3q-8 -4 -9.5 -11.5t-1.5 -13.5q0 -3 0.5 -9.5t3 -15t3.5 -13.5zM46 500h95v-499h-95v499z" />
    <glyph glyph-name="Imacron" unicode="&#x12a;" horiz-adv-x="185" 
d="M250 844v-94h-315v94h315zM-39 94h84v512h-84v94h262v-94h-84v-512h84v-94h-262v94z" />
    <glyph glyph-name="imacron" unicode="&#x12b;" horiz-adv-x="185" 
d="M250 644v-94h-315v94h315zM140 1h-95v499h95v-499z" />
    <glyph glyph-name="Ibreve" unicode="&#x12c;" horiz-adv-x="184" 
d="M93 822q34 0 51 14.5t17 52.5h74q0 -45 -15 -72.5t-37 -43t-46.5 -20.5t-43.5 -5t-43.5 5t-46.5 20.5t-37 43t-15 72.5h74q0 -38 17 -52.5t51 -14.5zM-41 94h84v512h-84v94h262v-94h-84v-512h84v-94h-262v94z" />
    <glyph glyph-name="ibreve" unicode="&#x12d;" horiz-adv-x="184" 
d="M92 632q34 0 51 14.5t17 52.5h74q0 -45 -15 -72.5t-37 -43t-46.5 -20.5t-43.5 -5t-43.5 5t-46.5 20.5t-37 43t-15 72.5h74q0 -38 17 -52.5t51 -14.5zM45 1v499h94v-499h-94z" />
    <glyph glyph-name="Iogonek" unicode="&#x12e;" horiz-adv-x="280" 
d="M190 -256q-54 0 -91 16.5t-54 48.5q-12 23 -13 38t-1 20q0 20 5.5 42t17 46t25.5 45h-68v94h82v512h-82v94h262v-94h-83v-512h83v-94h-117q-4 -5 -16.5 -21.5t-21.5 -38t-9.5 -34t-0.5 -13.5q0 -22 16 -39q14 -14 26 -16.5t20 -2.5q9 0 17 2h3v-93z" />
    <glyph glyph-name="iogonek" unicode="&#x12f;" horiz-adv-x="169" 
d="M132 606h-94v94h94v-94zM38 500h94v-498q-4 -4 -16.5 -21t-22 -39t-10.5 -35t-1 -16q0 -21 16 -37q14 -14 26 -16.5t20 -2.5q9 0 17 2h3v-93q-54 0 -91 16.5t-54 48.5q-12 23 -13 37.5t-1 19.5q0 20 5.5 42.5t17.5 46.5t25 46h-15v499z" />
    <glyph glyph-name="Idotaccent" unicode="&#x130;" horiz-adv-x="280" 
d="M186 846v-95h-95v95h95zM9 94h84v512h-84v94h262v-94h-84v-512h84v-94h-262v94z" />
    <glyph glyph-name="dotlessi" unicode="&#x131;" horiz-adv-x="194" 
d="M50 1v499h94v-499h-94z" />
    <glyph glyph-name="IJ" unicode="&#x132;" horiz-adv-x="583" 
d="M51 700h94v-364h-94v364zM439 700h94v-468q0 -50 -19 -94t-51.5 -76.5t-76.5 -51.5t-94 -19q-49 0 -92 18t-75.5 49t-52 73t-21.5 91l-1 26h95l1 -22q2 -30 13.5 -55.5t31 -44t45.5 -29.5t56 -11t57 11.5t47 31t31.5 46.5t11.5 57v468z" />
    <glyph glyph-name="ij" unicode="&#x133;" horiz-adv-x="378" 
d="M144 700v-94h-94v94h94zM328 606h-94v94h94v-94zM50 500h94v-522h-94v522zM50 -197v94h184v603h94v-697h-278z" />
    <glyph glyph-name="Jcircumflex" unicode="&#x134;" horiz-adv-x="556" 
d="M518 910l88 -161h-102l-36 66h-8l-36 -66h-102l88 161h108zM513 701v-469q0 -50 -19 -94t-51.5 -76.5t-76.5 -51.5t-94 -19q-49 0 -92 18t-75.5 49t-52 73t-21.5 91l-1 26h95l1 -22q1 -30 13 -55.5t31.5 -44t45.5 -29.5t56 -11t57 11.5t47 31t31.5 46.5t11.5 57v469h94z
" />
    <glyph glyph-name="jcircumflex" unicode="&#x135;" horiz-adv-x="278" 
d="M240 700l88 -161h-102l-36 66h-7l-36 -66h-103l88 161h108zM35 -197v94h104v604h94v-698h-198z" />
    <glyph glyph-name="uni0136" unicode="&#x136;" horiz-adv-x="572" 
d="M270 406v-3h244v-403h-94v309h-276v-309h-94v700h94v-297h4l264 297h120zM242 -50h102l-88 -160h-102z" />
    <glyph glyph-name="uni0137" unicode="&#x137;" horiz-adv-x="507" 
d="M144 202v-202h-94v700h94v-404h3l179 200h121l-175 -197v-3h195v-296h-94v202h-229zM235 -210h-103l88 160h102z" />
    <glyph glyph-name="kgreenlandic" unicode="&#x138;" horiz-adv-x="499" 
d="M459 296v-296h-94v202h-221v-202h-94v496h94v-200h2l181 200h121l-178 -197v-3h189z" />
    <glyph glyph-name="Lacute" unicode="&#x139;" horiz-adv-x="522" 
d="M50 751l88 160h102l-88 -160h-102zM50 0v700h94v-606h348v-94h-442z" />
    <glyph glyph-name="lacute" unicode="&#x13a;" horiz-adv-x="200" 
d="M240 910l-88 -160h-102l88 160h102zM51 700h96v-700h-96v700z" />
    <glyph glyph-name="uni013B" unicode="&#x13b;" horiz-adv-x="522" 
d="M50 0v700h94v-606h348v-94h-442zM128 -210l88 160h102l-88 -160h-102z" />
    <glyph glyph-name="uni013C" unicode="&#x13c;" horiz-adv-x="190" 
d="M46 0v700h94v-700h-94zM-50 -210l88 161h102l-88 -161h-102z" />
    <glyph glyph-name="Lcaron" unicode="&#x13d;" horiz-adv-x="522" 
d="M219 750h94v-210h-94v210zM50 0v700h94v-606h348v-94h-442z" />
    <glyph glyph-name="lcaron" unicode="&#x13e;" horiz-adv-x="335" 
d="M211 750h94v-210h-94v210zM50 0v700h94v-700h-94z" />
    <glyph glyph-name="Ldot" unicode="&#x13f;" horiz-adv-x="522" 
d="M144 94h348v-94h-442v700h94v-606zM235 450h94v-95h-94v95z" />
    <glyph glyph-name="ldot" unicode="&#x140;" horiz-adv-x="279" 
d="M144 0h-94v700h94v-700zM215 450h94v-95h-94v95z" />
    <glyph glyph-name="Lslash" unicode="&#x141;" horiz-adv-x="534" 
d="M504 94v-94h-442v208h-2l-38 -53h-102l142 200v345h94v-210h2l43 60h102l-147 -206v-250h348z" />
    <glyph glyph-name="lslash" unicode="&#x142;" horiz-adv-x="293" 
d="M62 0v208h-2l-38 -53h-102l142 200v345h94v-210h2l42 60h103l-148 -206v-344h-93z" />
    <glyph glyph-name="Nacute" unicode="&#x143;" horiz-adv-x="599" 
d="M357 751h-102l87 160h103zM50 700h186l195 -607h24v607h94v-700h-186l-194 606h-25v-606h-94v700z" />
    <glyph glyph-name="nacute" unicode="&#x144;" horiz-adv-x="563" 
d="M426 700l-88 -161h-102l88 161h102zM50 0v496h98v-56h2q15 23 53.5 40t86.5 17q41 0 82 -8t75 -34t55 -75t21 -132v-248h-100v241q0 49 -8 80.5t-24.5 49.5t-42 25t-59.5 7q-35 0 -62 -7t-45 -25t-27.5 -47.5t-9.5 -74.5v-249h-95z" />
    <glyph glyph-name="uni0145" unicode="&#x145;" horiz-adv-x="599" 
d="M50 700h186l195 -607h24v607h94v-700h-186l-194 606h-25v-606h-94v700zM263 -210h-102l87 160h103z" />
    <glyph glyph-name="uni0146" unicode="&#x146;" horiz-adv-x="563" 
d="M50 0v496h98v-56h2q15 23 53.5 40t86.5 17q41 0 82 -8t75 -34t55 -75t21 -132v-248h-100v241q0 49 -8 80.5t-24.5 49.5t-42 25t-59.5 7q-35 0 -62 -7t-45 -25t-27.5 -47.5t-9.5 -74.5v-249h-95zM357 -50l-88 -160h-102l88 160h102z" />
    <glyph glyph-name="Ncaron" unicode="&#x147;" horiz-adv-x="599" 
d="M246 739l-88 161h102l36 -66h7l36 66h103l-88 -161h-108zM144 606v-606h-94v700h186l195 -607h24v607h94v-700h-186l-194 606h-25z" />
    <glyph glyph-name="ncaron" unicode="&#x148;" horiz-adv-x="563" 
d="M344 539h-108l-88 161h102l36 -66h7l37 66h102zM50 0v496h98v-56h2q15 23 53.5 40t86.5 17q41 0 82 -8t75 -34t55 -75t21 -132v-248h-100v241q0 49 -8 80.5t-24.5 49.5t-42 25t-59.5 7q-35 0 -62 -7t-45 -25t-27.5 -47.5t-9.5 -74.5v-249h-95z" />
    <glyph glyph-name="napostrophe" unicode="&#x149;" horiz-adv-x="560" 
d="M-80 540l94 210h94l-94 -210h-94zM47 0v496h98v-56h2q15 23 53.5 40t86.5 17q41 0 82 -8t75 -34t55 -75t21 -132v-248h-100v241q0 49 -8 80.5t-24.5 49.5t-42 25t-59.5 7q-35 0 -62 -7t-45 -25t-27.5 -47.5t-9.5 -74.5v-249h-95z" />
    <glyph glyph-name="Eng" unicode="&#x14a;" horiz-adv-x="600" 
d="M144 606v-606h-94v700h186l195 -607h24v607h95v-897h-198v94h104v103h-93l-194 606h-25z" />
    <glyph glyph-name="eng" unicode="&#x14b;" horiz-adv-x="550" 
d="M510 -197h-250v94h156v352q0 50 -7.5 80t-23.5 46.5t-41.5 22t-61.5 5.5t-62.5 -5.5t-43 -22t-24.5 -46.5t-8 -80v-249h-94v496h94v-43q17 17 39 26.5t43 13.5t37 4.5t19 0.5q41 0 81.5 -8t73 -34t53 -75t20.5 -132v-446z" />
    <glyph glyph-name="Omacron" unicode="&#x14c;" 
d="M133 844h304v-94h-304v94zM284 708q53 0 99 -18.5t81 -53t55 -82t20 -106.5v-198q0 -62 -20 -110.5t-55 -81.5t-81 -50.5t-99 -17.5q-52 0 -98.5 17.5t-81 50.5t-54.5 81.5t-20 110.5v198q0 59 20 106.5t54.5 82t81 53t98.5 18.5zM442 197q2 8 3 30.5t1.5 53t0.5 65
t-0.5 66t-2 56.5t-4.5 36q-11 50 -46.5 79.5t-109.5 29.5t-109 -29t-46 -80q-2 -11 -4 -36t-2.5 -56.5t-0.5 -66t0.5 -64.5t2 -52.5t2.5 -30.5v-1q11 -52 46 -82t109 -30q75 0 112 30t48 82z" />
    <glyph glyph-name="omacron" unicode="&#x14d;" horiz-adv-x="524" 
d="M104 644h315v-94h-315v94zM30 248q0 83 21 132t54.5 74.5t75 33.5t81.5 8q41 0 82 -8t74.5 -33.5t54.5 -74.5t21 -132t-21 -132t-54.5 -75t-74.5 -34t-82 -8q-40 0 -81.5 8t-75 34t-54.5 75t-21 132zM124 248q0 -54 9.5 -85t27.5 -46.5t43.5 -19.5t57.5 -4t57.5 4
t43 19.5t27 46.5t9.5 85q0 50 -8 80t-24.5 46.5t-42.5 22t-62 5.5t-62.5 -5.5t-43 -22t-24.5 -46.5t-8 -80z" />
    <glyph glyph-name="Obreve" unicode="&#x14e;" 
d="M286 823q34 0 51 14.5t17 52.5h74q0 -45 -15 -72.5t-37 -43t-46.5 -20.5t-43.5 -5t-43.5 5t-46.5 20.5t-37 43t-15 72.5h74q0 -38 17 -52.5t51 -14.5zM284 708q53 0 99 -18.5t81 -53t55 -82t20 -106.5v-198q0 -62 -20 -110.5t-55 -81.5t-81 -50.5t-99 -17.5
q-52 0 -98.5 17.5t-81 50.5t-54.5 81.5t-20 110.5v198q0 59 20 106.5t54.5 82t81 53t98.5 18.5zM442 197q2 8 3 30.5t1.5 53t0.5 65t-0.5 66t-2 56.5t-4.5 36q-11 50 -46.5 79.5t-109.5 29.5t-109 -29t-46 -80q-2 -11 -4 -36t-2.5 -56.5t-0.5 -66t0.5 -64.5t2 -52.5
t2.5 -30.5v-1q11 -52 46 -82t109 -30q75 0 112 30t48 82z" />
    <glyph glyph-name="obreve" unicode="&#x14f;" horiz-adv-x="524" 
d="M263 632q34 0 51 14.5t17 52.5h74q0 -45 -15 -72.5t-37 -43t-46.5 -20.5t-43.5 -5t-43.5 5t-46.5 20.5t-37 43t-15 72.5h74q0 -38 17 -52.5t51 -14.5zM262 496q41 0 82 -8t74.5 -33.5t54.5 -74.5t21 -132t-21 -132t-54.5 -75t-74.5 -34t-82 -8q-40 0 -81.5 8t-75 34
t-54.5 75t-21 132t21 132t54.5 74.5t75 33.5t81.5 8zM262 93q32 0 57.5 4t43 19.5t27 46.5t9.5 85q0 50 -8 80t-24.5 46.5t-42.5 22t-62 5.5t-62.5 -5.5t-43 -22t-24.5 -46.5t-8 -80q0 -54 9.5 -85t27.5 -46.5t43.5 -19.5t57.5 -4z" />
    <glyph glyph-name="Ohungarumlaut" unicode="&#x150;" 
d="M431 739h-102l88 161h102zM249 739h-102l88 161h102zM284 708q53 0 99 -18.5t81 -53t55 -82t20 -106.5v-198q0 -62 -20 -110.5t-55 -81.5t-81 -50.5t-99 -17.5q-52 0 -98.5 17.5t-81 50.5t-54.5 81.5t-20 110.5v198q0 59 20 106.5t54.5 82t81 53t98.5 18.5zM442 197
q2 8 3 30.5t1.5 53t0.5 65t-0.5 66t-2 56.5t-4.5 36q-11 50 -46.5 79.5t-109.5 29.5t-109 -29t-46 -80q-2 -11 -4 -36t-2.5 -56.5t-0.5 -66t0.5 -64.5t2 -52.5t2.5 -30.5v-1q11 -52 46 -82t109 -30q75 0 112 30t48 82z" />
    <glyph glyph-name="ohungarumlaut" unicode="&#x151;" horiz-adv-x="524" 
d="M288 539l88 161h102l-88 -161h-102zM106 539l88 161h102l-88 -161h-102zM262 496q41 0 82 -8t74.5 -33.5t54.5 -74.5t21 -132t-21 -132t-54.5 -75t-74.5 -34t-82 -8q-40 0 -81.5 8t-75 34t-54.5 75t-21 132t21 132t54.5 74.5t75 33.5t81.5 8zM262 93q32 0 57.5 4t43 19.5
t27 46.5t9.5 85q0 50 -8 80t-24.5 46.5t-42.5 22t-62 5.5t-62.5 -5.5t-43 -22t-24.5 -46.5t-8 -80q0 -54 9.5 -85t27.5 -46.5t43.5 -19.5t57.5 -4z" />
    <glyph glyph-name="OE" unicode="&#x152;" horiz-adv-x="956" 
d="M920 95v-95h-472v47q-68 -54 -164 -54q-52 0 -98.5 17.5t-81 50.5t-54.5 81.5t-20 110.5v198q0 59 20 106.5t54.5 82t81 53t98.5 18.5q48 0 89.5 -15t74.5 -42v46h472v-94h-378v-202h283v-94h-283v-215h378zM129 507q-2 -11 -4 -36t-2.5 -56.5t-0.5 -66t0.5 -64.5
t2 -52.5t2.5 -30.5q11 -52 46 -83t109 -31q75 0 112 30.5t48 82.5q2 8 3 30.5t1.5 53t0.5 65t-0.5 66t-2 56.5t-4.5 36q-11 50 -46.5 79.5t-109.5 29.5t-109 -29t-46 -80z" />
    <glyph glyph-name="oe" unicode="&#x153;" horiz-adv-x="893" 
d="M634 496q65 0 110.5 -22t73 -61.5t36.5 -85t9 -85.5q0 -20 -2 -40h-367q0 -35 11 -57t30 -34t43 -16.5t51 -4.5q19 0 39 1.5t37 7t30.5 16.5t18.5 30h96q-10 -40 -30.5 -67.5t-49 -44.5t-64 -25t-75.5 -8q-125 0 -183 72q-17 -23 -39 -37t-46 -22t-50 -10.5t-51 -2.5
q-40 0 -81.5 8t-75 34t-54.5 75t-21 132t21 132t54.5 75t75 34t81.5 8q26 0 52.5 -3t51 -11.5t47 -23.5t39.5 -40q29 35 74 55.5t108 20.5zM768 290q-1 12 -5 32.5t-17.5 40t-39.5 33.5t-71 14q-41 0 -68 -12t-43.5 -30t-23 -39t-6.5 -39h274zM262 94q32 0 57.5 4t43 20
t27 47.5t9.5 86.5q0 49 -8 78.5t-24.5 45.5t-42.5 21.5t-62 5.5t-62.5 -5.5t-43 -21.5t-24.5 -45.5t-8 -78.5q0 -55 9.5 -86.5t27.5 -47.5t43.5 -20t57.5 -4z" />
    <glyph glyph-name="Racute" unicode="&#x154;" 
d="M296 751h-102l87 160h103zM538 503q0 -35 -11.5 -66.5t-32 -57t-48 -43.5t-60.5 -26l143 -310h-98l-141 304h-145v-304h-95v702h289q41 0 77.5 -15.5t63.5 -42.5t42.5 -63.5t15.5 -77.5zM339 398q22 0 41 8.5t33 22.5t22 33t8 41t-8 41t-22 33.5t-33 22.5t-41 8h-194
v-210h194z" />
    <glyph glyph-name="racute" unicode="&#x155;" horiz-adv-x="397" 
d="M264 539h-102l88 161h102zM144 0h-94v496h312v-94h-218v-402z" />
    <glyph glyph-name="uni0156" unicode="&#x156;" 
d="M538 503q0 -35 -11.5 -66.5t-32 -57t-48 -43.5t-60.5 -26l143 -310h-98l-141 304h-145v-304h-95v702h289q41 0 77.5 -15.5t63.5 -42.5t42.5 -63.5t15.5 -77.5zM339 398q22 0 41 8.5t33 22.5t22 33t8 41t-8 41t-22 33.5t-33 22.5t-41 8h-194v-210h194zM252 -210h-102
l87 160h103z" />
    <glyph glyph-name="uni0157" unicode="&#x157;" horiz-adv-x="393" 
d="M140 0h-94v496h312v-94h-218v-402zM-50 -210l88 160h102l-88 -160h-102z" />
    <glyph glyph-name="Rcaron" unicode="&#x158;" 
d="M193 739l-87 161h102l36 -66h7l36 66h102l-87 -161h-109zM538 503q0 -35 -11.5 -66.5t-32 -57t-48 -43.5t-60.5 -26l143 -310h-98l-141 304h-145v-304h-95v702h289q41 0 77.5 -15.5t63.5 -42.5t42.5 -63.5t15.5 -77.5zM339 398q22 0 41 8.5t33 22.5t22 33t8 41t-8 41
t-22 33.5t-33 22.5t-41 8h-194v-210h194z" />
    <glyph glyph-name="rcaron" unicode="&#x159;" horiz-adv-x="397" 
d="M152 539l-88 161h102l36 -66h7l37 66h102l-88 -161h-108zM144 0h-94v496h312v-94h-218v-402z" />
    <glyph glyph-name="Sacute" unicode="&#x15a;" horiz-adv-x="566" 
d="M337 751h-102l87 160h102zM151 524q0 -38 29 -58t72.5 -34t94 -27t93 -36t69 -61t26.5 -98v-9q-1 -21 -8 -56t-31.5 -68.5t-71 -58t-126.5 -24.5q-61 0 -111 16.5t-84.5 47.5t-53.5 76t-19 102v14h93q8 -84 50.5 -122.5t114.5 -38.5q26 0 53 4t49 16t36 32.5t14 53.5
q0 49 -28.5 74.5t-71 41t-92.5 26.5t-92.5 31t-71 55t-28.5 98q0 44 16 79t45 59t70 36.5t91 12.5q103 0 166 -53.5t68 -155.5h-93q-11 63 -46 89t-92 26t-93.5 -22.5t-36.5 -67.5z" />
    <glyph glyph-name="sacute" unicode="&#x15b;" horiz-adv-x="453" 
d="M308 539h-102l88 161h102zM141 351q2 -19 23 -30t52.5 -19.5t67.5 -18t67 -26.5t51.5 -44.5t20.5 -71.5q0 -27 -10.5 -53t-33.5 -46.5t-59.5 -33.5t-87.5 -13q-41 0 -76.5 12.5t-62.5 35t-43.5 53t-19.5 66.5h103q3 -15 9.5 -30t19 -27t31.5 -19t46 -7q33 0 51.5 7.5
t27.5 17.5t11 18.5t2 10.5v6q0 28 -19 43.5t-50.5 25t-68.5 16t-69 20.5t-53.5 40t-21.5 72q0 27 9.5 52t30 45t52.5 32t77 12q37 0 71 -9t60 -27.5t41.5 -47t15.5 -66.5h-100q-2 12 -7 23.5t-14.5 20.5t-25 15t-38.5 7h-7q-21 0 -36 -6t-23.5 -16t-11 -19.5t-2.5 -16.5v-4z
" />
    <glyph glyph-name="Scircumflex" unicode="&#x15c;" horiz-adv-x="566" 
d="M138 749l87 161h109l87 -161h-102l-36 66h-7l-36 -66h-102zM151 524q0 -38 29 -58t72.5 -34t94 -27t93 -36t69 -61t26.5 -98v-9q-1 -21 -8 -56t-31.5 -68.5t-71 -58t-126.5 -24.5q-61 0 -111 16.5t-84.5 47.5t-53.5 76t-19 102v14h93q8 -84 50.5 -122.5t114.5 -38.5
q26 0 53 4t49 16t36 32.5t14 53.5q0 49 -28.5 74.5t-71 41t-92.5 26.5t-92.5 31t-71 55t-28.5 98q0 44 16 79t45 59t70 36.5t91 12.5q103 0 166 -53.5t68 -155.5h-93q-11 63 -46 89t-92 26t-93.5 -22.5t-36.5 -67.5z" />
    <glyph glyph-name="scircumflex" unicode="&#x15d;" horiz-adv-x="453" 
d="M184 539h-102l88 161h108l88 -161h-102l-36 66h-8zM141 351q2 -19 23 -30t52.5 -19.5t67.5 -18t67 -26.5t51.5 -44.5t20.5 -71.5q0 -27 -10.5 -53t-33.5 -46.5t-59.5 -33.5t-87.5 -13q-41 0 -76.5 12.5t-62.5 35t-43.5 53t-19.5 66.5h103q3 -15 9.5 -30t19 -27t31.5 -19
t46 -7q33 0 51.5 7.5t27.5 17.5t11 18.5t2 10.5v6q0 28 -19 43.5t-50.5 25t-68.5 16t-69 20.5t-53.5 40t-21.5 72q0 27 9.5 52t30 45t52.5 32t77 12q37 0 71 -9t60 -27.5t41.5 -47t15.5 -66.5h-100q-2 12 -7 23.5t-14.5 20.5t-25 15t-38.5 7h-7q-21 0 -36 -6t-23.5 -16
t-11 -19.5t-2.5 -16.5v-4z" />
    <glyph glyph-name="Scedilla" unicode="&#x15e;" horiz-adv-x="565" 
d="M10 252h93q4 -42 14 -72t29 -50t49 -29.5t73 -9.5q26 0 53 4t49 16t36 32.5t14 53.5q0 49 -28.5 74.5t-71 41t-92.5 26.5t-92.5 31t-71 55t-28.5 98q0 44 16 79t45 59t70 36.5t91 12.5q103 0 166 -53.5t68 -155.5h-93q-6 32 -16 53.5t-26.5 35.5t-40 20t-55.5 6
q-130 0 -130 -90q0 -38 29 -58t72.5 -34t94 -27t93 -36t69 -60.5t26.5 -98.5v-9q-1 -21 -8 -56t-31 -68.5t-69.5 -58t-123.5 -24.5l-12 -35l54 -6q45 -5 74 -31.5t29 -71.5q0 -24 -9.5 -44.5t-26 -36.5t-38 -25t-45.5 -9h-141v91h138q12 0 19 6.5t7.5 11.5t0.5 7
q0 6 -4 12.5t-14 7.5l-139 15l33 114q-93 17 -146 77.5t-53 158.5v14z" />
    <glyph glyph-name="scedilla" unicode="&#x15f;" horiz-adv-x="453" 
d="M141 353q2 -19 23 -29.5t52.5 -19t67.5 -18t67 -27t51.5 -45t20.5 -71.5q0 -25 -9.5 -50t-30 -45t-53 -33.5t-78.5 -16.5l-12 -36l55 -6q44 -5 73 -31.5t29 -71.5q0 -24 -9.5 -44.5t-26 -36.5t-38 -25t-45.5 -9h-141v91h138q12 0 19 6.5t8 12t1 7.5q0 6 -4 12t-15 7
l-139 15l34 114q-62 14 -103 57.5t-46 103.5h103q3 -15 8 -30t16.5 -27t31 -19t50.5 -7q34 0 52.5 7.5t27.5 17.5t10.5 18.5t1.5 10.5v6q0 29 -19 44.5t-50.5 26t-68.5 18t-69 21.5t-53.5 38.5t-21.5 68.5q0 27 9.5 52t30 45t52.5 32t77 12q37 0 71 -9t60 -27.5t41.5 -47
t15.5 -66.5h-100q-2 12 -7 24t-14.5 21t-25 15t-38.5 6q-26 0 -42 -6.5t-24.5 -16.5t-11 -19t-2.5 -16v-4z" />
    <glyph glyph-name="Scaron" unicode="&#x160;" horiz-adv-x="566" 
d="M220 739l-87 161h102l36 -66h7l36 66h102l-87 -161h-109zM151 524q0 -38 29 -58t72.5 -34t94 -27t93 -36t69 -61t26.5 -98v-9q-1 -21 -8 -56t-31.5 -68.5t-71 -58t-126.5 -24.5q-61 0 -111 16.5t-84.5 47.5t-53.5 76t-19 102v14h93q8 -84 50.5 -122.5t114.5 -38.5
q26 0 53 4t49 16t36 32.5t14 53.5q0 49 -28.5 74.5t-71 41t-92.5 26.5t-92.5 31t-71 55t-28.5 98q0 44 16 79t45 59t70 36.5t91 12.5q103 0 166 -53.5t68 -155.5h-93q-11 63 -46 89t-92 26t-93.5 -22.5t-36.5 -67.5z" />
    <glyph glyph-name="scaron" unicode="&#x161;" horiz-adv-x="453" 
d="M159 539l-88 161h102l36 -66h8l36 66h102l-88 -161h-108zM141 351q2 -19 23 -30t52.5 -19.5t67.5 -18t67 -26.5t51.5 -44.5t20.5 -71.5q0 -27 -10.5 -53t-33.5 -46.5t-59.5 -33.5t-87.5 -13q-41 0 -76.5 12.5t-62.5 35t-43.5 53t-19.5 66.5h103q3 -15 9.5 -30t19 -27
t31.5 -19t46 -7q33 0 51.5 7.5t27.5 17.5t11 18.5t2 10.5v6q0 28 -19 43.5t-50.5 25t-68.5 16t-69 20.5t-53.5 40t-21.5 72q0 27 9.5 52t30 45t52.5 32t77 12q37 0 71 -9t60 -27.5t41.5 -47t15.5 -66.5h-100q-2 12 -7 23.5t-14.5 20.5t-25 15t-38.5 7h-7q-21 0 -36 -6
t-23.5 -16t-11 -19.5t-2.5 -16.5v-4z" />
    <glyph glyph-name="uni0162" unicode="&#x162;" horiz-adv-x="583" 
d="M189 -168h138q12 0 19 6.5t8 12t1 7.5q0 6 -4 12t-15 7l-138 15l46 156l1 558h-215v94h523v-94h-214v-606h-35l-12 -35l55 -6q44 -5 73 -31.5t29 -71.5q0 -24 -9.5 -44.5t-26 -36.5t-38 -25t-45.5 -9h-141v91z" />
    <glyph glyph-name="uni0163" unicode="&#x163;" horiz-adv-x="448" 
d="M71 -259v91h138q12 0 19 6.5t8 12t1 7.5q0 6 -4 12t-15 7l-138 15l34 117v393h-84v94h84v204h94v-204h167v-94h-167v-308h205v-94h-228l-11 -35l55 -6q44 -5 73 -31.5t29 -71.5q0 -24 -9.5 -44.5t-26 -36.5t-38 -25t-45.5 -9h-141z" />
    <glyph glyph-name="Tcaron" unicode="&#x164;" horiz-adv-x="583" 
d="M150 900h102l36 -66h7l36 66h102l-87 -161h-109zM30 606v94h523v-94h-214v-606h-94v606h-215z" />
    <glyph glyph-name="tcaron" unicode="&#x165;" horiz-adv-x="443" 
d="M283 750h94v-210h-94v210zM114 496v204h94v-204h167v-94h-167v-308h205v-94h-299v402h-84v94h84z" />
    <glyph glyph-name="Tbar" unicode="&#x166;" horiz-adv-x="583" 
d="M30 700h523v-94h-214v-203h110v-94h-110v-309h-94v309h-111v94h111v203h-215v94z" />
    <glyph glyph-name="tbar" unicode="&#x167;" horiz-adv-x="443" 
d="M114 237h-84v94h84v71h-84v94h84v204h94v-204h167v-94h-167v-71h171v-94h-171v-143h205v-94h-299v237z" />
    <glyph glyph-name="Utilde" unicode="&#x168;" horiz-adv-x="606" 
d="M144 746q-3 25 -3 50q0 4 0.5 20.5t9.5 39t28.5 36.5t53.5 14q36 0 60.5 -13.5t42.5 -29t28.5 -24.5t18.5 -9q4 0 8 2q9 5 9.5 12t0.5 11q0 7 -1.5 16t-4.5 18.5t-4 11.5l93 10q4 -26 4 -51q0 -3 -0.5 -19t-10 -39t-31.5 -37.5t-61 -14.5q-28 0 -49.5 13.5t-38.5 28
t-27 22t-18 7.5q-5 0 -10 -3q-8 -4 -9.5 -11.5t-1.5 -13.5q0 -3 0.5 -9.5t3 -15t3.5 -13.5zM50 0v700h94v-606h318v606h94v-700h-506z" />
    <glyph glyph-name="utilde" unicode="&#x169;" horiz-adv-x="506" 
d="M81 545q-3 25 -3 50q0 4 0.5 20.5t9.5 39t28.5 36.5t53.5 14q36 0 60.5 -13.5t42.5 -29t28.5 -24.5t18.5 -9q4 0 8 2q9 5 9.5 12t0.5 11q0 7 -1.5 16t-4.5 18.5t-4 11.5l93 10q4 -26 4 -51q0 -3 -0.5 -19t-10 -39t-31.5 -37.5t-61 -14.5q-28 0 -49.5 13.5t-38.5 28
t-27 22t-18 7.5q-5 0 -10 -3q-8 -4 -9.5 -11.5t-1.5 -13.5q0 -3 0.5 -9.5t3 -15t3.5 -13.5zM50 0v496h94v-402h218v402h94v-496h-406z" />
    <glyph glyph-name="Umacron" unicode="&#x16a;" horiz-adv-x="606" 
d="M151 844h304v-94h-304v94zM50 0v700h94v-606h318v606h94v-700h-506z" />
    <glyph glyph-name="umacron" unicode="&#x16b;" horiz-adv-x="506" 
d="M96 644h315v-94h-315v94zM50 0v496h94v-402h218v402h94v-496h-406z" />
    <glyph glyph-name="Ubreve" unicode="&#x16c;" horiz-adv-x="606" 
d="M301 823q34 0 51 14.5t17 52.5h74q0 -45 -15 -72.5t-37 -43t-46.5 -20.5t-43.5 -5t-43.5 5t-46.5 20.5t-37 43t-15 72.5h74q0 -38 17 -52.5t51 -14.5zM556 0h-506v700h94v-606h318v606h94v-700z" />
    <glyph glyph-name="ubreve" unicode="&#x16d;" horiz-adv-x="506" 
d="M254 633q34 0 51 14.5t17 52.5h74q0 -45 -15 -72.5t-37 -43t-46.5 -20.5t-43.5 -5t-43.5 5t-46.5 20.5t-37 43t-15 72.5h74q0 -38 17 -52.5t51 -14.5zM50 496h94v-402h218v402h94v-496h-406v496z" />
    <glyph glyph-name="Uring" unicode="&#x16e;" horiz-adv-x="606" 
d="M151 753q0 56 18.5 86t43.5 44t50.5 16.5t39.5 2.5t39.5 -2.5t50.5 -16.5t43.5 -44t18.5 -86q0 -55 -18.5 -85.5t-43.5 -44t-50.5 -16t-39.5 -2.5t-39.5 2.5t-50.5 16t-43.5 44t-18.5 85.5zM303 807q-18 0 -29.5 -1.5t-17.5 -7t-8.5 -16t-2.5 -29.5t2.5 -30t9.5 -16
t18 -6.5t28 -1.5t28 1.5t18 6.5t9.5 16t2.5 30t-2 29.5t-8.5 16t-18 7t-29.5 1.5zM50 0v700h94v-606h318v606h94v-700h-506z" />
    <glyph glyph-name="uring" unicode="&#x16f;" horiz-adv-x="506" 
d="M101 687q0 56 18.5 86t43.5 44t50.5 16.5t39.5 2.5t39.5 -2.5t50.5 -16.5t43.5 -44t18.5 -86q0 -55 -18.5 -85.5t-43.5 -44t-50.5 -16t-39.5 -2.5t-39.5 2.5t-50.5 16t-43.5 44t-18.5 85.5zM253 741q-18 0 -29.5 -1.5t-17.5 -7t-8.5 -16t-2.5 -29.5t2.5 -30t9.5 -16
t18 -6.5t28 -1.5t28 1.5t18 6.5t9.5 16t2.5 30t-2 29.5t-8.5 16t-18 7t-29.5 1.5zM50 0v496h94v-402h218v402h94v-496h-406z" />
    <glyph glyph-name="Uhungarumlaut" unicode="&#x170;" horiz-adv-x="606" 
d="M449 739h-102l88 161h102zM268 739h-103l88 161h102zM50 0v700h94v-606h318v606h94v-700h-506z" />
    <glyph glyph-name="uhungarumlaut" unicode="&#x171;" horiz-adv-x="512" 
d="M384 539h-102l88 161h102zM100 539l88 161h102l-87 -161h-103zM50 496h94v-402h218v402h94v-496h-406v496z" />
    <glyph glyph-name="Uogonek" unicode="&#x172;" horiz-adv-x="606" 
d="M144 700v-606h318v606h94v-700h-33q-4 -5 -16.5 -21.5t-22 -38t-10 -34t-0.5 -13.5q0 -22 16 -39q14 -14 26 -16.5t20 -2.5q9 0 17 2h3v-93q-54 0 -91 16.5t-54 48.5q-12 23 -13 37.5t-1 19.5q0 20 5.5 42.5t17 46.5t25.5 45h-395v700h94z" />
    <glyph glyph-name="uogonek" unicode="&#x173;" horiz-adv-x="506" 
d="M144 94h218v402h94v-496h-34q-4 -5 -16.5 -21.5t-21.5 -38t-9.5 -34t-0.5 -13.5q0 -22 16 -39q14 -14 26 -16.5t20 -2.5q9 0 17 2h3v-93q-54 0 -91 16.5t-54 48.5q-12 23 -13 37.5t-1 19.5q0 20 5.5 42.5t17 46.5t25.5 45h-295v496h94v-402z" />
    <glyph glyph-name="Wcircumflex" unicode="&#x174;" horiz-adv-x="960" 
d="M438 749h-102l88 161h108l88 -161h-103l-36 66h-7zM831 702h99l-154 -702h-175l-116 607h-13l-116 -607h-172l-154 702h99l133 -608h13l116 608h175l116 -608h16z" />
    <glyph glyph-name="wcircumflex" unicode="&#x175;" horiz-adv-x="759" 
d="M340 539h-102l87 161h109l87 -161h-102l-36 66h-7zM307 0h-171l-106 496h98l86 -402h10l66 402h179l66 -402h10l86 402h98l-106 -496h-171l-65 402h-14z" />
    <glyph glyph-name="Ycircumflex" unicode="&#x176;" horiz-adv-x="661" 
d="M292 749h-102l88 161h108l88 -161h-103l-36 66h-7zM525 699h106l-253 -403v-296h-95v296l-253 403h106l192 -299h5z" />
    <glyph glyph-name="ycircumflex" unicode="&#x177;" horiz-adv-x="553" 
d="M230 539h-102l88 161h108l88 -161h-102l-36 66h-8zM130 498v-241q0 -49 8 -80.5t24.5 -49.5t42 -25t59.5 -7q35 0 62 7t45 25t27.5 47.5t9.5 74.5v249h95v-701h-424v95h326v166h-2q-15 -23 -53.5 -40t-86.5 -17q-40 0 -81.5 8t-75.5 34t-55 75.5t-21 131.5v248h100z" />
    <glyph glyph-name="Ydieresis" unicode="&#x178;" horiz-adv-x="661" 
d="M179 845h94v-94h-94v94zM481 751h-95v94h95v-94zM525 699h106l-253 -403v-296h-95v296l-253 403h106l192 -299h5z" />
    <glyph glyph-name="Zacute" unicode="&#x179;" horiz-adv-x="517" 
d="M230 751l88 160h102l-87 -160h-103zM487 700v-73l-329 -529v-4h329v-94h-457v68l329 535v3h-329v94h457z" />
    <glyph glyph-name="zacute" unicode="&#x17a;" horiz-adv-x="421" 
d="M164 539l88 161h102l-88 -161h-102zM177 96h214v-95h-361v50l214 348v4h-214v94h361v-45l-214 -353v-3z" />
    <glyph glyph-name="Zdotaccent" unicode="&#x17b;" horiz-adv-x="517" 
d="M226 846h95v-95h-95v95zM487 700v-73l-329 -529v-4h329v-94h-457v68l329 535v3h-329v94h457z" />
    <glyph glyph-name="zdotaccent" unicode="&#x17c;" horiz-adv-x="421" 
d="M270 550h-94v95h94v-95zM177 96h214v-95h-361v50l214 348v4h-214v94h361v-45l-214 -353v-3z" />
    <glyph glyph-name="Zcaron" unicode="&#x17d;" horiz-adv-x="517" 
d="M148 900h103l36 -66h7l36 66h102l-88 -161h-108zM487 700v-73l-329 -529v-4h329v-94h-457v68l329 535v3h-329v94h457z" />
    <glyph glyph-name="zcaron" unicode="&#x17e;" horiz-adv-x="421" 
d="M171 539l-88 161h102l36 -66h7l36 66h103l-88 -161h-108zM177 96h214v-95h-361v50l214 348v4h-214v94h361v-45l-214 -353v-3z" />
    <glyph glyph-name="florin" unicode="&#x192;" horiz-adv-x="461" 
d="M30 0h84v402h-84v94h84v205h317v-94h-223v-111h167v-94h-166v-496h-179v94z" />
    <glyph glyph-name="AEacute" unicode="&#x1fc;" horiz-adv-x="872" 
d="M517 751h-102l88 160h102zM416 201h-234l-54 -200h-98l187 699h625v-94h-332v-202h237v-95h-237v-214h332v-95h-426v201zM207 296h209v310h-126z" />
    <glyph glyph-name="aeacute" unicode="&#x1fd;" horiz-adv-x="826" 
d="M414 700h103l-88 -161h-102zM783 145q-10 -40 -30.5 -67t-49 -44.5t-64 -25t-76.5 -8.5q-82 0 -136 31v-31h-94v25q-21 -14 -49.5 -20t-54.5 -6q-49 0 -86.5 12.5t-62.5 34.5t-37.5 52.5t-12.5 67.5q0 74 50 120.5t149 46.5q26 0 54 -6t50 -20v95h-260v94h354v-36
q26 17 59.5 26.5t74.5 9.5q67 0 113.5 -22t74.5 -61.5t37.5 -85t9.5 -87.5q0 -18 -2 -38h-367v-9q5 -33 17 -53t29.5 -30t40 -13.5t47.5 -3.5q19 0 38.5 1t36.5 6t30 15.5t18 29.5h99zM697 296q-1 12 -6 30.5t-19 35t-40 28.5t-71 12q-37 0 -62 -9t-40 -23t-22 -31.5
t-10 -34.5v-8h270zM229 94q37 0 57.5 7t31 17t13 22t2.5 21v10q0 9 -2.5 21t-13 22.5t-31 17.5t-57.5 7q-39 0 -60.5 -8t-31.5 -19.5t-11.5 -24t-1.5 -21.5t1.5 -21.5t11.5 -23.5t31.5 -19t60.5 -8z" />
    <glyph glyph-name="Oslashacute" unicode="&#x1fe;" 
d="M292 751h-102l87 160h102zM426 700h102l-45 -82q26 -32 41 -74.5t15 -92.5v-198q0 -62 -20 -110.5t-54.5 -81.5t-81 -50.5t-99.5 -17.5q-71 0 -128 31l-13 -24h-102l44 82q-26 32 -40.5 74.5t-14.5 96.5v198q0 59 20 106.5t54.5 82t81 53t98.5 18.5q36 0 68.5 -8.5
t61.5 -24.5zM284 616q-74 0 -109 -29t-46 -80q-2 -11 -4 -36t-2.5 -56.5t-0.5 -66t0.5 -64.5t2 -52.5t2.5 -30.5q2 -8 4 -15l4 -14l236 428q-32 16 -87 16zM442 201q2 8 3 30.5t1.5 52.5t0.5 64.5t-0.5 66t-2 56.5t-4.5 36q-1 11 -6 22l-235 -427q33 -14 83 -15q75 1 112 31
t48 83z" />
    <glyph glyph-name="oslashacute" unicode="&#x1ff;" horiz-adv-x="550" 
d="M322 539h-102l88 161h102zM87 74q-20 28 -31.5 70.5t-11.5 103.5q0 83 21 132t54.5 74.5t75 33.5t81.5 8q31 0 62.5 -4t60.5 -17l17 21h104l-57 -73q20 -28 32.5 -70.5t12.5 -104.5q0 -83 -21 -132t-54.5 -75t-74.5 -34t-82 -8q-32 0 -64 4t-61 18l-17 -21h-104zM338 397
q-13 3 -28.5 4t-33.5 1q-36 0 -62.5 -5.5t-43 -22t-24.5 -46.5t-8 -80q0 -60 12 -93zM211 99q14 -4 30 -5t35 -1q32 0 57.5 4t43.5 19.5t27.5 46.5t9.5 85q0 63 -13 95z" />
    <glyph glyph-name="uni0218" unicode="&#x218;" horiz-adv-x="566" 
d="M151 525q0 -38 29 -58t72.5 -34t94 -27t93 -36t69 -60.5t26.5 -98.5v-9q-1 -21 -8 -56t-31.5 -68.5t-71 -58t-126.5 -24.5q-61 0 -111 16.5t-84.5 47.5t-53.5 76t-19 102v14h93q8 -84 50.5 -122.5t114.5 -38.5q26 0 53 4t49 16t36 32.5t14 53.5q0 49 -28.5 74.5t-71 41
t-92.5 26.5t-92.5 31t-71 55t-28.5 98q0 44 16 79t45 59t70 36.5t91 12.5q103 0 166 -53.5t68 -155.5h-93q-11 63 -46 89t-92 26t-93.5 -22.5t-36.5 -67.5zM270 -210h-102l87 160h102z" />
    <glyph glyph-name="uni0219" unicode="&#x219;" horiz-adv-x="453" 
d="M141 352q2 -19 23 -30t52.5 -19.5t67.5 -18t67 -26.5t51.5 -44.5t20.5 -71.5q0 -27 -10.5 -53t-33.5 -46.5t-59.5 -33.5t-87.5 -13q-41 0 -76.5 12.5t-62.5 35t-43.5 53t-19.5 66.5h103q3 -15 9.5 -30t19 -27t31.5 -19t46 -7q33 0 51.5 7.5t27.5 17.5t11 18.5t2 10.5v6
q0 28 -19 43.5t-50.5 25t-68.5 16t-69 20.5t-53.5 39.5t-21.5 72.5q0 27 9.5 52t30 45t52.5 32t77 12q37 0 71 -9t60 -27.5t41.5 -47t15.5 -66.5h-100q-2 12 -7 23.5t-14.5 20.5t-25 15t-38.5 7h-7q-21 0 -36 -6t-23.5 -16t-11 -19.5t-2.5 -16.5v-4zM197 -210h-102l88 160
h102z" />
    <glyph glyph-name="uni021A" unicode="&#x21a;" horiz-adv-x="583" 
d="M30 606v94h523v-94h-214v-606h-94v606h-215zM249 -210h-102l87 160h103z" />
    <glyph glyph-name="uni021B" unicode="&#x21b;" horiz-adv-x="448" 
d="M114 700h94v-204h167v-94h-167v-308h205v-94h-299v402h-84v94h84v204zM127 -210l87 160h103l-88 -160h-102z" />
    <glyph glyph-name="uni0237" unicode="&#x237;" horiz-adv-x="283" 
d="M35 -197v94h104v604h94v-698h-198z" />
    <glyph glyph-name="circumflex" unicode="&#x2c6;" horiz-adv-x="354" 
d="M231 700l88 -161h-102l-36 66h-8l-36 -66h-102l88 161h108z" />
    <glyph glyph-name="caron" unicode="&#x2c7;" horiz-adv-x="354" 
d="M217 700h102l-88 -161h-108l-88 161h102l36 -66h8z" />
    <glyph glyph-name="uni02C9" unicode="&#x2c9;" horiz-adv-x="374" 
d="M35 700h304v-94h-304v94z" />
    <glyph glyph-name="breve" unicode="&#x2d8;" horiz-adv-x="374" 
d="M187 634q34 0 46 13.5t12 52.5h94q0 -55 -18.5 -87t-43.5 -48.5t-50.5 -20.5t-39.5 -4t-39.5 4t-50.5 20.5t-43.5 48.5t-18.5 87h94q0 -39 12 -52.5t46 -13.5z" />
    <glyph glyph-name="dotaccent" unicode="&#x2d9;" horiz-adv-x="165" 
d="M35 645h95v-95h-95v95z" />
    <glyph glyph-name="ring" unicode="&#x2da;" horiz-adv-x="374" 
d="M187 836q14 0 39.5 -2.5t50.5 -16.5t43.5 -44t18.5 -86q0 -55 -18.5 -85.5t-43.5 -44t-50.5 -16t-39.5 -2.5t-39.5 2.5t-50.5 16t-43.5 44t-18.5 85.5q0 56 18.5 86t43.5 44t50.5 16.5t39.5 2.5zM187 633q17 0 28 1.5t18 6.5t9.5 16t2.5 30t-2.5 29.5t-8.5 16t-17.5 7
t-29.5 1.5t-29.5 -1.5t-17.5 -7t-8.5 -16t-2.5 -29.5t2.5 -30t9.5 -16t18 -6.5t28 -1.5z" />
    <glyph glyph-name="ogonek" unicode="&#x2db;" horiz-adv-x="230" 
d="M128 -146q14 -14 26 -16.5t20 -2.5q9 0 17 2h3v-93q-54 0 -91 16.5t-54 48.5q-14 26 -14 55q0 3 1 20t12 47.5t29 59t35 50.5l50 -39q-1 -1 -7.5 -8.5t-14 -20t-15 -27.5t-10.5 -28t-3 -22q0 -7 2 -18t14 -24z" />
    <glyph glyph-name="tilde" unicode="&#x2dc;" horiz-adv-x="418" 
d="M379 709q4 -28 4 -57t-10 -52t-31.5 -37.5t-61.5 -14.5q-27 0 -50.5 12.5t-43 26t-31 20.5t-18.5 7q-4 0 -8 -2q-5 -3 -5.5 -8t-0.5 -6q0 -7 2 -15t4.5 -16t3.5 -13l-94 -10q-3 26 -3 50q0 4 0.5 20.5t10 39.5t31 37t58.5 14q33 0 56 -13.5t40.5 -28t28.5 -23t19 -8.5
q5 0 9 2q8 5 8 15.5t-2 21.5q-3 13 -9 28z" />
    <glyph glyph-name="hungarumlaut" unicode="&#x2dd;" horiz-adv-x="442" 
d="M217 539l88 161h102l-88 -161h-102zM35 539l88 161h102l-88 -161h-102z" />
    <glyph glyph-name="gravecomb" unicode="&#x300;" horiz-adv-x="260" 
d="M137 911l88 -161h-102l-88 161h102z" />
    <glyph glyph-name="acutecomb" unicode="&#x301;" horiz-adv-x="260" 
d="M225 911l-88 -161h-102l88 161h102z" />
    <glyph glyph-name="uni0302" unicode="&#x302;" horiz-adv-x="354" 
d="M217 700h102l-88 -161h-108l-88 161h102l36 -66h8z" />
    <glyph glyph-name="tildecomb" unicode="&#x303;" horiz-adv-x="418" 
d="M379 911q4 -28 4 -57t-10 -52t-31.5 -37.5t-61.5 -14.5q-27 0 -50.5 12.5t-43 26t-31 20.5t-18.5 7q-4 0 -8 -2q-5 -3 -5.5 -8t-0.5 -6q0 -7 2 -15t4.5 -16t3.5 -13l-94 -10q-3 26 -3 50q0 4 0.5 20.5t10 39.5t31 37t58.5 14q33 0 56 -13.5t40.5 -28t28.5 -23t19 -8.5
q5 0 9 2q8 5 8 15.5t-2 21.5q-3 13 -9 28z" />
    <glyph glyph-name="uni0304" unicode="&#x304;" horiz-adv-x="374" 
d="M35 700h304v-94h-304v94z" />
    <glyph glyph-name="uni0306" unicode="&#x306;" horiz-adv-x="374" 
d="M187 634q34 0 46 13.5t12 52.5h94q0 -55 -18.5 -87t-43.5 -48.5t-50.5 -20.5t-39.5 -4t-39.5 4t-50.5 20.5t-43.5 48.5t-18.5 87h94q0 -39 12 -52.5t46 -13.5z" />
    <glyph glyph-name="uni0307" unicode="&#x307;" horiz-adv-x="165" 
d="M35 846h95v-95h-95v95z" />
    <glyph glyph-name="uni0308" unicode="&#x308;" horiz-adv-x="372" 
d="M35 751v94h95v-94h-95zM243 751v94h94v-94h-94z" />
    <glyph glyph-name="uni030A" unicode="&#x30a;" horiz-adv-x="374" 
d="M187 836q14 0 39.5 -2.5t50.5 -16.5t43.5 -44t18.5 -86q0 -55 -18.5 -85.5t-43.5 -44t-50.5 -16t-39.5 -2.5t-39.5 2.5t-50.5 16t-43.5 44t-18.5 85.5q0 56 18.5 86t43.5 44t50.5 16.5t39.5 2.5zM187 633q17 0 28 1.5t18 6.5t9.5 16t2.5 30t-2.5 29.5t-8.5 16t-17.5 7
t-29.5 1.5t-29.5 -1.5t-17.5 -7t-8.5 -16t-2.5 -29.5t2.5 -30t9.5 -16t18 -6.5t28 -1.5z" />
    <glyph glyph-name="uni030B" unicode="&#x30b;" horiz-adv-x="442" 
d="M217 750l88 161h102l-88 -161h-102zM35 750l88 161h102l-88 -161h-102z" />
    <glyph glyph-name="uni030C" unicode="&#x30c;" horiz-adv-x="354" 
d="M217 700h102l-88 -161h-108l-88 161h102l36 -66h8z" />
    <glyph glyph-name="uni0326" unicode="&#x326;" horiz-adv-x="260" 
d="M123 -50h102l-88 -160h-102z" />
    <glyph glyph-name="uni0327" unicode="&#x327;" horiz-adv-x="338" 
d="M197 -43q44 -5 73 -32t29 -72q0 -24 -9.5 -44.5t-26 -36t-38 -24.5t-45.5 -9h-141v90h138q12 0 19 6.5t8 12t1 7.5q0 6 -4 12t-15 7l-138 16l46 156h1l59 -46l-12 -37z" />
    <glyph glyph-name="uni0394" unicode="&#x394;" horiz-adv-x="631" 
d="M30 0l187 700h195l189 -700h-571zM290 606l-137 -513h325l-139 513h-49z" />
    <glyph glyph-name="uni03A9" unicode="&#x3a9;" horiz-adv-x="691" 
d="M433 93q3 1 14.5 7.5t24.5 19.5t23.5 32.5t10.5 47.5v1q0 8 0.5 31t1 53.5t1 65t0.5 66t-1 56.5t-4 36q-11 50 -47.5 79.5t-110.5 29.5t-110.5 -28.5t-47.5 -79.5q-2 -11 -3.5 -36t-1.5 -57t0.5 -66.5t1 -65.5t1 -53.5t0.5 -30.5v-1q0 -27 9.5 -47t21 -33t22 -19.5
t13.5 -7.5v-93h-222v92h111v6q-23 32 -36 71t-13 84v198q0 59 20 106.5t54.5 82t81 53t98.5 18.5q53 0 99.5 -18.5t81 -53t54.5 -82t20 -106.5v-198q0 -47 -9.5 -86.5t-35.5 -69.5v-5h105v-92h-228v93z" />
    <glyph glyph-name="uni03BC" unicode="&#x3bc;" horiz-adv-x="573" 
d="M145 496v-249q0 -45 9.5 -74.5t28 -47.5t45.5 -25t62 -7q34 0 59 7t41.5 25t24.5 49.5t8 80.5v241h100v-496h-80l-10 56h-2q-6 -12 -20 -22.5t-32.5 -18.5t-39 -12.5t-40.5 -4.5q-56 0 -95 17.5t-54 40.5h-2v-261h-98v701h95z" />
    <glyph glyph-name="pi" unicode="&#x3c0;" horiz-adv-x="630" 
d="M411 402h-192v-1h-1v-401h-94v401h-94v95h570v-95h-94v-306h94v-95h-189v402z" />
    <glyph glyph-name="uni0400" unicode="&#x400;" horiz-adv-x="557" 
d="M251 750l-88 161h103l87 -161h-102zM522 0h-472v700h472v-94h-378v-202h283v-94h-283v-215h378v-95z" />
    <glyph glyph-name="uni0401" unicode="&#x401;" horiz-adv-x="557" 
d="M437 750h-94v95h94v-95zM135 845h95v-95h-95v95zM144 404h283v-94h-283v-215h378v-95h-472v700h472v-94h-378v-202z" />
    <glyph glyph-name="uni0402" unicode="&#x402;" horiz-adv-x="764" 
d="M534 397q41 0 77.5 -15.5t63.5 -42.5t43 -63.5t16 -77.5t-16 -77.5t-43 -63.5t-63.5 -42.5t-77.5 -15.5h-99v94h99q22 0 41 8.5t33.5 22.5t22.5 33t8 41t-8 41t-22.5 33.5t-33.5 22.5t-41 8h-194v-304h-94v608h-216v94h526v-94h-216v-210h194z" />
    <glyph glyph-name="uni0403" unicode="&#x403;" horiz-adv-x="495" 
d="M193 750l87 161h102l-87 -161h-102zM144 0h-94v700h415v-94h-321v-606z" />
    <glyph glyph-name="uni0404" unicode="&#x404;" 
d="M285 708q54 0 99 -16t78.5 -46.5t53.5 -75t23 -101.5h-94q-6 70 -45.5 107t-117.5 37q-55 0 -86.5 -18t-48 -47.5t-21 -68t-4.5 -80.5h273v-93h-273q0 -45 3.5 -84t19.5 -68t48.5 -46t90.5 -17q43 0 73 10t49 30t28 49.5t11 68.5h94q0 -57 -20.5 -103.5t-55.5 -80
t-81 -51.5t-98 -18t-98.5 18.5t-81 53t-54.5 82.5t-20 106v192q0 62 19 110.5t52.5 81.5t80.5 50.5t103 17.5z" />
    <glyph glyph-name="uni0405" unicode="&#x405;" horiz-adv-x="566" 
d="M151 524q0 -38 29 -58t72.5 -34t94 -27t93 -36t69 -61t26.5 -98v-9q-1 -21 -8 -56t-31.5 -68.5t-71 -58t-126.5 -24.5q-61 0 -111 16.5t-84.5 47.5t-53.5 76t-19 102v14h93q8 -84 50.5 -122.5t114.5 -38.5q26 0 53 4t49 16t36 32.5t14 53.5q0 49 -28.5 74.5t-71 41
t-92.5 26.5t-92.5 31t-71 55t-28.5 98q0 44 16 79t45 59t70 36.5t91 12.5q103 0 166 -53.5t68 -155.5h-93q-11 63 -46 89t-92 26t-93.5 -22.5t-36.5 -67.5z" />
    <glyph glyph-name="uni0406" unicode="&#x406;" horiz-adv-x="194" 
d="M50 700h94v-700h-94v700z" />
    <glyph glyph-name="uni0407" unicode="&#x407;" horiz-adv-x="182" 
d="M242 750h-94v95h94v-95zM35 750h-95v95h95v-95zM138 0h-94v700h94v-700z" />
    <glyph glyph-name="uni0408" unicode="&#x408;" horiz-adv-x="563" 
d="M419 701h94v-469q0 -50 -19 -94t-51.5 -76.5t-76.5 -51.5t-94 -19q-49 0 -92 18t-75.5 49t-52 73t-21.5 91l-1 26h95l1 -22q1 -30 13 -55.5t31.5 -44t45.5 -29.5t56 -11t57 11.5t47 31t31.5 46.5t11.5 57v469z" />
    <glyph glyph-name="uni0409" unicode="&#x409;" horiz-adv-x="933" 
d="M703 399q41 0 77.5 -16t63.5 -43t42.5 -63.5t15.5 -77.5t-15.5 -77t-42.5 -63t-63.5 -43t-77.5 -16h-258v605h-213v-339q0 -46 -3 -94.5t-21 -90.5t-57.5 -71t-111.5 -36l-9 95q37 3 58.5 14.5t32.5 34t13.5 59t2.5 89.5v433h402v-300h164zM703 95q22 0 41 8t33.5 22.5
t22.5 33.5t8 40q0 22 -8 41t-22.5 33.5t-33.5 22.5t-41 8h-164v-209h164z" />
    <glyph glyph-name="uni040A" unicode="&#x40a;" horiz-adv-x="920" 
d="M527 403h164q41 0 77.5 -16t63.5 -43t42.5 -63.5t15.5 -77.5t-15.5 -78t-42.5 -64.5t-63.5 -44t-77.5 -16.5h-260l1 309h-288v-309h-94v700h94v-297h288v297h95v-297zM691 96q22 0 41 8.5t33.5 23.5t22.5 34.5t8 40.5q0 22 -8 41t-22.5 33.5t-33.5 23t-41 8.5h-164v-213
h164z" />
    <glyph glyph-name="uni040B" unicode="&#x40b;" horiz-adv-x="770" 
d="M531 396q41 0 77.5 -15.5t63.5 -42.5t42.5 -63t15.5 -77v-198h-94v198q0 21 -8 40t-22.5 33.5t-33.5 22.5t-41 8h-193v-303h-94v607h-214v94h523v-94h-215v-210h193z" />
    <glyph glyph-name="uni040C" unicode="&#x40c;" horiz-adv-x="572" 
d="M246 750l88 161h102l-88 -161h-102zM144 403h4l264 297h120l-262 -294v-3h244v-403h-94v309h-276v-309h-94v700h94v-297z" />
    <glyph glyph-name="uni040D" unicode="&#x40d;" horiz-adv-x="599" 
d="M253 750l-87 161h102l88 -161h-103zM50 0v700h94v-606h25l194 606h186v-700h-94v607h-24l-195 -607h-186z" />
    <glyph glyph-name="uni040E" unicode="&#x40e;" horiz-adv-x="591" 
d="M286 823q34 0 51 14.5t17 52.5h74q0 -45 -15 -72.5t-37 -43t-46.5 -20.5t-43.5 -5t-43.5 5t-46.5 20.5t-37 43t-15 72.5h74q0 -38 17 -52.5t51 -14.5zM447 701h94v-701h-466v94h372v267h-7q-27 -32 -66.5 -45t-88.5 -13q-54 0 -101 20t-81 55t-53.5 81.5t-19.5 98.5v143
h94v-143q0 -33 12.5 -62.5t34.5 -51t51.5 -34.5t62.5 -13q37 0 67 13t51 34.5t32.5 51t11.5 62.5v143z" />
    <glyph glyph-name="uni040F" unicode="&#x40f;" horiz-adv-x="615" 
d="M471 700h94v-700h-211v-67h-94v67h-210v700h94v-606h327v606z" />
    <glyph glyph-name="uni0410" unicode="&#x410;" horiz-adv-x="629" 
d="M412 699l187 -699h-98l-54 202h-265l-54 -202h-98l187 699h195zM421 296l-82 309h-49l-83 -309h214z" />
    <glyph glyph-name="uni0411" unicode="&#x411;" horiz-adv-x="568" 
d="M339 399q41 0 77.5 -15.5t63.5 -42.5t42.5 -63.5t15.5 -77.5t-15.5 -77.5t-42.5 -63.5t-63.5 -42.5t-77.5 -15.5h-289v700h453v-95h-358v-207h194zM339 95q22 0 41 8.5t33 22.5t22 33t8 41t-8 41t-22 33.5t-33 22.5t-41 8h-194v-210h194z" />
    <glyph glyph-name="uni0412" unicode="&#x412;" horiz-adv-x="567" 
d="M349 352q35 0 68.5 -9t60 -28.5t43 -49t16.5 -71.5q0 -40 -15.5 -75t-42 -61.5t-62.5 -42t-78 -15.5h-289v700h236q42 0 78 -15.5t62.5 -42t41.5 -62.5t15 -77q0 -64 -35.5 -103.5t-98.5 -39.5h-1v-8h1zM286 396q22 0 41 8.5t33 22.5t22 33t8 41q0 21 -8 40.5t-22 33.5
t-33 22.5t-41 8.5h-141v-210h141zM345 95q21 0 40 8t33 22.5t22 33.5t8 40q0 22 -8 41t-22.5 33.5t-33.5 22.5t-41 8h-198v-209h200z" />
    <glyph glyph-name="uni0413" unicode="&#x413;" horiz-adv-x="495" 
d="M465 700v-94h-321v-606h-94v700h415z" />
    <glyph glyph-name="uni0414" unicode="&#x414;" horiz-adv-x="679" 
d="M648 94v-160h-95v66h-428v-66h-95v160h109v606h400v-606h109zM445 606h-212v-512h212v512z" />
    <glyph glyph-name="uni0415" unicode="&#x415;" horiz-adv-x="558" 
d="M522 699v-94h-378v-202h283v-94h-283v-215h378v-94h-472v699h472z" />
    <glyph glyph-name="uni0416" unicode="&#x416;" horiz-adv-x="835" 
d="M587 407v-4h189v-403h-94v309h-218v-309h-94v309h-217v-309h-94v403h190v4l-209 293h121l209 -293v293h94v-296l210 296h121z" />
    <glyph glyph-name="uni0417" unicode="&#x417;" 
d="M319 399q41 0 77.5 -16t63.5 -43t43 -63.5t16 -77.5t-16 -77.5t-43 -63.5t-63.5 -42.5t-77.5 -15.5h-288v95h288q22 0 41 8t33.5 22t22.5 33t8 41t-8 41t-22.5 33.5t-33.5 22.5t-41 8h-289v79l305 222h-305v95h453v-95l-277 -201v-5h113z" />
    <glyph glyph-name="uni0418" unicode="&#x418;" horiz-adv-x="599" 
d="M549 700v-700h-94v607h-24l-195 -607h-186v700h94v-606h25l194 606h186z" />
    <glyph glyph-name="uni0419" unicode="&#x419;" horiz-adv-x="599" 
d="M300 823q34 0 51 14.5t17 52.5h74q0 -45 -15 -72.5t-37 -43t-46.5 -20.5t-43.5 -5t-43.5 5t-46.5 20.5t-37 43t-15 72.5h74q0 -38 17 -52.5t51 -14.5zM144 700v-606h25l194 606h186v-700h-94v607h-24l-195 -607h-186v700h94z" />
    <glyph glyph-name="uni041A" unicode="&#x41a;" horiz-adv-x="572" 
d="M270 406v-3h244v-403h-94v309h-276v-309h-94v700h94v-297h4l264 297h120z" />
    <glyph glyph-name="uni041B" unicode="&#x41b;" horiz-adv-x="643" 
d="M593 701v-702h-95v607h-266v-338q0 -46 -3 -94.5t-21 -90.5t-57 -71t-112 -36l-9 94q37 3 58.5 14.5t32 34.5t13.5 59.5t3 89.5v433h456z" />
    <glyph glyph-name="uni041C" unicode="&#x41c;" horiz-adv-x="790" 
d="M740 699v-699h-95v605h-12l-160 -605h-159l-156 605h-13v-605h-95v699h182l156 -604h11l160 604h181z" />
    <glyph glyph-name="uni041D" unicode="&#x41d;" horiz-adv-x="578" 
d="M434 699h94v-699h-94v309h-290v-309h-94v699h94v-296h290v296z" />
    <glyph glyph-name="uni041E" unicode="&#x41e;" 
d="M284 715q53 0 99 -18.5t81 -53t55 -82t20 -106.5v-198q0 -62 -20 -110.5t-55 -81.5t-81 -50.5t-99 -17.5q-52 0 -98.5 17.5t-81 50.5t-54.5 81.5t-20 110.5v198q0 59 20 106.5t54.5 82t81 53t98.5 18.5zM442 204q2 8 3 30.5t1.5 53t0.5 65t-0.5 66t-2 56.5t-4.5 36
q-11 50 -46.5 79.5t-109.5 29.5t-109 -29t-46 -80q-2 -11 -4 -36t-2.5 -56.5t-0.5 -66t0.5 -64.5t2 -52.5t2.5 -30.5v-1q11 -52 46 -82t109 -30q75 0 112 30t48 82z" />
    <glyph glyph-name="uni041F" unicode="&#x41f;" horiz-adv-x="599" 
d="M548 700v-700h-94v606h-310v-606h-94v700h498z" />
    <glyph glyph-name="uni0420" unicode="&#x420;" horiz-adv-x="568" 
d="M339 700q41 0 77.5 -16t63.5 -43t42.5 -63.5t15.5 -77.5t-15.5 -77.5t-42.5 -63.5t-63.5 -42.5t-77.5 -15.5h-194v-301h-95v700h289zM339 396q22 0 41 8t33 22.5t22 33.5t8 40q0 22 -8 41t-22 33.5t-33 22.5t-41 8h-194v-209h194z" />
    <glyph glyph-name="uni0421" unicode="&#x421;" 
d="M285 715q54 0 99 -16t78.5 -46.5t53.5 -75t23 -101.5h-94q-6 70 -45.5 107t-117.5 37q-37 0 -64 -9.5t-45.5 -26t-29.5 -38.5t-16 -48v-1q-2 -12 -3.5 -52t-1.5 -87.5t1.5 -90.5t5.5 -60q11 -51 46 -80t109 -29q43 0 73 10t49 30t28 49.5t11 68.5h94q0 -57 -20.5 -103.5
t-55.5 -80t-81 -51.5t-98 -18t-98.5 18.5t-81 53t-54.5 82.5t-20 106v192q0 62 19 110.5t52.5 81.5t80.5 50.5t103 17.5z" />
    <glyph glyph-name="uni0422" unicode="&#x422;" horiz-adv-x="583" 
d="M30 700h523v-94h-214v-606h-94v606h-215v94z" />
    <glyph glyph-name="uni0423" unicode="&#x423;" horiz-adv-x="591" 
d="M447 701h94v-701h-466v94h372v267h-7q-27 -32 -66.5 -45t-88.5 -13q-54 0 -101 20t-81 55t-53.5 81.5t-19.5 99.5v142h94v-142q0 -33 12.5 -62.5t34.5 -51.5t51.5 -35t62.5 -13q37 0 67 13t51 35t32.5 51.5t11.5 62.5v142z" />
    <glyph glyph-name="uni0424" unicode="&#x424;" horiz-adv-x="751" 
d="M423 700q62 0 116.5 -14t95 -45t63.5 -80t23 -119v-182q0 -72 -22.5 -121.5t-62.5 -79.5t-94.5 -43.5t-118.5 -13.5v-67h-94v65q-64 0 -118.5 14.5t-94.5 45.5t-63 80.5t-23 119.5v182q0 70 23 119t63.5 80t95 45t117.5 14v66h94v-66zM329 606q-35 0 -67.5 -1.5
t-59 -11.5t-46 -32t-28.5 -63q-2 -11 -3.5 -35t-2.5 -48.5t-1 -45.5q0 -11 0.5 -32.5t1 -50t1.5 -49.5t3 -29q9 -42 28 -65t46 -33.5t59.5 -12t68.5 -1.5v510zM625 208q2 8 3 29t1.5 49.5t0.5 61t-0.5 62t-2.5 53.5t-4 35q-9 41 -28.5 63t-46 32t-58.5 11.5t-67 1.5v-510
q35 0 67.5 2t59.5 12.5t46.5 33.5t27.5 64h1z" />
    <glyph glyph-name="uni0425" unicode="&#x425;" horiz-adv-x="587" 
d="M347 352v-2l210 -350h-106l-155 262h-3l-157 -262h-106l210 351v2l-207 347h106l154 -260h3l153 260h106z" />
    <glyph glyph-name="uni0426" unicode="&#x426;" horiz-adv-x="703" 
d="M673 94v-161h-95v67h-528v700h94v-606h326v606h94v-606h109z" />
    <glyph glyph-name="uni0427" unicode="&#x427;" horiz-adv-x="591" 
d="M447 701h94v-701h-94v358h-7q-26 -30 -63.5 -42.5t-91.5 -12.5q-55 0 -101.5 19.5t-80.5 54t-53.5 80.5t-19.5 99v145h94v-145q0 -33 13 -62.5t34.5 -51.5t51 -35t62.5 -13q35 0 65 12.5t51.5 34.5t33.5 51.5t12 63.5v145z" />
    <glyph glyph-name="uni0428" unicode="&#x428;" horiz-adv-x="729" 
d="M585 700h94v-700h-629v700h94v-606h171v606h94v-606h176v606z" />
    <glyph glyph-name="uni0429" unicode="&#x429;" horiz-adv-x="817" 
d="M787 94v-160h-95v65h-642v700h94v-605h171v605h94v-605h175v605h94v-605h109z" />
    <glyph glyph-name="uni042A" unicode="&#x42a;" horiz-adv-x="650" 
d="M421 396q41 0 77 -15.5t63 -42.5t42.5 -63t15.5 -77t-15.5 -77t-42.5 -63t-63 -42.5t-77 -15.5l-287 1v607h-104v93h198v-305h193zM421 94q22 0 41 8t33 22.5t22 33.5t8 40q0 44 -30 74t-74 30h-193v-208h193z" />
    <glyph glyph-name="uni042B" unicode="&#x42b;" horiz-adv-x="745" 
d="M601 701h94v-701h-94v701zM318 396q41 0 77 -15.5t63 -42.5t42.5 -63t15.5 -77t-15.5 -77t-42.5 -63t-63 -42.5t-77 -15.5h-268v701h94v-305h174zM318 94q22 0 41 8t33 22.5t22 33.5t8 40t-8 40t-22 33.5t-33 22.5t-41 8h-174v-208h174z" />
    <glyph glyph-name="uni042C" unicode="&#x42c;" horiz-adv-x="565" 
d="M337 397q41 0 77 -15.5t63 -42.5t42.5 -63t15.5 -77t-15.5 -77t-42.5 -63t-63 -42.5t-77 -15.5h-287v698h94v-302h193zM337 95q22 0 41 8t33 22.5t22 33.5t8 40q0 44 -30 74t-74 30h-193v-208h193z" />
    <glyph glyph-name="uni042D" unicode="&#x42d;" 
d="M284 707q56 0 103 -17.5t81 -50.5t52.5 -81.5t18.5 -110.5v-192q0 -58 -20 -106t-54.5 -82.5t-80.5 -53t-99 -18.5q-52 0 -98 18t-81 51.5t-55.5 80t-20.5 103.5h94q2 -39 11 -68.5t28 -49.5t49 -30t73 -10q58 0 90.5 18t48.5 48t19.5 68.5t3.5 78.5h-270v93h270
q0 38 -3 76.5t-18 69.5t-47.5 50.5t-91.5 19.5q-78 0 -117.5 -37t-45.5 -107h-94q3 57 23 101.5t53.5 75t78.5 46.5t99 16z" />
    <glyph glyph-name="uni042E" unicode="&#x42e;" horiz-adv-x="766" 
d="M484 705q53 0 98.5 -18.5t80 -52.5t54 -82t19.5 -106v-196q0 -61 -19.5 -109.5t-54 -81.5t-80 -50.5t-98.5 -17.5q-52 0 -98.5 17.5t-80.5 50.5t-54 81.5t-20 109.5v51h-87v-301h-94v698h94v-303h87v51q0 58 20 106t54 82t80.5 52.5t98.5 18.5zM640 198q2 8 3 30.5
t1.5 52.5t1 52.5t0.5 33.5q0 23 -1 49t-2 50.5t-4 35.5q-10 51 -45.5 80t-109.5 29t-110 -29t-46 -80q-2 -11 -3.5 -35.5t-2.5 -50.5t-1 -49q0 -11 0.5 -33.5t1 -52.5t1.5 -52.5t3 -30.5q11 -52 46 -82.5t109 -30.5q75 0 111 30t47 83z" />
    <glyph glyph-name="uni042F" unicode="&#x42f;" horiz-adv-x="565" 
d="M30 503q0 41 15.5 77t42.5 63t63 42.5t77 15.5h287v-701h-94v305h-144l-143 -305h-98l146 310q-33 8 -60.5 26t-48 43.5t-32 57t-11.5 66.5zM421 607h-193q-21 0 -40 -8t-33.5 -22.5t-22.5 -33.5t-8 -40q0 -22 8 -41t22.5 -33t33.5 -22t40 -8h193v208z" />
    <glyph glyph-name="uni0430" unicode="&#x430;" horiz-adv-x="541" 
d="M350 316v85h-270v95h364v-402h67v-94h-148l-10 53h-3q-12 -22 -48 -38t-90 -16q-88 0 -135 46.5t-47 118.5q0 75 56 113.5t150 38.5h114zM350 231h-100q-32 0 -55 -7t-37.5 -17.5t-21 -24t-6.5 -26.5q0 -18 8 -31.5t21.5 -22.5t30.5 -13.5t36 -4.5q22 0 44 6t40 18.5
t29 30.5t11 42v50z" />
    <glyph glyph-name="uni0431" unicode="&#x431;" horiz-adv-x="543" 
d="M282 492q41 0 82 -8t74 -33.5t54 -74.5t21 -132q0 -82 -21 -131.5t-54 -75.5t-74 -34t-82 -8h-9q-73 0 -117.5 22.5t-67.5 57.5t-30.5 76.5t-7.5 80.5v234q0 65 16.5 108.5t48.5 70t78.5 37.5t105.5 11h195v-94h-195q-49 0 -79 -6t-47 -23t-23 -46t-6 -76
q20 16 42.5 24.5t43 13t35 5.5t17.5 1zM282 85q32 0 57.5 4.5t43 21t27 48t9.5 85.5q0 50 -8 80t-24.5 46.5t-42.5 22t-62 5.5t-62.5 -5.5t-43 -22t-24.5 -46.5t-8 -80q0 -54 9.5 -85.5t27.5 -48t43.5 -21t57.5 -4.5z" />
    <glyph glyph-name="uni0432" unicode="&#x432;" horiz-adv-x="453" 
d="M286 249q82 0 109 -36.5t27 -78.5q0 -19 -4 -40t-17.5 -38.5t-32.5 -29.5t-41.5 -19t-43.5 -7h-233v497h93q56 0 101.5 -2.5t78 -15.5t50 -41.5t17.5 -81.5q0 -24 -9 -42t-24.5 -30.5t-35.5 -19t-42 -6.5v-9h7zM145 295h100q23 0 39 15.5t16 38.5t-16 39t-39 16h-100
v-109zM283 94q23 0 38.5 15.5t15.5 38.5t-15.5 39t-38.5 16h-139v-109h139z" />
    <glyph glyph-name="uni0433" unicode="&#x433;" horiz-adv-x="430" 
d="M400 496v-94h-256v-402h-94v496h350z" />
    <glyph glyph-name="uni0434" unicode="&#x434;" horiz-adv-x="553" 
d="M503 -206h-422v95h328v163h-2q-15 -23 -55.5 -38t-88.5 -15q-40 0 -81.5 8t-75.5 34t-55 75.5t-21 131.5q0 83 21.5 132t55 75t75 33.5t81.5 7.5q51 0 91 -15t56 -40h3v55h90v-702zM267 94q39 0 66 6.5t44.5 23t25.5 46.5t8 76q0 52 -9.5 83t-27.5 47.5t-43.5 21.5
t-57.5 5t-57.5 -4t-43.5 -19.5t-27.5 -47t-9.5 -86.5q0 -49 8 -78.5t24 -46t41 -22t59 -5.5z" />
    <glyph glyph-name="uni0435" unicode="&#x435;" horiz-adv-x="524" 
d="M265 496q65 0 110.5 -22t73 -61.5t36.5 -85t9 -85.5q0 -20 -2 -40h-367q0 -35 11 -57t30 -34t43 -16.5t51 -4.5q19 0 39 1.5t37 7t30.5 16.5t18.5 30h96q-10 -40 -30.5 -67.5t-49 -44.5t-64 -25t-75.5 -8q-121 0 -176.5 63t-55.5 185q0 54 14.5 99.5t43.5 78.5t73 51.5
t104 18.5zM399 290q-1 12 -5 32.5t-17.5 40t-39.5 33.5t-71 14q-41 0 -68 -12t-43.5 -30t-23 -39t-6.5 -39h274z" />
    <glyph glyph-name="uni0436" unicode="&#x436;" horiz-adv-x="713" 
d="M527 300v-3h143v-297h-94v203h-172v-203h-94v203h-172v-203h-94v297h143v3l-147 196h121l149 -199v199h94v-198l149 198h120z" />
    <glyph glyph-name="uni0437" unicode="&#x437;" horiz-adv-x="472" 
d="M294 298q31 0 58 -11.5t47 -32t31.5 -47.5t11.5 -58q0 -30 -11.5 -57t-31.5 -47.5t-47 -32t-58 -11.5h-264v94h264q23 0 38.5 16t15.5 38q0 23 -15.5 39t-38.5 16h-233v70l162 126v4h-193v94h349v-82l-143 -114v-4h58z" />
    <glyph glyph-name="uni0438" unicode="&#x438;" horiz-adv-x="563" 
d="M513 496v-496h-80l-10 56h-2q-15 -23 -55.5 -40t-88.5 -17q-40 0 -82.5 8t-76.5 34t-56 75.5t-22 131.5v248h100v-241q0 -49 8 -80.5t24.5 -49.5t42 -25t59.5 -7q35 0 62 7t45 25t27.5 47.5t9.5 74.5v249h95z" />
    <glyph glyph-name="uni0439" unicode="&#x439;" horiz-adv-x="563" 
d="M278 632q34 0 51 14.5t17 52.5h74q0 -45 -15 -72.5t-37 -43t-46.5 -20.5t-43.5 -5t-43.5 5t-46.5 20.5t-37 43t-15 72.5h74q0 -38 17 -52.5t51 -14.5zM513 497v-496h-80l-10 56h-2q-15 -23 -55.5 -40t-88.5 -17q-40 0 -82.5 8t-76.5 34t-56 75.5t-22 131.5v248h100v-241
q0 -49 8 -80.5t24.5 -49.5t42 -25t59.5 -7q35 0 62 7t45 25t27.5 47.5t9.5 74.5v249h95z" />
    <glyph glyph-name="uni043A" unicode="&#x43a;" horiz-adv-x="500" 
d="M459 297v-297h-94v202h-221v-202h-94v496h94v-200h2l181 200h121l-178 -196v-3h189z" />
    <glyph glyph-name="uni043B" unicode="&#x43b;" horiz-adv-x="552" 
d="M502 498v-497h-94v403h-177v-135q0 -46 -3 -94.5t-21 -90t-57 -70.5t-111 -36l-9 94q37 3 58.5 14.5t32 34t13.5 58.5t3 89v230h365z" />
    <glyph glyph-name="uni043C" unicode="&#x43c;" horiz-adv-x="641" 
d="M591 498v-498h-94v405h-11l-91 -311h-154l-85 311h-12v-405h-94v498h178l85 -310h12l91 310h175z" />
    <glyph glyph-name="uni043D" unicode="&#x43d;" horiz-adv-x="547" 
d="M403 496h94v-496h-94v201h-259v-201h-94v496h94v-201h259v201z" />
    <glyph glyph-name="uni043E" unicode="&#x43e;" horiz-adv-x="524" 
d="M262 496q41 0 82 -8t74.5 -33.5t54.5 -74.5t21 -132t-21 -132t-54.5 -75t-74.5 -34t-82 -8q-40 0 -81.5 8t-75 34t-54.5 75t-21 132t21 132t54.5 74.5t75 33.5t81.5 8zM262 93q32 0 57.5 4t43 19.5t27 46.5t9.5 85q0 50 -8 80t-24.5 46.5t-42.5 22t-62 5.5t-62.5 -5.5
t-43 -22t-24.5 -46.5t-8 -80q0 -54 9.5 -85t27.5 -46.5t43.5 -19.5t57.5 -4z" />
    <glyph glyph-name="uni043F" unicode="&#x43f;" horiz-adv-x="547" 
d="M497 496v-497h-94v403h-259v-403h-94v497h447z" />
    <glyph glyph-name="uni0440" unicode="&#x440;" horiz-adv-x="553" 
d="M140 496v-55h3q16 25 56 40t91 15q40 0 81.5 -7.5t75 -33.5t55 -75t21.5 -132q0 -82 -21 -131.5t-55 -75.5t-75 -34t-82 -8q-48 0 -88.5 15t-55.5 38h-2v-257h-94v701h90zM286 94q34 0 59 5.5t41 22t24 46t8 78.5q0 55 -9.5 86.5t-27.5 47t-43.5 19.5t-57.5 4t-57.5 -5
t-43.5 -21.5t-27.5 -47.5t-9.5 -83q0 -46 8 -76t25.5 -46.5t44.5 -23t66 -6.5z" />
    <glyph glyph-name="uni0441" unicode="&#x441;" horiz-adv-x="517" 
d="M262 401q-36 0 -62.5 -5.5t-43 -22t-24.5 -47t-8 -80.5q0 -54 9.5 -85t27.5 -46t43.5 -19t57.5 -4q24 0 45 2t37.5 9.5t28 22.5t18.5 41h96q-10 -55 -33.5 -88.5t-54.5 -51.5t-66.5 -23.5t-70.5 -5.5q-40 0 -81.5 8t-75 33.5t-54.5 75t-21 131.5q0 83 21 132t54.5 75
t75 34t81.5 8q35 0 71 -6t67 -24t54 -52t33 -90h-95q-11 49 -43 63.5t-87 14.5z" />
    <glyph glyph-name="uni0442" unicode="&#x442;" horiz-adv-x="764" 
d="M714 496v-496h-94v402h-191v-402h-94v402h-191v-402h-94v496h664z" />
    <glyph glyph-name="uni0443" unicode="&#x443;" horiz-adv-x="563" 
d="M140 496v-241q0 -49 8 -80.5t24.5 -49.5t42 -25t59.5 -7q35 0 62 7t45 25t27.5 47.5t9.5 74.5v249h95v-701h-424v95h326v166h-2q-15 -23 -53.5 -40t-86.5 -17q-40 0 -81.5 8t-75.5 34t-55 75.5t-21 131.5v248h100z" />
    <glyph glyph-name="uni0444" unicode="&#x444;" horiz-adv-x="649" 
d="M387 498q41 0 82 -8t74.5 -33.5t54.5 -74.5t21 -132t-21 -132t-54.5 -75t-74.5 -34t-82 -8h-16v-200h-94v200h-15q-40 0 -81.5 8t-75 34t-54.5 75t-21 132t21 132t54.5 74.5t75 33.5t81.5 8h15v202h94v-202h16zM277 404h-15q-36 0 -62.5 -5.5t-43 -22t-24.5 -46.5t-8 -80
q0 -54 9.5 -85t27.5 -46.5t43.5 -19.5t57.5 -4h15v309zM387 95q32 0 57.5 4t43.5 19.5t27.5 46.5t9.5 85q0 50 -8 80t-24.5 46.5t-43 22t-62.5 5.5h-16v-309h16z" />
    <glyph glyph-name="uni0445" unicode="&#x445;" horiz-adv-x="461" 
d="M283 247l148 -248h-106l-94 159h-1l-94 -159h-106l147 248v1l-147 247h106l94 -158h1l94 158h106l-148 -247v-1z" />
    <glyph glyph-name="uni0446" unicode="&#x446;" horiz-adv-x="595" 
d="M565 94v-160h-95v66h-420v498h94v-404h218v404h94v-404h109z" />
    <glyph glyph-name="uni0447" unicode="&#x447;" horiz-adv-x="527" 
d="M376 499h101v-499h-94v247h-5q-23 -23 -57.5 -32.5t-66.5 -9.5q-46 0 -87 14t-71.5 40.5t-48 64t-17.5 84.5v91h101v-91q0 -23 10 -43.5t26.5 -36t39 -24.5t47.5 -9t47.5 9t39 24t26 35.5t9.5 44.5v91z" />
    <glyph glyph-name="uni0448" unicode="&#x448;" horiz-adv-x="764" 
d="M620 496h94v-496h-664v496h94v-402h191v402h94v-402h191v402z" />
    <glyph glyph-name="uni0449" unicode="&#x449;" horiz-adv-x="852" 
d="M822 96v-161h-95v66h-677v497h94v-403h191v403h94v-403h190v403h94v-402h109z" />
    <glyph glyph-name="uni044A" unicode="&#x44a;" horiz-adv-x="577" 
d="M398 297q31 0 58 -11.5t47 -32t31.5 -47.5t11.5 -57q0 -31 -11.5 -58t-31.5 -47t-47 -32t-58 -12h-264v405h-104v93h198v-201h170zM398 95q23 0 38.5 15.5t15.5 38.5t-15.5 38.5t-38.5 15.5h-170v-108h170z" />
    <glyph glyph-name="uni044B" unicode="&#x44b;" horiz-adv-x="646" 
d="M502 498h94v-495h-94v495zM287 297q31 0 58 -11.5t47.5 -31.5t32 -47t11.5 -58t-11.5 -58t-32 -47t-47.5 -31.5t-58 -11.5h-237v497h94v-201h143zM287 95q23 0 38.5 15.5t15.5 38.5t-15.5 38.5t-38.5 15.5h-143v-108h143z" />
    <glyph glyph-name="uni044C" unicode="&#x44c;" horiz-adv-x="492" 
d="M314 298q31 0 58 -11.5t47 -32t31.5 -47.5t11.5 -57q0 -31 -11.5 -58t-31.5 -47t-47 -32t-58 -12h-264v497h94v-200h170zM314 95q23 0 38.5 16t15.5 39t-15.5 38.5t-38.5 15.5h-170v-109h170z" />
    <glyph glyph-name="uni044D" unicode="&#x44d;" horiz-adv-x="517" 
d="M255 498q41 0 82 -8t74.5 -34.5t54.5 -75.5t21 -132t-21 -132.5t-54.5 -76t-74.5 -34.5t-82 -8q-35 0 -70.5 5.5t-66.5 23.5t-54.5 51.5t-33.5 88.5h96q7 -26 18.5 -41t28 -22.5t37.5 -9.5t45 -2q28 0 51.5 3t40.5 14.5t28.5 33t15.5 58.5h-194v95h194q-4 34 -13.5 55.5
t-26 33.5t-40.5 16t-56 4q-27 0 -49 -3t-38 -11t-26.5 -23.5t-16.5 -39.5h-95q10 56 33 90t54 52t67 23.5t71 5.5z" />
    <glyph glyph-name="uni044E" unicode="&#x44e;" horiz-adv-x="691" 
d="M429 496q41 0 82 -8t74.5 -33.5t54.5 -74.5t21 -132t-21 -132t-54.5 -75t-74.5 -34t-82 -8q-37 0 -75 6.5t-70.5 27.5t-55 61t-28.5 107h-56v-201h-94v496h94v-201h56q6 66 28.5 106t55 61t70.5 27.5t75 6.5zM429 93q32 0 57.5 4t43.5 19.5t27.5 46.5t9.5 85q0 50 -8 80
t-24.5 46.5t-43 22t-62.5 5.5t-62 -5.5t-42.5 -22t-24.5 -46.5t-8 -80q0 -54 9.5 -85t27 -46.5t43 -19.5t57.5 -4z" />
    <glyph glyph-name="uni044F" unicode="&#x44f;" horiz-adv-x="492" 
d="M442 0h-94v201h-126l-93 -201h-98l97 210q-43 16 -70.5 53.5t-27.5 85.5q0 31 11.5 58t32 47.5t47.5 32t57 11.5h264v-498zM348 404h-170q-23 0 -38.5 -16t-15.5 -39q0 -22 15.5 -38t38.5 -16h170v109z" />
    <glyph glyph-name="uni0450" unicode="&#x450;" horiz-adv-x="524" 
d="M231 700l88 -161h-102l-88 161h102zM265 496q65 0 110.5 -22t73 -61.5t36.5 -85t9 -85.5q0 -20 -2 -40h-367q0 -35 11 -57t30 -34t43 -16.5t51 -4.5q19 0 39 1.5t37 7t30.5 16.5t18.5 30h96q-10 -40 -30.5 -67.5t-49 -44.5t-64 -25t-75.5 -8q-121 0 -176.5 63t-55.5 185
q0 54 14.5 99.5t43.5 78.5t73 51.5t104 18.5zM399 290q-1 12 -5 32.5t-17.5 40t-39.5 33.5t-71 14q-41 0 -68 -12t-43.5 -30t-23 -39t-6.5 -39h274z" />
    <glyph glyph-name="uni0451" unicode="&#x451;" horiz-adv-x="524" 
d="M110 550v95h95v-95h-95zM412 550h-94v95h94v-95zM265 496q65 0 110.5 -22t73 -61.5t36.5 -85t9 -85.5q0 -20 -2 -40h-367q0 -35 11 -57t30 -34t43 -16.5t51 -4.5q19 0 39 1.5t37 7t30.5 16.5t18.5 30h96q-10 -40 -30.5 -67.5t-49 -44.5t-64 -25t-75.5 -8
q-121 0 -176.5 63t-55.5 185q0 54 14.5 99.5t43.5 78.5t73 51.5t104 18.5zM399 290q-1 12 -5 32.5t-17.5 40t-39.5 33.5t-71 14q-41 0 -68 -12t-43.5 -30t-23 -39t-6.5 -39h274z" />
    <glyph glyph-name="uni0452" unicode="&#x452;" horiz-adv-x="623" 
d="M208 653h167v-95h-167v-118h2q8 12 23.5 22t35 18t41.5 12.5t42 4.5q37 0 77.5 -8t74.5 -34t56.5 -75t22.5 -132v-448h-230v94h130v347q0 49 -8 80.5t-24.5 49.5t-42 25t-59.5 7q-35 0 -62 -7t-45 -25t-27.5 -47.5t-9.5 -74.5v-249h-95v558h-80v95h80v48h98v-48z" />
    <glyph glyph-name="uni0453" unicode="&#x453;" horiz-adv-x="430" 
d="M279 539h-102l88 161h102zM144 0h-94v496h350v-94h-256v-402z" />
    <glyph glyph-name="uni0454" unicode="&#x454;" horiz-adv-x="517" 
d="M262 398q-32 0 -56 -4t-40.5 -15.5t-26 -32.5t-13.5 -55h194v-94h-194q4 -37 15.5 -59t28.5 -32.5t40.5 -13.5t51.5 -3q24 0 45 2t37.5 10t28 23t18.5 40h96q-10 -55 -33.5 -88.5t-54.5 -51.5t-66.5 -23.5t-70.5 -5.5q-40 0 -81.5 8t-75 34t-54.5 75.5t-21 131.5
q0 83 21 132t54.5 74.5t75 33.5t81.5 8q35 0 71 -5.5t67 -23.5t54 -52t33 -90h-95q-6 24 -16.5 39.5t-26.5 23.5t-38 11t-49 3z" />
    <glyph glyph-name="uni0455" unicode="&#x455;" horiz-adv-x="453" 
d="M141 351q2 -19 23 -30t52.5 -19.5t67.5 -18t67 -26.5t51.5 -44.5t20.5 -71.5q0 -27 -10.5 -53t-33.5 -46.5t-59.5 -33.5t-87.5 -13q-41 0 -76.5 12.5t-62.5 35t-43.5 53t-19.5 66.5h103q3 -15 9.5 -30t19 -27t31.5 -19t46 -7q33 0 51.5 7.5t27.5 17.5t11 18.5t2 10.5v6
q0 28 -19 43.5t-50.5 25t-68.5 16t-69 20.5t-53.5 40t-21.5 72q0 27 9.5 52t30 45t52.5 32t77 12q37 0 71 -9t60 -27.5t41.5 -47t15.5 -66.5h-100q-2 12 -7 23.5t-14.5 20.5t-25 15t-38.5 7h-7q-21 0 -36 -6t-23.5 -16t-11 -19.5t-2.5 -16.5v-4z" />
    <glyph glyph-name="uni0456" unicode="&#x456;" horiz-adv-x="194" 
d="M144 700v-94h-94v94h94zM50 500h94v-499h-94v499z" />
    <glyph glyph-name="uni0457" unicode="&#x457;" horiz-adv-x="192" 
d="M-60 700h95v-94h-95v94zM242 606h-94v94h94v-94zM138 1h-94v499h94v-499z" />
    <glyph glyph-name="uni0458" unicode="&#x458;" horiz-adv-x="283" 
d="M233 606h-94v94h94v-94zM35 -197v94h104v604h94v-698h-198z" />
    <glyph glyph-name="uni0459" unicode="&#x459;" horiz-adv-x="801" 
d="M623 297q30 0 57 -11.5t47.5 -31.5t32 -47t11.5 -58t-11.5 -58t-32 -47t-47.5 -32t-57 -12h-238v404h-154v-140q0 -45 -3 -94t-21 -90t-57 -70.5t-111 -35.5l-9 93q37 4 58.5 15.5t32 34t13.5 58.5t3 89v234h342v-201h144zM623 95q23 0 38.5 15.5t15.5 38.5t-15.5 38.5
t-38.5 15.5h-144v-108h144z" />
    <glyph glyph-name="uni045A" unicode="&#x45a;" horiz-adv-x="801" 
d="M480 296h143q30 0 57 -11.5t47.5 -32t32 -47.5t11.5 -58t-11.5 -57.5t-32 -46.5t-47.5 -31.5t-57 -11.5h-247v201h-232v-201h-94v500h94v-205h232v205h104v-204zM623 93q23 0 38.5 15.5t15.5 38.5t-15.5 39t-38.5 16h-144v-109h144z" />
    <glyph glyph-name="uni045B" unicode="&#x45b;" horiz-adv-x="623" 
d="M208 653h167v-95h-167v-118h2q8 12 23.5 22t35 18t41.5 12.5t42 4.5q37 0 77.5 -8t74.5 -34t56.5 -75t22.5 -132v-248h-100v241q0 49 -8 80.5t-24.5 49.5t-42 25t-59.5 7q-35 0 -62 -7t-45 -25t-27.5 -47.5t-9.5 -74.5v-249h-95v558h-80v95h80v48h98v-48z" />
    <glyph glyph-name="uni045C" unicode="&#x45c;" horiz-adv-x="499" 
d="M292 539h-102l87 161h103zM144 496v-200h2l181 200h121l-178 -197v-3h189v-296h-94v202h-221v-202h-94v496h94z" />
    <glyph glyph-name="uni045D" unicode="&#x45d;" horiz-adv-x="553" 
d="M329 539h-102l-88 161h103zM503 497v-496h-80l-10 56h-2q-15 -23 -55.5 -40t-88.5 -17q-40 0 -82.5 8t-76.5 34t-56 75.5t-22 131.5v248h100v-241q0 -49 8 -80.5t24.5 -49.5t42 -25t59.5 -7q35 0 62 7t45 25t27.5 47.5t9.5 74.5v249h95z" />
    <glyph glyph-name="uni045E" unicode="&#x45e;" horiz-adv-x="563" 
d="M278 632q34 0 51 14.5t17 52.5h74q0 -45 -15 -72.5t-37 -43t-46.5 -20.5t-43.5 -5t-43.5 5t-46.5 20.5t-37 43t-15 72.5h74q0 -38 17 -52.5t51 -14.5zM140 498v-241q0 -49 8 -80.5t24.5 -49.5t42 -25t59.5 -7q35 0 62 7t45 25t27.5 47.5t9.5 74.5v249h95v-701h-424v95
h326v166h-2q-15 -23 -53.5 -40t-86.5 -17q-40 0 -81.5 8t-75.5 34t-55 75.5t-21 131.5v248h100z" />
    <glyph glyph-name="uni045F" unicode="&#x45f;" horiz-adv-x="541" 
d="M397 496h94v-496h-174v-64h-93v64h-174v496h94v-402h253v402z" />
    <glyph glyph-name="uni0462" unicode="&#x462;" horiz-adv-x="651" 
d="M485 594v-94h-255v-103h193q41 0 77 -15.5t63 -42.5t42.5 -63t15.5 -77t-15.5 -77t-42.5 -63t-63 -42.5t-77 -15.5h-287v499h-86v94h86v105h94v-105h255zM230 303v-208h193q22 0 41 8t33 22.5t22 33.5t8 40q0 44 -30 74t-74 30h-193z" />
    <glyph glyph-name="uni0463" unicode="&#x463;" horiz-adv-x="579" 
d="M230 298h170q31 0 58 -11.5t47 -32t31.5 -47.5t11.5 -57q0 -31 -11.5 -58t-31.5 -47t-47 -32t-58 -12h-264v351h-86v94h86v52h94v-52h195v-94h-195v-54zM230 204v-109h170q23 0 38.5 16t15.5 39t-15.5 38.5t-38.5 15.5h-170z" />
    <glyph glyph-name="uni0472" unicode="&#x472;" 
d="M284 718q53 0 99.5 -18.5t81 -53t54.5 -82t20 -106.5v-198q0 -62 -20 -110.5t-54.5 -81.5t-81 -50.5t-99.5 -17.5q-52 0 -98.5 17.5t-81 50.5t-54.5 81.5t-20 110.5v198q0 59 20 106.5t54.5 82t81 53t98.5 18.5zM447 400q0 45 -3 85.5t-18.5 71t-48.5 48.5t-93 18
q-59 0 -91.5 -18t-48.5 -48.5t-19 -71t-3 -85.5h325zM282 95q59 0 92.5 16t49.5 44.5t19.5 67t3.5 83.5h-325q0 -43 4 -81.5t20 -67.5t48 -45.5t88 -16.5z" />
    <glyph glyph-name="uni0473" unicode="&#x473;" horiz-adv-x="524" 
d="M262 498q41 0 82 -8t74.5 -34t54.5 -75t21 -132t-21 -132t-54.5 -75t-74.5 -34t-82 -8q-40 0 -81.5 8t-75 34t-54.5 75t-21 132t21 132t54.5 75t75 34t81.5 8zM397 297q-4 34 -13.5 54.5t-26 32t-40 15.5t-55.5 4q-31 0 -55 -4t-40.5 -15.5t-26.5 -32t-14 -54.5h271z
M262 94q28 0 51 3t40.5 14t28.5 33t15 59h-271q4 -37 15 -59t28.5 -33t41 -14t51.5 -3z" />
    <glyph glyph-name="uni0474" unicode="&#x474;" horiz-adv-x="664" 
d="M503 700h131v-95h-59l-163 -605h-195l-187 700h98l162 -606h49z" />
    <glyph glyph-name="uni0475" unicode="&#x475;" horiz-adv-x="558" 
d="M397 497h131v-95h-59l-109 -401h-195l-135 496h98l111 -402h48z" />
    <glyph glyph-name="uni0490" unicode="&#x490;" horiz-adv-x="495" 
d="M144 606v-606h-94v700h319v66h96v-160h-321z" />
    <glyph glyph-name="uni0491" unicode="&#x491;" horiz-adv-x="430" 
d="M304 565h96v-162h-256v-403h-94v496h254v69z" />
    <glyph glyph-name="Wgrave" unicode="&#x1e80;" horiz-adv-x="960" 
d="M416 750l-87 161h102l88 -161h-103zM831 701h99l-154 -702h-175l-116 607h-13l-116 -607h-172l-154 702h99l133 -608h13l116 608h175l116 -608h16z" />
    <glyph glyph-name="wgrave" unicode="&#x1e81;" horiz-adv-x="759" 
d="M236 700h102l87 -161h-102zM307 0h-171l-106 496h98l86 -402h10l66 402h179l66 -402h10l86 402h98l-106 -496h-171l-65 402h-14z" />
    <glyph glyph-name="Wacute" unicode="&#x1e82;" horiz-adv-x="960" 
d="M536 751h-102l87 160h103zM831 701h99l-154 -702h-175l-116 607h-13l-116 -607h-172l-154 702h99l133 -608h13l116 608h175l116 -608h16z" />
    <glyph glyph-name="wacute" unicode="&#x1e83;" horiz-adv-x="759" 
d="M429 539h-102l87 161h102zM307 0h-171l-106 496h98l86 -402h10l66 402h179l66 -402h10l86 402h98l-106 -496h-171l-65 402h-14z" />
    <glyph glyph-name="Wdieresis" unicode="&#x1e84;" horiz-adv-x="960" 
d="M534 845h95v-94h-95v94zM327 845h94v-94h-94v94zM831 701h99l-154 -702h-175l-116 607h-13l-116 -607h-172l-154 702h99l133 -608h13l116 608h175l116 -608h16z" />
    <glyph glyph-name="wdieresis" unicode="&#x1e85;" horiz-adv-x="759" 
d="M436 645h95v-95h-95v95zM228 550v95h95v-95h-95zM307 0h-171l-106 496h98l86 -402h10l66 402h179l66 -402h10l86 402h98l-106 -496h-171l-65 402h-14z" />
    <glyph glyph-name="Ygrave" unicode="&#x1ef2;" horiz-adv-x="587" 
d="M240 750l-87 161h102l88 -161h-103zM30 700h106l157 -262h2l156 262h106l-216 -362v-338h-94v338z" />
    <glyph glyph-name="ygrave" unicode="&#x1ef3;" horiz-adv-x="563" 
d="M235 539l-88 161h102l88 -161h-102zM140 498v-241q0 -49 8 -80.5t24.5 -49.5t42 -25t59.5 -7q35 0 62 7t45 25t27.5 47.5t9.5 74.5v249h95v-701h-424v95h326v166h-2q-15 -23 -53.5 -40t-86.5 -17q-40 0 -81.5 8t-75.5 34t-55 75.5t-21 131.5v248h100z" />
    <glyph glyph-name="endash" unicode="&#x2013;" horiz-adv-x="723" 
d="M35 341h653v-94h-653v94z" />
    <glyph glyph-name="emdash" unicode="&#x2014;" horiz-adv-x="831" 
d="M35 342h761v-95h-761v95z" />
    <glyph glyph-name="uni2015" unicode="&#x2015;" horiz-adv-x="1021" 
d="M35 341h951v-94h-951v94z" />
    <glyph glyph-name="quoteleft" unicode="&#x2018;" horiz-adv-x="260" 
d="M123 700h102l-88 -161h-102z" />
    <glyph glyph-name="quoteright" unicode="&#x2019;" horiz-adv-x="260" 
d="M123 700h102l-88 -161h-102z" />
    <glyph glyph-name="quotesinglbase" unicode="&#x201a;" horiz-adv-x="263" 
d="M123 94h102l-88 -161h-102z" />
    <glyph glyph-name="quotedblleft" unicode="&#x201c;" horiz-adv-x="447" 
d="M137 539h-102l88 161h102zM222 539l87 161h102l-87 -161h-102z" />
    <glyph glyph-name="quotedblright" unicode="&#x201d;" horiz-adv-x="447" 
d="M137 539h-102l88 161h102zM222 539l87 161h102l-87 -161h-102z" />
    <glyph glyph-name="quotedblbase" unicode="&#x201e;" horiz-adv-x="447" 
d="M137 -67h-102l88 161h102zM222 -67l87 161h102l-87 -161h-102z" />
    <glyph glyph-name="dagger" unicode="&#x2020;" horiz-adv-x="374" 
d="M234 605h105v-94h-105v-307h-94v307h-105v94h105v95h94v-95z" />
    <glyph glyph-name="daggerdbl" unicode="&#x2021;" horiz-adv-x="374" 
d="M234 605h105v-94h-105v-58h103v-95h-103v-154h-94v154h-103v95h103v58h-105v94h105v95h94v-95z" />
    <glyph glyph-name="bullet" unicode="&#x2022;" horiz-adv-x="272" 
d="M35 424h202v-202h-202v202z" />
    <glyph glyph-name="ellipsis" unicode="&#x2026;" horiz-adv-x="494" 
d="M35 94h95v-94h-95v94zM200 94h94v-94h-94v94zM364 94h95v-94h-95v94z" />
    <glyph glyph-name="perthousand" unicode="&#x2030;" horiz-adv-x="1507" 
d="M761 700l-385 -700h-103l386 700h102zM441 503q0 -66 -18.5 -105t-47.5 -59.5t-65.5 -26.5t-71.5 -6q-36 0 -72 6t-65 26.5t-47.5 59.5t-18.5 105q0 32 6 66.5t27 63.5t61.5 48t108.5 19t108.5 -19t61.5 -48t27 -63.5t6 -66.5zM238 400q30 0 51 3.5t33.5 15t18 31.5
t5.5 53t-5.5 53t-18 31.5t-33.5 15t-51 3.5q-31 0 -51.5 -3.5t-33.5 -15t-18.5 -31.5t-5.5 -53t5.5 -53t18.5 -31.5t33.5 -15t51.5 -3.5zM795 395q68 0 108.5 -19t61.5 -48t27 -63.5t6 -66.5q0 -66 -18.5 -105t-47.5 -59.5t-65.5 -27t-71.5 -6.5q-36 0 -72 6.5t-65 27
t-47.5 59.5t-18.5 105q0 32 6 66.5t27 63.5t61.5 48t108.5 19zM1269 395q68 0 108.5 -19t61.5 -48t27 -63.5t6 -66.5q0 -66 -18.5 -105t-47.5 -59.5t-65 -27t-72 -6.5q-35 0 -71 6.5t-65.5 27t-48 59.5t-18.5 105q0 32 6.5 66.5t27.5 63.5t61 48t108 19zM795 94q30 0 51 3.5
t34 15t18.5 32t5.5 53.5t-5.5 53t-18.5 31.5t-34 15t-51 3.5q-31 0 -51.5 -3.5t-33.5 -15t-18.5 -31.5t-5.5 -53t5.5 -53.5t18.5 -32t33.5 -15t51.5 -3.5zM1269 94q31 0 52 3.5t33.5 15t18 32t5.5 53.5t-5.5 53t-18 31.5t-33.5 15t-52 3.5q-30 0 -51 -3.5t-33.5 -15
t-18 -31.5t-5.5 -53t5.5 -53.5t18 -32t33.5 -15t51 -3.5z" />
    <glyph glyph-name="minute" unicode="&#x2032;" horiz-adv-x="260" 
d="M123 700h102l-88 -161h-102z" />
    <glyph glyph-name="second" unicode="&#x2033;" horiz-adv-x="447" 
d="M137 539h-102l88 161h102zM222 539l87 161h102l-87 -161h-102z" />
    <glyph glyph-name="guilsinglleft" unicode="&#x2039;" horiz-adv-x="309" 
d="M274 606l-137 -248l137 -248h-102l-137 248l137 248h102z" />
    <glyph glyph-name="guilsinglright" unicode="&#x203a;" horiz-adv-x="309" 
d="M137 606l137 -248l-137 -248h-102l137 248l-137 248h102z" />
    <glyph glyph-name="uni203D" unicode="&#x203d;" horiz-adv-x="568" 
d="M339 430v-96q57 6 78 40.5t21 94.5q0 73 -34.5 105t-119.5 32q-49 0 -79.5 -9t-47.5 -26.5t-22.5 -42t-5.5 -55.5h-94q0 40 8.5 80.5t34.5 73t75 53t131 20.5q83 0 132 -21t75 -54t34 -74t8 -82q0 -37 -6.5 -75.5t-27 -71t-58.5 -55.5t-102 -29v-71h-97v263h97zM339 0
h-95v95h95v-95z" />
    <glyph glyph-name="uni2074" unicode="&#x2074;" horiz-adv-x="369" 
d="M240 700h94v-390h-94v141h-205v249h94v-155h111v155z" />
    <glyph glyph-name="uni207F" unicode="&#x207f;" horiz-adv-x="369" 
d="M334 700v-390h-94v296h-111v-296h-94v390h299z" />
    <glyph glyph-name="franc" unicode="&#x20a3;" horiz-adv-x="639" 
d="M603 700v-94h-378v-207h283v-94h-283v-57h190v-94h-190v-154h-94v154h-96v94h96v452h472z" />
    <glyph glyph-name="lira" unicode="&#x20a4;" horiz-adv-x="535" 
d="M192 95h308v-95h-465v95h66q10 6 14 15t4 21q0 4 -1 15.5t-8 40t-21 70.5q-18 57 -33 113t-15 108q0 13 1 26q2 48 20.5 83.5t48.5 59.5t69 36t83 12q47 0 93 -13.5t83 -39.5l38 -28l-54 -76l-39 27q-23 16 -55.5 26t-67.5 10q-40 0 -72 -15q-35 -17 -44 -43.5t-9 -54.5
v-12h237v-94h-223l16 -57h207v-94h-178q3 -12 8 -31.5t6.5 -33.5t1.5 -22q0 -11 -2.5 -25t-16.5 -23v-1z" />
    <glyph glyph-name="uni20AA" unicode="&#x20aa;" horiz-adv-x="757" 
d="M50 0v700h478v-499h-94v405h-290v-606h-94zM236 497h95v-402h282v605h94v-699h-471v496z" />
    <glyph glyph-name="Euro" unicode="&#x20ac;" horiz-adv-x="652" 
d="M370 615q-76 0 -117 -33.5t-41 -106.5h247v-94h-250v-57h250v-94h-248q0 -75 39.5 -109t117.5 -34q74 0 110 30t47 83v3h92q-7 -51 -29.5 -90t-55 -66t-74 -41t-88.5 -14q-50 0 -94 16t-77.5 46.5t-54.5 74.5t-25 101h-84v94h83v57h-83v94h84q4 53 25.5 96.5t55 74.5
t77.5 47.5t93 16.5q46 0 87.5 -15t74.5 -42.5t55.5 -67t29.5 -87.5h-92q-6 25 -17 46.5t-29.5 37t-45.5 24.5t-63 9z" />
    <glyph glyph-name="uni20B8" unicode="&#x20b8;" horiz-adv-x="593" 
d="M35 606v94h523v-94h-523zM35 548h523v-95h-214v-453h-94v453h-215v95z" />
    <glyph glyph-name="uni20BD" unicode="&#x20bd;" horiz-adv-x="647" 
d="M418 701q41 0 77.5 -16t63.5 -43t42.5 -63t15.5 -77t-15.5 -77.5t-42.5 -63.5t-63.5 -43t-77.5 -16h-194v-53h186v-94h-186v-154h-94v154h-100v94h100v53h-100v94h99v305h289zM418 397q21 0 40 8.5t33.5 22.5t22.5 33t8 41q0 21 -8 40t-22.5 33.5t-33.5 22.5t-40 8h-194
v-209h194z" />
    <glyph glyph-name="uni2116" unicode="&#x2116;" horiz-adv-x="955" 
d="M144 605v-605h-94v700h186l195 -606h24v606h94v-700h-186l-194 605h-25zM925 383h-304v94h304v-94zM773 -6q-14 0 -39.5 2.5t-50.5 16t-43.5 44t-18.5 85.5q0 56 18.5 86t43.5 43.5t50.5 16t39.5 2.5t39.5 -2.5t50.5 -16t43.5 -43.5t18.5 -86q0 -55 -18.5 -85.5
t-43.5 -44t-50.5 -16t-39.5 -2.5zM715 142q0 -19 2.5 -30t9.5 -16.5t18 -6.5t28 -1t28 1t18 6.5t9.5 16.5t2.5 30t-2.5 29.5t-8.5 16t-17.5 7t-29.5 1.5t-29.5 -1.5t-17.5 -7t-8.5 -16t-2.5 -29.5z" />
    <glyph glyph-name="trademark" unicode="&#x2122;" horiz-adv-x="805" 
d="M145 449v177h-110v74h294v-74h-110v-177h-74zM329 449l52 251h136l25 -181h15l24 181h136l53 -250h-79l-32 180h-15l-25 -181h-139l-26 181h-14l-32 -181h-79z" />
    <glyph glyph-name="arrowleft" unicode="&#x2190;" horiz-adv-x="771" 
d="M736 303h-543v-2l150 -99v-117l-308 214v102l308 214v-117l-150 -99v-2h543v-94z" />
    <glyph glyph-name="arrowup" unicode="&#x2191;" horiz-adv-x="600" 
d="M253 0v543h-2l-99 -150h-117l214 308h102l214 -308h-117l-99 150h-2v-544z" />
    <glyph glyph-name="arrowright" unicode="&#x2192;" horiz-adv-x="771" 
d="M35 397h543v2l-150 99v117l308 -214v-102l-308 -214v117l150 99v2h-543v94z" />
    <glyph glyph-name="arrowdown" unicode="&#x2193;" horiz-adv-x="600" 
d="M347 700v-542h2l99 149h117l-214 -308h-102l-214 308h117l99 -149h2v543z" />
    <glyph glyph-name="arrowboth" unicode="&#x2194;" horiz-adv-x="771" 
d="M578 301v2h-385v-2l150 -99v-117l-308 214v102l308 214v-117l-150 -99v-2h385v2l-150 101v115l308 -214v-102l-308 -214v117z" />
    <glyph glyph-name="arrowupdn" unicode="&#x2195;" horiz-adv-x="600" 
d="M349 542h-2v-384h2l99 150h117l-214 -308h-102l-214 308h117l99 -150h2v384h-2l-101 -149h-115l214 307h102l214 -307h-117z" />
    <glyph glyph-name="uni2196" unicode="&#x2196;" horiz-adv-x="635" 
d="M533 69l-383 384l-1 -1l35 -176l-83 -83l-66 369l72 72l369 -66l-83 -83l-176 36l-1 -1l384 -385z" />
    <glyph glyph-name="uni2197" unicode="&#x2197;" horiz-adv-x="636" 
d="M35 136l384 383l-1 2l-176 -36l-83 83l369 66l72 -72l-66 -369l-83 83l36 176l-1 1l-384 -384z" />
    <glyph glyph-name="uni2198" unicode="&#x2198;" horiz-adv-x="635" 
d="M102 631l383 -384l1 1l-35 177l83 82l66 -369l-72 -72l-369 66l83 83l176 -36l1 1l-384 385z" />
    <glyph glyph-name="uni2199" unicode="&#x2199;" horiz-adv-x="635" 
d="M600 565l-384 -385l1 -1l176 36l83 -83l-369 -66l-72 72l66 369l83 -82l-35 -177l1 -1l383 384z" />
    <glyph glyph-name="minus" unicode="&#x2212;" horiz-adv-x="505" 
d="M35 404h435v-94h-435v94z" />
    <glyph glyph-name="uni2219" unicode="&#x2219;" horiz-adv-x="272" 
d="M35 424h202v-202h-202v202z" />
    <glyph glyph-name="hungarumlaut.case" horiz-adv-x="442" 
d="M217 750l88 161h102l-88 -161h-102zM35 750l88 161h102l-88 -161h-102z" />
    <glyph glyph-name="tilde.case" horiz-adv-x="417" 
d="M378 911q3 -28 3 -57t-9.5 -52t-31 -37.5t-61.5 -14.5q-27 0 -50 12.5t-42.5 26t-31.5 20.5t-19 7q-4 0 -8 -2q-5 -3 -5.5 -8t-0.5 -6q0 -7 2 -15t4.5 -16t3.5 -13l-94 -10q-3 26 -3 50q0 4 0.5 20.5t10 39.5t31 37t58.5 14q33 0 56.5 -13.5t41 -28t28 -23t18.5 -8.5
q5 0 9 2q8 4 8.5 10t0.5 8q0 8 -2 17.5t-5.5 18.5t-4.5 11z" />
    <glyph glyph-name="dotaccent.case" horiz-adv-x="165" 
d="M35 846h95v-95h-95v95z" />
    <glyph glyph-name="breve.case" horiz-adv-x="354" 
d="M177 823q34 0 51 14.5t17 52.5h74q0 -45 -15 -72.5t-37 -43t-46.5 -20.5t-43.5 -5t-43.5 5t-46.5 20.5t-37 43t-15 72.5h74q0 -38 17 -52.5t51 -14.5z" />
    <glyph glyph-name="ring.case" horiz-adv-x="374" 
d="M187 1047q14 0 39.5 -2.5t50.5 -16t43.5 -43.5t18.5 -86q0 -55 -18.5 -85.5t-43.5 -44t-50.5 -16t-39.5 -2.5t-39.5 2.5t-50.5 16t-43.5 44t-18.5 85.5q0 56 18.5 86t43.5 43.5t50.5 16t39.5 2.5zM187 845q17 0 28 1t18 6.5t9.5 16.5t2.5 30q0 18 -2.5 29t-8.5 16.5
t-17.5 7t-29.5 1.5t-29.5 -1.5t-17.5 -7t-8.5 -16.5t-2.5 -29q0 -19 2.5 -30t9.5 -16.5t18 -6.5t28 -1z" />
    <glyph glyph-name="circumflex.case" horiz-adv-x="354" 
d="M231 910l88 -161h-102l-36 66h-8l-36 -66h-102l88 161h108z" />
    <glyph glyph-name="caron.salt" horiz-adv-x="354" 
d="M217 911h102l-88 -161h-108l-88 161h102l36 -66h8z" />
    <glyph glyph-name="macron.case" horiz-adv-x="374" 
d="M35 844h304v-94h-304v94z" />
    <glyph glyph-name="dieresis.case" horiz-adv-x="372" 
d="M35 751v94h95v-94h-95zM243 751v94h94v-94h-94z" />
    <glyph glyph-name="acute.case" horiz-adv-x="260" 
d="M123 911h102l-88 -160h-102z" />
    <glyph glyph-name="grave.case" horiz-adv-x="260" 
d="M137 911l88 -161h-102l-88 161h102z" />
    <glyph glyph-name="caron.case" horiz-adv-x="354" 
d="M217 911h102l-88 -160h-108l-88 160h102l36 -66h8z" />
    <glyph glyph-name="R.aalt" horiz-adv-x="613" 
d="M573 381v-381h-95v292h-333v-292h-95v701h289q44 0 80.5 -14t63 -40t41 -63t14.5 -82q0 -12 -3 -29t-9 -34t-15.5 -31.5t-22.5 -22.5v-4h85zM339 382q21 0 40 10.5t33.5 27.5t22.5 38.5t8 43.5t-8 41t-22.5 33t-33.5 22t-40 8h-194v-224h194z" />
    <glyph glyph-name="M.aalt" horiz-adv-x="901" 
d="M721 699l150 -699h-99l-129 605h-10l-94 -605h-177l-94 605h-10l-129 -605h-99l150 699h172l94 -604h9l94 604h172z" />
    <glyph glyph-name="uni0459.aalt" horiz-adv-x="754" 
d="M575 298q31 0 58 -11.5t47 -32t31.5 -47.5t11.5 -58q0 -30 -11.5 -57t-31.5 -47.5t-47 -32t-58 -11.5h-237v402h-102l-108 -403h-98l133 498h269v-200h143zM575 95q23 0 38.5 16t15.5 38q0 23 -15.5 39t-38.5 16h-143v-109h143z" />
    <glyph glyph-name="Q.aalt" horiz-adv-x="600" 
d="M539 253q0 -52 -14 -94t-39 -74l84 -84l-67 -67l-90 90q-59 -31 -129 -31q-52 0 -98.5 17.5t-81 50.5t-54.5 81.5t-20 110.5v198q0 59 20 106.5t54.5 82t81 53t98.5 18.5q53 0 99 -18.5t81 -53t55 -82t20 -106.5v-198zM442 201q2 8 3 30.5t1.5 53t0.5 65t-0.5 65.5t-2 56
t-4.5 36v1q-6 25 -17.5 45t-30 34.5t-45 22t-63.5 7.5q-74 0 -109.5 -29.5t-46.5 -80.5q-2 -11 -3.5 -36t-2.5 -51t-1 -49q0 -11 0.5 -34t1 -53t1.5 -52.5t3 -30.5q5 -26 16 -47t29.5 -35.5t45.5 -22.5t64 -8q30 0 56.5 5t47 18t35 35t21.5 55z" />
    <glyph glyph-name="uni043C.aalt" horiz-adv-x="759" 
d="M623 496l106 -496h-98l-86 402h-10l-66 -402h-179l-66 402h-10l-86 -402h-98l106 496h171l65 -402h14l66 402h171z" />
    <glyph glyph-name="uni043B.aalt" horiz-adv-x="520" 
d="M357 496l133 -496h-98l-108 402h-48l-108 -402h-98l133 496h194z" />
    <glyph glyph-name="uni041B.aalt" horiz-adv-x="640" 
d="M417 700l193 -700h-98l-168 606h-48l-168 -606h-98l193 700h194z" />
    <glyph glyph-name="uni0409.aalt" horiz-adv-x="905" 
d="M675 398q41 0 77.5 -16t63.5 -43t43 -63.5t16 -77.5t-16 -77t-43 -63t-63.5 -43t-77.5 -16h-258v608h-126l-162 -608h-99l188 702h294v-303h163zM675 94q22 0 41 8t33.5 22.5t22.5 33.5t8 40q0 22 -8 41t-22.5 33.5t-33.5 22.5t-41 8h-163v-209h163z" />
    <glyph glyph-name="uni0446.aalt" horiz-adv-x="563" 
d="M456 79l77 -77l-67 -66l-64 64h-352v495h94v-401h218v401h94v-416z" />
    <glyph glyph-name="uni0429.aalt" horiz-adv-x="786" 
d="M679 76l77 -77l-67 -66l-66 66h-573v701h94v-607h171v607h94v-607h176v607h94v-624z" />
    <glyph glyph-name="uni0449.aalt" horiz-adv-x="821" 
d="M714 80l77 -77l-67 -66l-63 63h-611v497h94v-403h191v403h94v-403h191v403h94v-417z" />
    <glyph glyph-name="uni044F.aalt" horiz-adv-x="502" 
d="M125 289v4q-23 4 -38.5 20.5t-15.5 48.5q0 46 18.5 72.5t48 40t66 17.5t72.5 4h176v-496h-93v200h-223v-200h-96v289h85zM359 290v112h-103q-18 0 -33.5 -1.5t-27 -7t-18 -17t-6.5 -31.5q0 -19 6 -30t17 -16.5t26 -7t33 -1.5h106z" />
    <glyph glyph-name="uni041C.aalt" horiz-adv-x="901" 
d="M721 699l150 -699h-99l-129 605h-10l-94 -605h-178l-93 605h-10l-129 -605h-99l150 699h172l94 -604h9l94 604h172z" />
    <glyph glyph-name="uni042F.aalt" horiz-adv-x="613" 
d="M125 381v4q-12 11 -21.5 25.5t-16 31t-9.5 32.5t-3 28q0 63 22.5 101.5t52.5 59.5t59.5 28.5t44.5 8.5l21 1h288v-701h-94v292h-334v-292h-95v381h85zM275 382h194v224h-194q-22 0 -41 -8t-33 -22t-22.5 -33t-8.5 -41t8.5 -43.5t22.5 -38.5t33 -27.5t41 -10.5z" />
    <glyph glyph-name="uni0426.aalt" horiz-adv-x="671" 
d="M565 76l76 -77l-66 -66l-67 66h-458v701h94v-606h326v606h95v-624z" />
    <glyph glyph-name="a.aalt" horiz-adv-x="573" 
d="M443 0l-10 55h-3q-23 -22 -63.5 -38.5t-83.5 -16.5q-40 0 -81.5 7.5t-75 33.5t-55 75t-21.5 132t21 132t55 75t75.5 34t81.5 8q48 0 88.5 -15t55.5 -38h2v52h94v-496h-80zM287 94q32 0 57.5 4t43.5 19.5t27.5 47t9.5 86.5q0 49 -8 78.5t-24.5 46t-43 22t-62.5 5.5
t-62 -5.5t-42.5 -22t-24.5 -46t-8 -78.5q0 -55 9.5 -86.5t27 -47t43 -19.5t57.5 -4z" />
    <glyph glyph-name="agrave.aalt" horiz-adv-x="553" 
d="M229 700l88 -161h-102l-88 161h102zM423 0l-10 55h-3q-23 -22 -63.5 -38.5t-83.5 -16.5q-40 0 -81.5 7.5t-75 33.5t-55 75t-21.5 132t21 132t55 75t75.5 34t81.5 8q48 0 88.5 -15t55.5 -38h2v52h94v-496h-80zM267 94q32 0 57.5 4t43.5 19.5t27.5 47t9.5 86.5
q0 49 -8 78.5t-24.5 46t-43 22t-62.5 5.5t-62 -5.5t-42.5 -22t-24.5 -46t-8 -78.5q0 -55 9.5 -86.5t27 -47t43 -19.5t57.5 -4z" />
    <glyph glyph-name="aacute.aalt" horiz-adv-x="553" 
d="M405 700l-88 -161h-102l88 161h102zM423 0l-10 55h-3q-23 -22 -63.5 -38.5t-83.5 -16.5q-40 0 -81.5 7.5t-75 33.5t-55 75t-21.5 132t21 132t55 75t75.5 34t81.5 8q48 0 88.5 -15t55.5 -38h2v52h94v-496h-80zM267 94q32 0 57.5 4t43.5 19.5t27.5 47t9.5 86.5
q0 49 -8 78.5t-24.5 46t-43 22t-62.5 5.5t-62 -5.5t-42.5 -22t-24.5 -46t-8 -78.5q0 -55 9.5 -86.5t27 -47t43 -19.5t57.5 -4z" />
    <glyph glyph-name="acircumflex.aalt" horiz-adv-x="553" 
d="M303 700h102l-88 -161h-108l-88 161h102l36 -66h7zM423 0l-10 55h-3q-23 -22 -63.5 -38.5t-83.5 -16.5q-40 0 -81.5 7.5t-75 33.5t-55 75t-21.5 132t21 132t55 75t75.5 34t81.5 8q48 0 88.5 -15t55.5 -38h2v52h94v-496h-80zM267 94q32 0 57.5 4t43.5 19.5t27.5 47
t9.5 86.5q0 49 -8 78.5t-24.5 46t-43 22t-62.5 5.5t-62 -5.5t-42.5 -22t-24.5 -46t-8 -78.5q0 -55 9.5 -86.5t27 -47t43 -19.5t57.5 -4z" />
    <glyph glyph-name="atilde.aalt" horiz-adv-x="553" 
d="M432 710q4 -28 4 -57t-10 -52t-31.5 -37.5t-61.5 -14.5q-27 0 -50.5 12.5t-43 26t-31 20.5t-18.5 7q-4 0 -8 -2q-5 -3 -5.5 -8t-0.5 -6q0 -7 2 -15t4.5 -16t3.5 -13l-94 -10q-3 26 -3 50q0 4 0.5 20.5t10 39.5t31 37t58.5 14q33 0 56 -13.5t40.5 -28.5t28.5 -23t19 -8
q5 0 9 2q8 4 8.5 10t0.5 8q0 8 -2 17.5t-5.5 18.5t-4.5 11zM423 0l-10 55h-3q-23 -22 -63.5 -38.5t-83.5 -16.5q-40 0 -81.5 7.5t-75 33.5t-55 75t-21.5 132t21 132t55 75t75.5 34t81.5 8q48 0 88.5 -15t55.5 -38h2v52h94v-496h-80zM267 94q32 0 57.5 4t43.5 19.5t27.5 47
t9.5 86.5q0 49 -8 78.5t-24.5 46t-43 22t-62.5 5.5t-62 -5.5t-42.5 -22t-24.5 -46t-8 -78.5q0 -55 9.5 -86.5t27 -47t43 -19.5t57.5 -4z" />
    <glyph glyph-name="aring.aalt" horiz-adv-x="553" 
d="M263 835q14 0 39.5 -2.5t50.5 -16t43.5 -43.5t18.5 -86q0 -55 -18.5 -85.5t-43.5 -44t-50.5 -16t-39.5 -2.5t-39.5 2.5t-50.5 16t-43.5 44t-18.5 85.5q0 56 18.5 86t43.5 43.5t50.5 16t39.5 2.5zM263 633q17 0 28 1t18 6.5t9.5 16.5t2.5 30t-2.5 29.5t-8.5 16t-17.5 7
t-29.5 1.5t-29.5 -1.5t-17.5 -7t-8.5 -16t-2.5 -29.5t2.5 -30t9.5 -16.5t18 -6.5t28 -1zM423 0l-10 55h-3q-23 -22 -63.5 -38.5t-83.5 -16.5q-40 0 -81.5 7.5t-75 33.5t-55 75t-21.5 132t21 132t55 75t75.5 34t81.5 8q48 0 88.5 -15t55.5 -38h2v52h94v-496h-80zM267 94
q32 0 57.5 4t43.5 19.5t27.5 47t9.5 86.5q0 49 -8 78.5t-24.5 46t-43 22t-62.5 5.5t-62 -5.5t-42.5 -22t-24.5 -46t-8 -78.5q0 -55 9.5 -86.5t27 -47t43 -19.5t57.5 -4z" />
    <glyph glyph-name="adieresis.aalt" horiz-adv-x="553" 
d="M113 549v94h95v-94h-95zM321 549v94h94v-94h-94zM423 0l-10 55h-3q-23 -22 -63.5 -38.5t-83.5 -16.5q-40 0 -81.5 7.5t-75 33.5t-55 75t-21.5 132t21 132t55 75t75.5 34t81.5 8q48 0 88.5 -15t55.5 -38h2v52h94v-496h-80zM267 94q32 0 57.5 4t43.5 19.5t27.5 47t9.5 86.5
q0 49 -8 78.5t-24.5 46t-43 22t-62.5 5.5t-62 -5.5t-42.5 -22t-24.5 -46t-8 -78.5q0 -55 9.5 -86.5t27 -47t43 -19.5t57.5 -4z" />
    <glyph glyph-name="ae.aalt" horiz-adv-x="922" 
d="M423 0l-10 55h-3q-23 -22 -63.5 -38.5t-83.5 -16.5q-40 0 -81.5 7.5t-75 33.5t-55 75t-21.5 132t21 132t55 75t75.5 34t81.5 8q48 0 88.5 -15t55.5 -38h2v52h94v-38q27 18 62 28t78 10q65 0 110.5 -22t73 -61.5t36.5 -85t9 -85.5q0 -20 -2 -40h-367q0 -35 11 -57t30 -34
t43 -16.5t51 -4.5q19 0 39 1.5t37 7t30.5 16.5t18.5 30h96q-10 -40 -30.5 -67.5t-49 -44.5t-64 -25t-75.5 -8q-84 0 -137 32v-32h-80zM777 290q-1 12 -5 32.5t-17.5 40t-39.5 33.5t-71 14q-41 0 -68 -12t-43.5 -30t-23 -39t-6.5 -39h274zM267 94q32 0 57.5 4t43.5 19.5
t27.5 47t9.5 86.5q0 49 -8 78.5t-24.5 46t-43 22t-62.5 5.5t-62 -5.5t-42.5 -22t-24.5 -46t-8 -78.5q0 -55 9.5 -86.5t27 -47t43 -19.5t57.5 -4z" />
    <glyph glyph-name="breve.aalt" horiz-adv-x="595" 
d="M292 633q34 0 46 14t12 53h94q0 -56 -18.5 -88t-43.5 -48.5t-50.5 -20.5t-39.5 -4t-39.5 4t-50.5 20.5t-43.5 48.5t-18.5 88h94q0 -39 12 -53t46 -14zM446 0l-10 55h-3q-23 -22 -63.5 -38.5t-83.5 -16.5q-40 0 -81.5 7.5t-75 33.5t-55 75t-21.5 132t21 132t55 75t75.5 34
t81.5 8q48 0 88.5 -15t55.5 -38h2v52h94v-496h-80zM290 94q32 0 57.5 4t43.5 19.5t27.5 47t9.5 86.5q0 49 -8 78.5t-24.5 46t-43 22t-62.5 5.5t-62 -5.5t-42.5 -22t-24.5 -46t-8 -78.5q0 -55 9.5 -86.5t27 -47t43 -19.5t57.5 -4z" />
    <glyph glyph-name="amacron.aalt" horiz-adv-x="553" 
d="M98 700h304v-94h-304v94zM423 0l-10 55h-3q-23 -22 -63.5 -38.5t-83.5 -16.5q-40 0 -81.5 7.5t-75 33.5t-55 75t-21.5 132t21 132t55 75t75.5 34t81.5 8q48 0 88.5 -15t55.5 -38h2v52h94v-496h-80zM267 94q32 0 57.5 4t43.5 19.5t27.5 47t9.5 86.5q0 49 -8 78.5t-24.5 46
t-43 22t-62.5 5.5t-62 -5.5t-42.5 -22t-24.5 -46t-8 -78.5q0 -55 9.5 -86.5t27 -47t43 -19.5t57.5 -4z" />
    <glyph glyph-name="aogonek.aalt" horiz-adv-x="563" 
d="M480 0q-7 -9 -19 -26t-20.5 -38t-9 -32t-0.5 -12q0 -21 16 -37q14 -14 26.5 -16.5t21.5 -2.5q7 0 15 1h3v-93q-54 0 -91 16.5t-54 48.5q-13 24 -13 51q0 1 0.5 16t9 44t23.5 56.5t30 49.5l-5 29h-3q-23 -22 -63.5 -38.5t-83.5 -16.5q-40 0 -81.5 7.5t-75 33.5t-55 75
t-21.5 132t21 132t55 75t75.5 34t81.5 8q48 0 88.5 -15t55.5 -38h2v52h94v-496h-23zM267 94q32 0 57.5 4t43.5 19.5t27.5 47t9.5 86.5q0 49 -8 78.5t-24.5 46t-43 22t-62.5 5.5t-62 -5.5t-42.5 -22t-24.5 -46t-8 -78.5q0 -55 9.5 -86.5t27 -47t43 -19.5t57.5 -4z" />
    <glyph glyph-name="arrowupdn.aalt" horiz-adv-x="772" 
d="M433 750q6 -65 40.5 -113.5t81.5 -81t98 -48.5t89 -16v-96q-66 0 -116 16.5t-86.5 43t-61 60t-40.5 67.5h-5v-456h5q15 34 40 67.5t61.5 60t86.5 43t116 16.5v-96q-38 0 -89 -16t-98 -48.5t-81.5 -81t-40.5 -113.5h-94q-6 65 -40.5 113.5t-81.5 81t-98 48.5t-89 16v96
q66 0 116 -16.5t86.5 -43t61.5 -60t40 -67.5h5v456h-5q-16 -34 -40.5 -67.5t-61 -60t-86.5 -43t-116 -16.5v96q38 0 89 16t98 48.5t81.5 81t40.5 113.5h94z" />
    <glyph glyph-name="arrowboth.aalt" horiz-adv-x="852" 
d="M822 302q-65 -6 -113.5 -40.5t-81 -81.5t-48.5 -98t-16 -89h-96q0 66 16.5 116t43 86.5t60 61t67.5 40.5v5h-456v-5q34 -15 67.5 -40t60 -61.5t43 -86.5t16.5 -116h-96q0 38 -16 89t-48.5 98t-81 81.5t-113.5 40.5v94q65 6 113.5 40.5t81 81.5t48.5 98t16 89h96
q0 -66 -16.5 -116t-43 -86.5t-60 -61.5t-67.5 -40v-5h456v5q-34 16 -67.5 40.5t-60 61t-43 86.5t-16.5 116h96q0 -38 16 -89t48.5 -98t81 -81.5t113.5 -40.5v-94z" />
    <glyph glyph-name="arrowleft.aalt" horiz-adv-x="852" 
d="M822 307h-624v-5q34 -15 67.5 -40t60 -61.5t43 -86.5t16.5 -116h-96q0 38 -16 89t-48.5 98t-81 81.5t-113.5 40.5v94q65 6 113.5 40.5t81 81.5t48.5 98t16 89h96q0 -66 -16.5 -116t-43 -86.5t-60 -61.5t-67.5 -40v-5h624v-94z" />
    <glyph glyph-name="arrowright.aalt" horiz-adv-x="852" 
d="M30 401h624v5q-34 15 -67.5 40t-60 61.5t-43 86.5t-16.5 116h96q0 -38 16 -89t48.5 -98t81 -81.5t113.5 -40.5v-94q-65 -6 -113.5 -40.5t-81 -81.5t-48.5 -98t-16 -89h-96q0 66 16.5 116t43 86.5t60 61.5t67.5 40v5h-624v94z" />
    <glyph glyph-name="arrowdown.aalt" horiz-adv-x="772" 
d="M433 750v-624h5q15 34 40 67.5t61.5 60t86.5 43t116 16.5v-96q-38 0 -89 -16t-98 -48.5t-81.5 -81t-40.5 -113.5h-94q-6 65 -40.5 113.5t-81.5 81t-98 48.5t-89 16v96q66 0 116 -16.5t86.5 -43t61.5 -60t40 -67.5h5v624h94z" />
    <glyph glyph-name="arrowup.aalt" horiz-adv-x="772" 
d="M339 -42v624h-5q-15 -34 -40 -67.5t-61.5 -60t-86.5 -43t-116 -16.5v96q38 0 89 16t98 48.5t81.5 81t40.5 113.5h94q6 -65 40.5 -113.5t81.5 -81t98 -48.5t89 -16v-96q-66 0 -116 16.5t-86.5 43t-61.5 60t-40 67.5h-5v-624h-94z" />
    <glyph glyph-name="uni2199.aalt" horiz-adv-x="723" 
d="M692 601l-441 -441l4 -4q26 10 55 16t61 6q54 0 113 -23t118 -82l-68 -68q-17 17 -42.5 34t-56.5 30t-66.5 21t-72.5 8q-43 0 -85 -13t-79 -44l-66 66q42 50 49 94t7 72q0 29 -7.5 71.5t-32.5 90t-52 74.5l68 68q47 -47 70.5 -94t29.5 -81t6 -57q0 -20 -5 -50t-18 -65
l4 -4l441 441z" />
    <glyph glyph-name="uni2197.aalt" horiz-adv-x="723" 
d="M31 107l441 442l-3 3q-26 -10 -55.5 -16t-61.5 -6q-54 0 -113 23t-118 82l68 68q17 -17 43 -33.5t57 -29.5t66.5 -21t72.5 -8q42 0 84 12.5t79 43.5l66 -66q-42 -50 -49 -93.5t-7 -70.5q0 -31 8 -73.5t32.5 -90t51.5 -74.5l-68 -68q-47 47 -70.5 94t-29.5 81t-6 57
q0 20 5 50t18 65l-3 4l-442 -441z" />
    <glyph glyph-name="uni2198.aalt" horiz-adv-x="723" 
d="M97 667l442 -441l3 4q-13 35 -18 65t-5 50q0 23 6 57t29.5 81t70.5 94l68 -68q-27 -27 -51.5 -74.5t-32.5 -90t-8 -73.5q0 -27 7 -70.5t49 -93.5l-66 -66q-37 31 -79 44t-85 13q-37 0 -72.5 -8t-66.5 -21t-56.5 -30t-42.5 -34l-68 68q59 59 118 82t113 23q32 0 61 -6
t55 -16l4 4l-441 441z" />
    <glyph glyph-name="uni2196.aalt" horiz-adv-x="723" 
d="M626 41l-441 441l-4 -3q13 -35 18 -65.5t5 -50.5q0 -23 -6 -57t-29.5 -81t-70.5 -94l-68 68q27 27 52 74.5t32.5 90t7.5 71.5q0 28 -7 72t-49 94l66 66q37 -31 79 -43.5t84 -12.5q37 0 72.5 8t66.5 21t57 29.5t43 33.5l68 -68q-59 -59 -118 -82t-113 -23q-32 0 -61 6
t-55 16l-4 -3l441 -442z" />
    <glyph glyph-name="uni0430.aalt" horiz-adv-x="553" 
d="M423 0l-10 55h-3q-23 -22 -63.5 -38.5t-83.5 -16.5q-40 0 -81.5 7.5t-75 33.5t-55 75t-21.5 132t21 132t55 75t75.5 34t81.5 8q48 0 88.5 -15t55.5 -38h2v52h94v-496h-80zM267 94q32 0 57.5 4t43.5 19.5t27.5 47t9.5 86.5q0 49 -8 78.5t-24.5 46t-43 22t-62.5 5.5
t-62 -5.5t-42.5 -22t-24.5 -46t-8 -78.5q0 -55 9.5 -86.5t27 -47t43 -19.5t57.5 -4z" />
    </font>
</defs>
</svg>
