<svg width="925" height="924" viewBox="0 0 925 924" fill="none" xmlns="http://www.w3.org/2000/svg">
<path d="M499.991 2.999C366.217 -10.0641 253.491 43.5162 195.491 87.514L773.491 122.514C733.491 87.5 648.491 17.5001 499.991 2.999Z" fill="#D9D9D9" stroke="black"/>
<path d="M194.991 87.5C174.491 99 113.491 156 85.9912 195.5L838.491 197C825.291 173.8 789.658 137.667 773.491 122.5L194.991 87.5Z" fill="#D9D9D9" stroke="black"/>
<path d="M85.4912 196.5C76.9912 206 41.9912 265.5 31.4912 298L903.891 328.5C897.891 300.9 864.491 228.5 838.991 197L85.4912 196.5Z" fill="#D9D9D9" stroke="black"/>
<path d="M903.991 329L31.1905 299C11.9912 346 -7.00977 438 4.49052 520L923.491 441.5C924.491 430 917.492 369.5 903.991 329Z" fill="#D9D9D9" stroke="black"/>
<path d="M923.491 442L4.59082 521C8.49121 555.5 17.4908 587.5 20.2908 596L902.491 603C920.491 555 926.491 475.5 923.491 442Z" fill="#D9D9D9" stroke="black"/>
<path d="M30.9908 597H20.5908C44.4912 675.5 81.4908 726 97.9908 745.5L856.491 704C867.991 686 892.991 637.5 902.311 603.5L30.9908 597Z" fill="#D9D9D9" stroke="black"/>
<path d="M856.491 704L97.9912 745.5C132.491 792 166.991 817 214.991 851.5C262.991 886 346.491 912.5 391.991 919C437.491 925.5 564.491 930.5 668.491 876C772.491 821.5 815.491 764 856.491 704Z" fill="#D9D9D9" stroke="black"/>
<path d="M220.25 174.045L233.574 143.818H239.142L222.636 182H217.864L201.656 143.818H207.125L220.25 174.045ZM205.236 143.818V182H199.369V143.818H205.236ZM235.264 182V143.818H241.131V182H235.264ZM267.381 182.795C263.934 182.795 260.909 181.975 258.308 180.335C255.722 178.694 253.701 176.399 252.242 173.449C250.8 170.499 250.08 167.052 250.08 163.108C250.08 159.131 250.8 155.659 252.242 152.692C253.701 149.726 255.722 147.423 258.308 145.782C260.909 144.141 263.934 143.321 267.381 143.321C270.828 143.321 273.844 144.141 276.429 145.782C279.031 147.423 281.053 149.726 282.494 152.692C283.953 155.659 284.682 159.131 284.682 163.108C284.682 167.052 283.953 170.499 282.494 173.449C281.053 176.399 279.031 178.694 276.429 180.335C273.844 181.975 270.828 182.795 267.381 182.795ZM267.381 177.526C269.999 177.526 272.153 176.854 273.844 175.512C275.534 174.17 276.785 172.405 277.597 170.217C278.409 168.03 278.815 165.66 278.815 163.108C278.815 160.556 278.409 158.178 277.597 155.974C276.785 153.77 275.534 151.988 273.844 150.629C272.153 149.27 269.999 148.591 267.381 148.591C264.762 148.591 262.608 149.27 260.918 150.629C259.227 151.988 257.976 153.77 257.164 155.974C256.352 158.178 255.946 160.556 255.946 163.108C255.946 165.66 256.352 168.03 257.164 170.217C257.976 172.405 259.227 174.17 260.918 175.512C262.608 176.854 264.762 177.526 267.381 177.526ZM321.975 129.5L324.958 133.08C323.798 134.206 322.456 134.994 320.931 135.441C319.406 135.888 317.683 136.162 315.76 136.261C313.838 136.361 311.7 136.46 309.347 136.56C306.696 136.659 304.5 137.305 302.76 138.499C301.02 139.692 299.677 141.415 298.733 143.669C297.788 145.923 297.183 148.69 296.918 151.972H297.415C298.708 149.585 300.498 147.829 302.785 146.702C305.072 145.575 307.524 145.011 310.143 145.011C313.126 145.011 315.81 145.707 318.197 147.099C320.583 148.491 322.472 150.555 323.864 153.289C325.256 156.023 325.952 159.396 325.952 163.406C325.952 167.4 325.24 170.847 323.814 173.747C322.406 176.647 320.425 178.884 317.873 180.459C315.338 182.017 312.363 182.795 308.949 182.795C305.536 182.795 302.544 181.992 299.976 180.384C297.407 178.76 295.41 176.357 293.985 173.175C292.56 169.977 291.847 166.025 291.847 161.318V157.241C291.847 148.74 293.289 142.294 296.172 137.902C299.073 133.51 303.431 131.24 309.248 131.091C311.303 131.025 313.134 131.008 314.741 131.041C316.349 131.074 317.749 131 318.942 130.817C320.135 130.635 321.146 130.196 321.975 129.5ZM308.949 177.526C311.253 177.526 313.233 176.946 314.89 175.786C316.564 174.625 317.849 172.993 318.743 170.888C319.638 168.767 320.086 166.273 320.086 163.406C320.086 160.622 319.63 158.252 318.719 156.297C317.824 154.341 316.539 152.85 314.866 151.822C313.192 150.795 311.187 150.281 308.85 150.281C307.143 150.281 305.61 150.571 304.251 151.151C302.892 151.731 301.732 152.585 300.771 153.712C299.81 154.839 299.064 156.214 298.534 157.838C298.02 159.462 297.747 161.318 297.714 163.406C297.714 167.682 298.716 171.104 300.721 173.673C302.727 176.241 305.469 177.526 308.949 177.526ZM354.613 182V143.818H384.642V182H378.775V149.287H360.48V182H354.613ZM395.356 196.318V143.818H401.023V149.884H401.719C402.15 149.221 402.747 148.375 403.509 147.348C404.288 146.304 405.398 145.376 406.84 144.564C408.298 143.735 410.27 143.321 412.756 143.321C415.971 143.321 418.805 144.125 421.258 145.732C423.71 147.34 425.624 149.618 427 152.568C428.375 155.518 429.063 158.998 429.063 163.009C429.063 167.052 428.375 170.557 427 173.523C425.624 176.473 423.719 178.76 421.282 180.384C418.846 181.992 416.037 182.795 412.856 182.795C410.403 182.795 408.439 182.389 406.964 181.577C405.489 180.749 404.354 179.812 403.559 178.768C402.763 177.708 402.15 176.83 401.719 176.134H401.222V196.318H395.356ZM401.123 162.909C401.123 165.793 401.545 168.336 402.39 170.54C403.236 172.728 404.47 174.443 406.094 175.686C407.718 176.912 409.707 177.526 412.06 177.526C414.513 177.526 416.559 176.879 418.2 175.587C419.857 174.277 421.1 172.521 421.929 170.317C422.774 168.096 423.197 165.627 423.197 162.909C423.197 160.224 422.782 157.805 421.954 155.651C421.142 153.48 419.907 151.764 418.25 150.505C416.609 149.229 414.546 148.591 412.06 148.591C409.674 148.591 407.669 149.196 406.045 150.406C404.421 151.599 403.194 153.272 402.366 155.427C401.537 157.565 401.123 160.059 401.123 162.909ZM443.878 173.349L462.273 143.818H469.035V182H463.168V152.469L444.873 182H438.012V143.818H443.878V173.349ZM476.399 182V176.531H477.791C478.934 176.531 479.887 176.308 480.65 175.86C481.412 175.396 482.025 174.592 482.489 173.449C482.97 172.289 483.334 170.681 483.583 168.626C483.848 166.555 484.038 163.92 484.154 160.722L484.85 143.818H510.305V182H504.439V149.287H490.419L489.822 162.909C489.69 166.041 489.408 168.8 488.977 171.187C488.563 173.557 487.925 175.545 487.063 177.153C486.218 178.76 485.091 179.97 483.682 180.782C482.274 181.594 480.509 182 478.387 182H476.399ZM536.58 182.795C533.133 182.795 530.109 181.975 527.507 180.335C524.922 178.694 522.9 176.399 521.441 173.449C520 170.499 519.279 167.052 519.279 163.108C519.279 159.131 520 155.659 521.441 152.692C522.9 149.726 524.922 147.423 527.507 145.782C530.109 144.141 533.133 143.321 536.58 143.321C540.027 143.321 543.043 144.141 545.628 145.782C548.23 147.423 550.252 149.726 551.694 152.692C553.152 155.659 553.881 159.131 553.881 163.108C553.881 167.052 553.152 170.499 551.694 173.449C550.252 176.399 548.23 178.694 545.628 180.335C543.043 181.975 540.027 182.795 536.58 182.795ZM536.58 177.526C539.198 177.526 541.353 176.854 543.043 175.512C544.733 174.17 545.984 172.405 546.797 170.217C547.609 168.03 548.015 165.66 548.015 163.108C548.015 160.556 547.609 158.178 546.797 155.974C545.984 153.77 544.733 151.988 543.043 150.629C541.353 149.27 539.198 148.591 536.58 148.591C533.962 148.591 531.807 149.27 530.117 150.629C528.426 151.988 527.175 153.77 526.363 155.974C525.551 158.178 525.145 160.556 525.145 163.108C525.145 165.66 525.551 168.03 526.363 170.217C527.175 172.405 528.426 174.17 530.117 175.512C531.807 176.854 533.962 177.526 536.58 177.526ZM558.877 182L574.389 162.611L559.076 143.818H566.037L578.764 160.125H581.946V143.818H587.812V160.125H590.895L603.622 143.818H610.582L595.369 162.611L610.781 182H603.721L590.795 165.594H587.812V182H581.946V165.594H578.963L565.937 182H558.877ZM633.6 182.795C629.922 182.795 626.748 181.983 624.08 180.359C621.428 178.719 619.382 176.432 617.94 173.499C616.515 170.549 615.802 167.118 615.802 163.207C615.802 159.296 616.515 155.849 617.94 152.866C619.382 149.867 621.387 147.53 623.956 145.857C626.541 144.166 629.557 143.321 633.004 143.321C634.993 143.321 636.956 143.652 638.895 144.315C640.834 144.978 642.599 146.055 644.19 147.547C645.781 149.022 647.049 150.977 647.993 153.413C648.938 155.849 649.41 158.849 649.41 162.412V164.898H619.978V159.827H643.444C643.444 157.672 643.013 155.75 642.152 154.06C641.306 152.369 640.097 151.035 638.522 150.058C636.965 149.08 635.125 148.591 633.004 148.591C630.667 148.591 628.645 149.171 626.939 150.331C625.248 151.474 623.947 152.966 623.036 154.805C622.124 156.645 621.669 158.617 621.669 160.722V164.102C621.669 166.986 622.166 169.43 623.16 171.435C624.171 173.424 625.571 174.94 627.361 175.984C629.151 177.012 631.231 177.526 633.6 177.526C635.142 177.526 636.534 177.31 637.777 176.879C639.036 176.432 640.122 175.769 641.033 174.891C641.944 173.996 642.649 172.885 643.146 171.56L648.814 173.151C648.217 175.073 647.214 176.763 645.806 178.222C644.397 179.663 642.657 180.79 640.586 181.602C638.514 182.398 636.186 182.795 633.6 182.795ZM683.888 160.224V165.693H662.809V160.224H683.888ZM664.201 143.818V182H658.334V143.818H664.201ZM688.363 143.818V182H682.496V143.818H688.363ZM704.943 173.349L723.338 143.818H730.099V182H724.233V152.469L705.937 182H699.076V143.818H704.943V173.349ZM763.813 182V149.188H753.671C751.384 149.188 749.586 149.718 748.276 150.778C746.967 151.839 746.313 153.297 746.313 155.153C746.313 156.976 746.901 158.41 748.078 159.454C749.271 160.498 750.903 161.02 752.975 161.02H765.304V166.489H752.975C750.389 166.489 748.16 166.033 746.288 165.121C744.415 164.21 742.973 162.909 741.963 161.219C740.952 159.512 740.446 157.49 740.446 155.153C740.446 152.8 740.977 150.778 742.037 149.088C743.098 147.398 744.614 146.097 746.586 145.185C748.575 144.274 750.936 143.818 753.671 143.818H769.381V182H763.813ZM738.358 182L749.196 163.009H755.56L744.722 182H738.358Z" fill="black"/>
</svg>
