<svg width="925" height="924" viewBox="0 0 925 924" fill="none" xmlns="http://www.w3.org/2000/svg">
<path d="M499.991 2.999C366.217 -10.0641 253.491 43.5162 195.491 87.514L773.491 122.514C733.491 87.5 648.491 17.5001 499.991 2.999Z" fill="#D9D9D9" stroke="black"/>
<path d="M194.991 87.5C174.491 99 113.491 156 85.9912 195.5L838.491 197C825.291 173.8 789.658 137.667 773.491 122.5L194.991 87.5Z" fill="#D9D9D9" stroke="black"/>
<path d="M85.4912 196.5C76.9912 206 41.9912 265.5 31.4912 298L903.891 328.5C897.891 300.9 864.491 228.5 838.991 197L85.4912 196.5Z" fill="#D9D9D9" stroke="black"/>
<path d="M903.991 329L31.1905 299C11.9912 346 -7.00977 438 4.49052 520L923.491 441.5C924.491 430 917.492 369.5 903.991 329Z" fill="#D9D9D9" stroke="black"/>
<path d="M923.491 442L4.59082 521C8.49121 555.5 17.4908 587.5 20.2908 596L902.491 603C920.491 555 926.491 475.5 923.491 442Z" fill="#D9D9D9" stroke="black"/>
<path d="M30.9908 597H20.5908C44.4912 675.5 81.4908 726 97.9908 745.5L856.491 704C867.991 686 892.991 637.5 902.311 603.5L30.9908 597Z" fill="#D9D9D9" stroke="black"/>
<path d="M856.491 704L97.9912 745.5C132.491 792 166.991 817 214.991 851.5C262.991 886 346.491 912.5 391.991 919C437.491 925.5 564.491 930.5 668.491 876C772.491 821.5 815.491 764 856.491 704Z" fill="#D9D9D9" stroke="black"/>
</svg>
