<svg width="924" height="923" viewBox="0 0 924 923" fill="none" xmlns="http://www.w3.org/2000/svg">
<mask id="path-1-inside-1_601_7" fill="white">
<path fill-rule="evenodd" clip-rule="evenodd" d="M84.5721 195C62.3515 226.325 43.9362 260.539 30 296.968L903.643 327.086C889.078 279.311 866.98 234.821 838.733 195H838.5H84.5721Z"/>
</mask>
<path fill-rule="evenodd" clip-rule="evenodd" d="M84.5721 195C62.3515 226.325 43.9362 260.539 30 296.968L903.643 327.086C889.078 279.311 866.98 234.821 838.733 195H838.5H84.5721Z" fill="#C8B39A"/>
<path d="M84.5721 195V194H84.0554L83.7564 194.421L84.5721 195ZM30 296.968L29.066 296.611L28.5655 297.919L29.9655 297.968L30 296.968ZM903.643 327.086L903.608 328.086L905.007 328.134L904.599 326.795L903.643 327.086ZM838.733 195L839.548 194.421L839.249 194H838.733V195ZM83.7564 194.421C61.4879 225.814 43.0327 260.102 29.066 296.611L30.934 297.325C44.8398 260.976 63.2151 226.836 85.3877 195.579L83.7564 194.421ZM29.9655 297.968L903.608 328.086L903.677 326.087L30.0345 295.969L29.9655 297.968ZM904.599 326.795C890.003 278.915 867.857 234.329 839.548 194.421L837.917 195.579C866.104 235.314 888.153 279.707 902.686 327.378L904.599 326.795ZM838.733 194H838.5V196H838.733V194ZM84.5721 196H838.5V194H84.5721V196Z" fill="#C8B39A" mask="url(#path-1-inside-1_601_7)"/>
<mask id="path-3-inside-2_601_7" fill="white">
<path fill-rule="evenodd" clip-rule="evenodd" d="M838.58 195H84.4199C168.122 77.0032 305.818 0 461.5 0C617.182 0 754.878 77.0032 838.58 195ZM193.5 85.6246L772.429 120.292C690.349 45.56 581.241 0 461.491 0C361.581 0 269.078 31.7141 193.5 85.6246Z"/>
</mask>
<path fill-rule="evenodd" clip-rule="evenodd" d="M838.58 195H84.4199C168.122 77.0032 305.818 0 461.5 0C617.182 0 754.878 77.0032 838.58 195ZM193.5 85.6246L772.429 120.292C690.349 45.56 581.241 0 461.491 0C361.581 0 269.078 31.7141 193.5 85.6246Z" fill="#C8B39A"/>
<path d="M84.4199 195L83.6043 194.421L82.4845 196H84.4199V195ZM838.58 195V196H840.516L839.396 194.421L838.58 195ZM193.5 85.6246L192.919 84.8105L190.616 86.4537L193.44 86.6228L193.5 85.6246ZM772.429 120.292L772.369 121.29L775.197 121.459L773.102 119.552L772.429 120.292ZM84.4199 196H838.58V194H84.4199V196ZM85.2356 195.579C168.758 77.8348 306.156 1 461.5 1V-1C305.481 -1 167.486 76.1716 83.6043 194.421L85.2356 195.579ZM461.5 1C616.844 1 754.242 77.8348 837.765 195.579L839.396 194.421C755.515 76.1716 617.52 -1 461.5 -1V1ZM193.44 86.6228L772.369 121.29L772.489 119.294L193.56 84.6264L193.44 86.6228ZM461.491 1C580.982 1 689.853 46.4605 771.756 121.031L773.102 119.552C690.846 44.6595 581.499 -1 461.491 -1V1ZM194.081 86.4387C269.495 32.6451 361.796 1 461.491 1V-1C361.366 -1 268.661 30.7831 192.919 84.8105L194.081 86.4387Z" fill="#C8B39A" mask="url(#path-3-inside-2_601_7)"/>
<mask id="path-5-inside-3_601_7" fill="white">
<path fill-rule="evenodd" clip-rule="evenodd" d="M193.5 85.6246L772.429 120.292C690.349 45.56 581.241 0 461.491 0C361.581 0 269.078 31.7141 193.5 85.6246Z"/>
</mask>
<path fill-rule="evenodd" clip-rule="evenodd" d="M193.5 85.6246L772.429 120.292C690.349 45.56 581.241 0 461.491 0C361.581 0 269.078 31.7141 193.5 85.6246Z" fill="#C8B39A"/>
<path d="M193.5 85.6246L192.919 84.8105L190.616 86.4537L193.44 86.6228L193.5 85.6246ZM772.429 120.292L772.369 121.29L775.197 121.459L773.102 119.552L772.429 120.292ZM193.44 86.6228L772.369 121.29L772.489 119.294L193.56 84.6264L193.44 86.6228ZM461.491 1C580.982 1 689.853 46.4605 771.756 121.031L773.102 119.552C690.846 44.6595 581.499 -1 461.491 -1V1ZM194.081 86.4387C269.495 32.6451 361.796 1 461.491 1V-1C361.366 -1 268.661 30.7831 192.919 84.8105L194.081 86.4387Z" fill="#C8B39A" mask="url(#path-5-inside-3_601_7)"/>
<mask id="path-7-inside-4_601_7" fill="white">
<path fill-rule="evenodd" clip-rule="evenodd" d="M923.481 439.904L3.4868 519.043C1.18519 500.352 0 481.314 0 462C0 206.844 206.844 0 462 0C709.748 0 911.95 195.009 923.481 439.904ZM30.3496 296.968L903.992 327.086C846.271 137.747 670.223 0 462.002 0C264.991 0 96.7818 123.314 30.3496 296.968Z"/>
</mask>
<path fill-rule="evenodd" clip-rule="evenodd" d="M923.481 439.904L3.4868 519.043C1.18519 500.352 0 481.314 0 462C0 206.844 206.844 0 462 0C709.748 0 911.95 195.009 923.481 439.904ZM30.3496 296.968L903.992 327.086C846.271 137.747 670.223 0 462.002 0C264.991 0 96.7818 123.314 30.3496 296.968Z" fill="#C8B39A"/>
<path d="M923.481 439.904L923.567 440.9L924.525 440.818L924.48 439.857L923.481 439.904ZM3.4868 519.043L2.49429 519.166L2.6121 520.122L3.5725 520.04L3.4868 519.043ZM30.3496 296.968L29.4156 296.611L28.915 297.919L30.3151 297.968L30.3496 296.968ZM903.992 327.086L903.958 328.086L905.357 328.134L904.949 326.795L903.992 327.086ZM923.395 438.908L3.40109 518.047L3.5725 520.04L923.567 440.9L923.395 438.908ZM4.4793 518.921C2.18267 500.27 1 481.273 1 462H-1C-1 481.355 0.1877 500.433 2.49429 519.166L4.4793 518.921ZM1 462C1 207.397 207.397 1 462 1V-1C206.292 -1 -1 206.292 -1 462H1ZM462 1C709.212 1 910.976 195.587 922.482 439.951L924.48 439.857C912.923 194.431 710.285 -1 462 -1V1ZM30.3151 297.968L903.958 328.086L904.027 326.087L30.384 295.969L30.3151 297.968ZM904.949 326.795C847.103 137.046 670.675 -1 462.002 -1V1C669.77 1 845.439 138.448 903.036 327.378L904.949 326.795ZM462.002 -1C264.563 -1 95.991 122.583 29.4156 296.611L31.2836 297.325C97.5727 124.046 265.419 1 462.002 1V-1Z" fill="#C8B39A" mask="url(#path-7-inside-4_601_7)"/>
<mask id="path-9-inside-5_601_7" fill="white">
<path fill-rule="evenodd" clip-rule="evenodd" d="M902.615 601.345C916.507 557.375 924 510.563 924 462C924 206.844 717.156 0 462 0C206.844 0 0 206.844 0 462C0 508.115 6.75636 552.651 19.3332 594.674L902.615 601.345ZM923.481 439.904L3.4868 519.043C1.18519 500.352 0 481.314 0 462C0 206.844 206.844 0 462 0C709.748 0 911.95 195.009 923.481 439.904Z"/>
</mask>
<path fill-rule="evenodd" clip-rule="evenodd" d="M902.615 601.345C916.507 557.375 924 510.563 924 462C924 206.844 717.156 0 462 0C206.844 0 0 206.844 0 462C0 508.115 6.75636 552.651 19.3332 594.674L902.615 601.345ZM923.481 439.904L3.4868 519.043C1.18519 500.352 0 481.314 0 462C0 206.844 206.844 0 462 0C709.748 0 911.95 195.009 923.481 439.904Z" fill="#C8B39A"/>
<path d="M902.615 601.345L902.607 602.345L903.346 602.35L903.568 601.646L902.615 601.345ZM19.3332 594.674L18.3752 594.961L18.587 595.669L19.3256 595.674L19.3332 594.674ZM923.481 439.904L923.567 440.9L924.525 440.818L924.48 439.857L923.481 439.904ZM3.4868 519.043L2.49429 519.166L2.6121 520.122L3.5725 520.04L3.4868 519.043ZM903.568 601.646C917.491 557.58 925 510.666 925 462H923C923 510.459 915.523 557.17 901.661 601.044L903.568 601.646ZM925 462C925 206.292 717.708 -1 462 -1V1C716.603 1 923 207.397 923 462H925ZM462 -1C206.292 -1 -1 206.292 -1 462H1C1 207.397 207.397 1 462 1V-1ZM-1 462C-1 508.213 5.7708 552.846 18.3752 594.961L20.2912 594.387C7.74192 552.457 1 508.017 1 462H-1ZM19.3256 595.674L902.607 602.345L902.622 600.345L19.3407 593.674L19.3256 595.674ZM923.395 438.908L3.40109 518.047L3.5725 520.04L923.567 440.9L923.395 438.908ZM4.4793 518.921C2.18267 500.27 1 481.273 1 462H-1C-1 481.355 0.1877 500.433 2.49429 519.166L4.4793 518.921ZM1 462C1 207.397 207.397 1 462 1V-1C206.292 -1 -1 206.292 -1 462H1ZM462 1C709.212 1 910.976 195.587 922.482 439.951L924.48 439.857C912.923 194.431 710.285 -1 462 -1V1Z" fill="#C8B39A" mask="url(#path-9-inside-5_601_7)"/>
<mask id="path-11-inside-6_601_7" fill="white">
<path fill-rule="evenodd" clip-rule="evenodd" d="M856.208 703.049C899.21 632.875 924 550.332 924 462C924 206.844 717.156 0 462 0C206.844 0 0 206.844 0 462C0 568.431 35.9887 666.455 96.4607 744.569L856.208 703.049ZM902.615 601.345C916.507 557.375 924 510.563 924 462C924 206.844 717.156 0 462 0C206.844 0 0 206.844 0 462C0 508.115 6.75636 552.651 19.3332 594.674L902.615 601.345Z"/>
</mask>
<path fill-rule="evenodd" clip-rule="evenodd" d="M856.208 703.049C899.21 632.875 924 550.332 924 462C924 206.844 717.156 0 462 0C206.844 0 0 206.844 0 462C0 568.431 35.9887 666.455 96.4607 744.569L856.208 703.049ZM902.615 601.345C916.507 557.375 924 510.563 924 462C924 206.844 717.156 0 462 0C206.844 0 0 206.844 0 462C0 508.115 6.75636 552.651 19.3332 594.674L902.615 601.345Z" fill="#C8B39A"/>
<path d="M856.208 703.049L856.263 704.048L856.787 704.019L857.061 703.572L856.208 703.049ZM96.4607 744.569L95.6699 745.181L95.9912 745.596L96.5152 745.568L96.4607 744.569ZM902.615 601.345L902.607 602.345L903.346 602.35L903.568 601.646L902.615 601.345ZM19.3332 594.674L18.3752 594.961L18.587 595.669L19.3256 595.674L19.3332 594.674ZM923 462C923 550.143 898.264 632.505 855.355 702.527L857.061 703.572C900.156 633.244 925 550.522 925 462H923ZM462 1C716.603 1 923 207.397 923 462H925C925 206.292 717.708 -1 462 -1V1ZM1 462C1 207.397 207.397 1 462 1V-1C206.292 -1 -1 206.292 -1 462H1ZM97.2514 743.957C36.9103 666.012 1 568.201 1 462H-1C-1 568.66 35.0671 666.899 95.6699 745.181L97.2514 743.957ZM96.5152 745.568L856.263 704.048L856.154 702.051L96.4061 743.571L96.5152 745.568ZM923 462C923 510.459 915.523 557.17 901.661 601.044L903.568 601.646C917.491 557.58 925 510.666 925 462H923ZM462 1C716.603 1 923 207.397 923 462H925C925 206.292 717.708 -1 462 -1V1ZM1 462C1 207.397 207.397 1 462 1V-1C206.292 -1 -1 206.292 -1 462H1ZM20.2912 594.387C7.74192 552.457 1 508.017 1 462H-1C-1 508.213 5.7708 552.846 18.3752 594.961L20.2912 594.387ZM19.3256 595.674L902.607 602.345L902.622 600.345L19.3407 593.674L19.3256 595.674Z" fill="#C8B39A" mask="url(#path-11-inside-6_601_7)"/>
<mask id="path-13-inside-7_601_7" fill="white">
<path fill-rule="evenodd" clip-rule="evenodd" d="M97 743.52C181.503 852.675 313.814 922.951 462.539 922.951C629.363 922.951 775.534 834.531 856.747 702L97 743.52Z"/>
</mask>
<path fill-rule="evenodd" clip-rule="evenodd" d="M97 743.52C181.503 852.675 313.814 922.951 462.539 922.951C629.363 922.951 775.534 834.531 856.747 702L97 743.52Z" fill="#C8B39A"/>
<path d="M97 743.52L96.9454 742.521L95.0429 742.625L96.2093 744.132L97 743.52ZM856.747 702L857.6 702.522L858.596 700.897L856.693 701.001L856.747 702ZM462.539 921.951C314.137 921.951 182.112 851.829 97.7907 742.908L96.2093 744.132C180.893 853.522 313.492 923.951 462.539 923.951V921.951ZM855.895 701.478C774.856 833.724 629 921.951 462.539 921.951V923.951C629.725 923.951 776.213 835.338 857.6 702.522L855.895 701.478ZM97.0546 744.518L856.802 702.999L856.693 701.001L96.9454 742.521L97.0546 744.518Z" fill="#C8B39A" mask="url(#path-13-inside-7_601_7)"/>
</svg>
